<svg width="921" height="885" viewBox="0 0 921 885" fill="none" xmlns="http://www.w3.org/2000/svg">
<path fill-rule="evenodd" clip-rule="evenodd" d="M715.704 553.322L825.919 518.726C828.586 528.614 829.919 536.781 829.919 543.226C829.919 549.67 826.752 564.503 820.419 587.726L805.919 839.726C775.363 831.726 751.363 827.726 733.919 827.726H687.537L686.328 839.51C655.772 831.51 631.772 827.51 614.328 827.51C596.883 827.51 567.883 827.51 527.328 827.51L641.328 569.01L717.328 537.51L715.704 553.322Z" fill="white"/>
<path d="M654.801 792.01L713.599 553.33C713.662 553.076 713.853 552.872 714.103 552.794L825.603 517.794C826.01 517.666 826.441 517.903 826.552 518.314C829.234 528.262 830.578 536.49 830.578 543.01C830.578 549.54 827.411 564.381 821.072 587.631L807.342 826.247L806.828 862.51H438.328L566.828 792.01H654.801ZM807.81 792.01L819.579 587.466L819.604 587.312C825.918 564.161 829.078 549.361 829.078 543.01C829.078 536.804 827.822 528.951 825.305 519.46L714.955 554.099L656.345 792.01H807.81Z" fill="#3B3B3B"/>
<path fill-rule="evenodd" clip-rule="evenodd" d="M626.565 383.444L630.419 377.226L742.919 355.881C797.919 348.57 825.419 334.914 825.419 314.914C825.419 294.914 807.086 285.248 770.419 285.914L768.919 212.914C784.252 210.527 805.252 211.736 831.919 216.542C871.919 223.752 924.919 252.167 918.919 324.265C915.557 364.667 891.154 402.995 836.919 427.726C830.061 430.852 817.395 433.34 798.919 435.189L789.776 435.224L847.419 515.726C793.236 541.464 751.736 558.464 722.919 566.726C694.102 574.987 661.769 579.154 625.919 579.226L634.375 468.753L579.419 487.226L614.919 537.726L582.811 585.726C514.106 550.953 481.939 514.62 486.311 476.726C490.683 438.831 537.35 407.165 626.311 381.726L626.565 383.444Z" fill="white"/>
<path d="M626.121 381.289C626.52 381.175 626.935 381.406 627.049 381.804C627.163 382.202 626.932 382.617 626.534 382.731C537.841 408.093 491.398 439.608 487.073 477.096C482.747 514.59 514.711 550.695 583.166 585.341C583.536 585.528 583.684 585.979 583.497 586.349C583.31 586.718 582.859 586.866 582.489 586.679C513.534 551.78 481.165 515.218 485.583 476.924C490.001 438.623 536.892 406.805 626.121 381.289ZM572.44 472.762L636.419 453.226L634.919 471.726L634.115 472.004C634.038 472.198 633.88 472.359 633.668 472.434L583.987 489.897L615.452 537.094C615.681 537.439 615.588 537.904 615.244 538.134C614.899 538.364 614.433 538.271 614.204 537.926L582.571 490.476C582.374 490.424 582.192 490.312 582.053 490.143C578.019 485.204 573.991 479.329 569.967 472.519C569.686 472.043 569.843 471.43 570.319 471.149C570.794 470.868 571.408 471.026 571.689 471.501C571.939 471.925 572.189 472.345 572.44 472.762Z" fill="#3B3B3B"/>
<path fill-rule="evenodd" clip-rule="evenodd" d="M186.263 856.12L223.961 855.879L224.715 706.503L153.922 705.699C110.732 705.208 74.3617 737.875 70.2286 780.87L65.3572 831.545C64.1417 844.189 73.4065 855.424 86.0508 856.64C86.8311 856.715 87.6147 856.75 88.3986 856.745L164.669 856.258L174.789 792.726C175.05 791.09 176.588 789.975 178.224 790.236C179.583 790.452 180.621 791.566 180.74 792.937L186.263 856.12Z" fill="white"/>
<path fill-rule="evenodd" clip-rule="evenodd" d="M165.804 417.726L182.304 388.726L258.713 394.01L246.213 463.51L224.26 706.891C187.168 706.826 165.319 706.866 158.713 707.01C152.107 707.154 147.637 707.059 145.304 706.726L102.41 683.751C67.8437 665.237 54.831 622.206 73.3452 587.64C73.6207 587.126 73.9025 586.615 74.1906 586.108L137.737 474.186" fill="white"/>
<path fill-rule="evenodd" clip-rule="evenodd" d="M165.804 417.726L182.304 388.726L258.713 394.01L246.213 463.51L224.26 706.891C187.168 706.826 165.319 706.866 158.713 707.01C152.107 707.154 147.637 707.059 145.304 706.726L102.41 683.751C67.8437 665.237 54.831 622.206 73.3452 587.64C73.6207 587.126 73.9025 586.615 74.1906 586.108L137.737 474.186" fill="white"/>
<path fill-rule="evenodd" clip-rule="evenodd" d="M254.42 393.118L219.596 595.234C211.763 640.696 236.479 685.516 279.107 703.151C297.956 710.949 318.249 725.534 358.912 697.57C373.82 687.318 386.761 674.992 397.735 660.592C413.533 639.863 416.704 612.146 405.996 588.385L314.77 385.955L254.42 393.118Z" fill="white"/>
<path d="M257.442 394.2L245.09 462.877L223.189 705.64C186.506 705.577 164.885 705.617 158.311 705.76C151.868 705.9 147.471 705.812 145.155 705.501L102.379 682.59C68.1779 664.271 55.3026 621.695 73.6212 587.494C73.8938 586.985 74.1727 586.48 74.4577 585.978L138.004 474.057C138.208 473.697 138.082 473.239 137.722 473.034C137.362 472.83 136.904 472.956 136.699 473.316L73.1533 585.237C72.8622 585.75 72.5774 586.266 72.299 586.786C53.5892 621.717 66.7394 665.202 101.671 683.912L144.565 706.887C144.642 706.928 144.726 706.956 144.813 706.968C147.2 707.309 151.698 707.404 158.344 707.259C164.941 707.116 186.79 707.076 223.873 707.141C224.262 707.142 224.587 706.845 224.622 706.458L246.575 463.077L259.066 393.642C259.145 393.203 258.825 392.792 258.379 392.761L181.971 387.476C181.683 387.458 181.41 387.604 181.267 387.855L164.767 416.855C164.562 417.215 164.688 417.673 165.048 417.878C165.408 418.082 165.866 417.957 166.071 417.597L182.338 389.006L257.442 394.2Z" fill="#3B3B3B"/>
<path d="M71.2108 778.726C71.1211 779.455 71.0408 780.188 70.9701 780.925L66.0986 831.599C64.9228 843.831 73.8855 854.701 86.1174 855.877C86.8723 855.949 87.6304 855.983 88.3887 855.978L164.023 855.495L174.043 792.591C174.369 790.546 176.291 789.152 178.337 789.478C180.036 789.749 181.333 791.141 181.482 792.855L186.945 855.348L223.21 855.117L223.595 778.726H71.2108V778.726ZM186.263 856.853C185.872 856.855 185.545 856.557 185.511 856.168L179.988 792.986C179.898 791.957 179.12 791.122 178.101 790.959C176.874 790.764 175.72 791.6 175.525 792.828L165.404 856.359C165.346 856.721 165.035 856.988 164.668 856.991L88.3983 857.478C87.5888 857.483 86.7797 857.447 85.9739 857.37C72.9173 856.115 63.3504 844.513 64.6055 831.456L69.477 780.781C73.6473 737.399 110.346 704.437 153.925 704.932L224.718 705.736C225.131 705.741 225.462 706.078 225.46 706.49L224.706 855.866C224.704 856.277 224.372 856.609 223.961 856.612L186.263 856.853Z" fill="#3B3B3B"/>
<path fill-rule="evenodd" clip-rule="evenodd" d="M273.615 851.525L270.549 747.149C269.676 717.425 293.064 692.621 322.788 691.748C323.335 691.731 323.882 691.724 324.429 691.724C354.76 691.758 379.321 716.373 379.287 746.704C379.287 746.9 379.286 747.096 379.283 747.291L378.05 851.857L360.385 872.326C350.686 883.564 334.382 886.349 321.502 878.968L273.615 851.525Z" fill="white"/>
<path fill-rule="evenodd" clip-rule="evenodd" d="M254.42 393.118L219.596 595.234C211.763 640.696 236.479 685.516 279.107 703.151C297.956 710.949 318.249 725.534 358.912 697.57C373.82 687.318 386.761 674.992 397.735 660.592C413.533 639.863 416.704 612.146 405.996 588.385L314.77 385.955L254.42 393.118Z" fill="white"/>
<path d="M253.741 391.809C253.411 391.848 253.147 392.1 253.09 392.427L218.266 594.543C210.374 640.351 235.278 685.512 278.23 703.28C279.439 703.781 280.698 704.326 282.298 705.037C282.925 705.316 285.713 706.566 286.47 706.903C298.342 712.176 306.009 714.357 315.816 714.148C328.611 713.875 342.513 708.789 358.747 697.625C373.72 687.327 386.719 674.946 397.741 660.483C413.706 639.536 416.91 611.525 406.089 587.513L314.863 385.083C314.729 384.785 314.416 384.608 314.091 384.646L253.741 391.809ZM313.722 386.201L404.722 588.13C415.316 611.639 412.179 639.064 396.548 659.574C385.622 673.911 372.739 686.181 357.897 696.389C341.89 707.397 328.264 712.383 315.784 712.648C306.248 712.851 298.766 710.723 287.079 705.532C286.325 705.197 283.537 703.947 282.907 703.667C281.296 702.95 280.026 702.4 278.803 701.894C236.499 684.394 211.971 639.914 219.744 594.798L254.474 393.233L313.722 386.201Z" fill="#3B3B3B"/>
<path d="M378.366 792.231C361.504 804.154 346.64 809.986 333.773 809.726C320.729 809.462 300.441 802.75 272.91 789.59L274.716 851.074L322.238 878.308C334.806 885.511 350.716 882.793 360.18 871.827L377.666 851.566L378.366 792.231ZM273.229 851.537L270.163 747.162C269.277 717.024 292.991 691.874 323.129 690.989C323.684 690.973 324.238 690.966 324.793 690.965C355.538 690.999 380.434 715.951 380.4 746.696C380.4 746.894 380.399 747.093 380.397 747.291L379.163 851.857C379.161 852.034 379.097 852.204 378.981 852.338L361.316 872.807C351.382 884.317 334.683 887.169 321.493 879.61L273.606 852.166C273.379 852.036 273.237 851.798 273.229 851.537ZM274.728 851.493L274.716 851.074L274.351 850.865L274.728 851.493Z" fill="#3B3B3B"/>
<path fill-rule="evenodd" clip-rule="evenodd" d="M200.919 301.226C170.252 299.226 149.919 317.559 139.919 356.226C134.364 377.707 139.919 383.493 139.919 393.726C139.919 407.226 147.922 443.337 107.419 446.726C79.0338 449.101 40.6704 424.306 35.4189 383.726C29.9189 341.226 43.1675 321.058 54.9189 293.226C85.3592 221.13 197.267 195.918 232.419 220.226C255.853 236.431 296.52 253.431 354.419 271.226L349.419 393.726L328.419 448.726C293.584 444.73 266.417 439.73 246.919 433.726C227.421 427.722 199.921 415.888 164.419 398.226L200.919 301.226Z" fill="white"/>
<path d="M153.437 403.431C153.265 403.363 153.092 403.294 152.919 403.225L152.938 403.188C152.658 402.963 152.569 402.559 152.757 402.231C155.555 397.329 158.135 392.731 160.498 388.437L173.419 363.225C176.026 356.64 178.356 350.781 180.41 345.646C184.49 334.129 188.874 323.682 193.325 314.419C195.146 310.629 196.849 307.311 198.387 304.488C198.905 303.538 199.368 302.71 199.772 302.006C199.821 301.912 199.87 301.819 199.919 301.725C199.917 301.737 199.915 301.749 199.913 301.76C200.114 301.412 200.257 301.17 200.336 301.039C200.55 300.684 201.011 300.57 201.366 300.784C201.72 300.999 201.834 301.46 201.62 301.814C201.535 301.956 201.366 302.241 201.122 302.667C200.712 303.379 200.238 304.226 199.704 305.205C199.51 305.563 199.313 305.928 199.113 306.301C191.767 349.547 194.536 380.189 207.419 398.225C218.954 414.375 230.49 425.41 242.025 431.33C243.69 431.706 245.348 432.07 247.001 432.421C276.269 438.641 301.254 441.422 321.95 440.769C322.364 440.756 322.711 441.081 322.725 441.495C322.737 441.909 322.412 442.256 321.998 442.27C301.168 442.926 276.067 440.131 246.69 433.889C217.413 427.668 186.329 417.515 153.437 403.431Z" fill="#3B3B3B"/>
<path fill-rule="evenodd" clip-rule="evenodd" d="M349.452 467.093C411.113 468.845 443.968 446.746 455.017 399.797C471.59 329.374 388.503 264.859 348.083 251.726L311.419 388.226L314.919 439.726C320.245 451.619 325.078 459.286 329.419 462.726C332.752 465.368 339.43 466.823 349.452 467.093Z" fill="white"/>
<path d="M349.44 465.976C410.116 467.699 443.171 446.351 454.254 399.257C461.724 367.515 449.317 334.601 422.33 304.41C400.497 279.984 370.155 259.329 347.819 252.071C347.425 251.943 347.209 251.52 347.337 251.126C347.465 250.732 347.888 250.517 348.282 250.645C370.881 257.988 401.445 278.793 423.449 303.41C450.732 333.933 463.313 367.31 455.714 399.601C444.455 447.443 410.739 469.217 349.398 467.475C348.984 467.463 348.657 467.118 348.669 466.704C348.681 466.29 349.026 465.964 349.44 465.976Z" fill="#3B3B3B"/>
<path d="M770.091 213.54L771.562 285.135C808.096 284.608 826.578 294.49 826.578 314.897C826.578 335.447 798.784 349.248 743.427 356.607C743.016 356.662 742.639 356.373 742.584 355.963C742.53 355.552 742.818 355.175 743.229 355.12C797.872 347.856 825.078 334.347 825.078 314.897C825.078 295.442 807.145 285.987 770.841 286.647C770.428 286.654 770.086 286.326 770.078 285.912L768.578 212.912C768.57 212.537 768.841 212.213 769.212 212.156C784.642 209.753 805.719 210.967 832.461 215.787C855.721 219.979 877.666 230.02 893.601 245.515C913.215 264.589 922.862 290.82 920.075 324.309C917.288 357.8 900.239 386.409 873.477 407.337C850.548 425.267 821.996 435.921 799.328 435.921C798.914 435.921 798.578 435.586 798.578 435.171C798.578 434.757 798.914 434.421 799.328 434.421C821.647 434.421 849.878 423.887 872.553 406.155C899.002 385.472 915.83 357.234 918.58 324.185C921.33 291.139 911.845 265.349 892.555 246.591C876.854 231.323 855.18 221.406 832.195 217.263C805.978 212.537 785.271 211.3 770.091 213.54ZM788.919 435.226L847.419 516.226L827.419 526.226C820.752 516.559 811.919 504.892 800.919 491.226C789.919 477.559 785.919 458.892 788.919 435.226Z" fill="#3B3B3B"/>
<path d="M200.834 300.668C169.77 298.642 149.142 317.241 139.059 356.228C135.848 368.645 135.92 374.883 137.967 385.344C138.269 386.884 138.417 387.677 138.564 388.584C138.878 390.525 139.035 392.195 139.035 393.916C139.035 394.527 139.051 395.204 139.083 395.977C139.133 397.221 139.473 402.798 139.542 404.258C139.713 407.934 139.731 411.042 139.55 414.069C138.416 433.016 129.412 444.312 107.223 446.169C93.1077 447.35 76.6139 441.706 63.0772 430.937C48.3484 419.22 38.4724 402.699 36.0292 383.82C34.0404 368.451 34.4086 355.369 36.8705 343.092C38.8679 333.131 41.9459 324.415 47.4508 311.892C47.0294 312.851 53.6494 298.035 55.4763 293.708C69.3893 260.756 101.783 235.126 142.01 221.475C178.073 209.237 214.562 209.072 231.859 221.033C232.2 221.269 232.667 221.183 232.902 220.843C233.138 220.502 233.053 220.035 232.712 219.799C214.944 207.512 177.995 207.679 141.528 220.055C100.927 233.833 68.1937 259.731 54.0945 293.124C52.2747 297.434 45.6619 312.234 46.0776 311.288C40.5329 323.902 37.4226 332.71 35.3998 342.797C32.905 355.238 32.5322 368.485 34.5416 384.012C37.0367 403.292 47.1194 420.159 62.1434 432.111C75.9659 443.107 92.8313 448.878 107.348 447.663C119.79 446.622 128.455 442.482 133.903 435.646C138.371 430.041 140.524 422.907 141.047 414.159C141.232 411.071 141.214 407.913 141.04 404.188C140.971 402.711 140.631 397.141 140.581 395.917C140.551 395.162 140.535 394.505 140.535 393.916C140.535 392.107 140.371 390.359 140.044 388.344C139.894 387.416 139.744 386.611 139.44 385.056C137.432 374.799 137.363 368.78 140.512 356.604C150.429 318.258 170.467 300.19 200.737 302.164C201.15 302.191 201.507 301.878 201.534 301.465C201.561 301.052 201.248 300.695 200.834 300.668Z" fill="#3B3B3B"/>
<path fill-rule="evenodd" clip-rule="evenodd" d="M691.48 355.699L589.469 371.386C587.831 371.638 586.708 373.17 586.96 374.808C587.16 376.109 588.185 377.128 589.487 377.32L635.626 384.121L619.831 418.898C619.145 420.407 619.813 422.185 621.321 422.871C622.449 423.383 623.776 423.149 624.661 422.283L662.208 385.517L671.868 431.852C672.206 433.474 673.795 434.515 675.417 434.176C676.599 433.93 677.518 432.999 677.749 431.814L686.528 386.794L727.192 420.213C728.472 421.265 730.362 421.08 731.414 419.8C732.101 418.964 732.285 417.823 731.895 416.814L718.526 382.224L761.854 395.41C763.439 395.892 765.115 394.998 765.597 393.413C765.911 392.383 765.648 391.263 764.908 390.48L739.359 363.432L783.169 351.707C784.769 351.279 785.719 349.634 785.291 348.034C784.955 346.778 783.849 345.881 782.55 345.813L740.396 343.6L761.113 323.402C762.3 322.246 762.324 320.346 761.167 319.16C760.219 318.188 758.736 317.973 757.552 318.638L691.48 355.699Z" fill="#3B3B3B"/>
<path fill-rule="evenodd" clip-rule="evenodd" d="M285.789 275.034C282.479 278.104 278.519 280.179 273.868 281.811C265.465 284.759 254.926 286.057 246.374 281.699C240.372 278.641 233.463 272.256 230.315 266.829C225.555 258.626 225.944 249.854 229.54 240.836C224.702 241.004 219.837 240.238 215.483 238.02C209.441 234.941 202.484 228.518 199.31 223.062C193.697 213.409 195.178 202.979 200.625 192.29C204.346 184.986 210.405 178.382 217.376 175.343C226.372 171.422 236.927 172.628 246.355 177.431C254.88 181.775 260.967 189.319 263.584 197.792C264.84 201.859 265.294 206.137 264.914 210.422C268.792 213.04 274.097 219.848 277.108 221.382C281.833 223.789 297.897 227.689 302.613 231.757C303.515 231.226 304.437 230.752 305.376 230.343C314.372 226.422 324.927 227.628 334.355 232.431C342.88 236.775 348.967 244.319 351.584 252.792C354.103 260.947 353.394 269.956 349.213 278.161C345.075 286.283 339.123 290.368 331.148 293.156C322.695 296.112 312.092 297.406 303.483 293.02C297.441 289.941 290.484 283.518 287.31 278.062C286.728 277.061 286.222 276.051 285.789 275.034Z" fill="#3B3B3B"/>
<path d="M326.464 146.124L345.344 157.809C354.928 163.74 359.585 175.124 356.779 185.761C352.588 201.654 348.477 213.598 344.445 221.594C340.411 229.595 335.474 236.635 329.634 242.712C325.983 246.512 320.496 248.009 315.28 246.629L312.344 245.853C309.058 244.983 305.956 243.495 303.211 241.471L288.76 230.817L282.804 236.72L258.379 214.959L283.289 158.749C289.927 143.771 307.702 137.287 322.992 144.266C324.186 144.811 325.346 145.432 326.464 146.124Z" fill="white"/>
<path fill-rule="evenodd" clip-rule="evenodd" d="M309.568 207.043C311.395 198.521 315.271 193.298 321.196 191.374C330.083 188.487 335.076 187.827 339.464 188.936C343.727 190.014 354.459 191.894 354.459 191.894C354.459 191.894 350.106 205.808 345.242 219.217C340.379 232.625 326.911 243.426 326.911 243.426C326.911 243.426 302.88 229.356 309.568 207.043Z" fill="#FF83F4"/>
<path d="M345.428 220.701C350.76 222.761 352.638 225.71 351.064 229.55C349.884 232.428 346.544 233.752 343.605 232.507C343.261 232.362 342.933 232.184 342.622 231.977L340.056 230.265C337.046 234.941 333.667 239.227 329.919 243.122C326.082 247.109 320.316 248.681 314.834 247.233L312.016 246.488C308.555 245.574 305.295 243.995 302.422 241.841L288.932 231.727L284.433 237.096C284.171 237.408 283.7 237.446 283.376 237.182L257.954 216.433C257.689 216.217 257.598 215.856 257.731 215.551L282.446 158.76C289.14 143.379 307.312 136.613 323.034 143.649C324.329 144.228 325.585 144.894 326.793 145.64L345.467 157.18C355.339 163.281 360.136 174.99 357.246 185.932C353.24 201.102 349.303 212.688 345.428 220.701ZM288.212 230.216C288.465 229.914 288.919 229.868 289.243 230.111L303.313 240.659C306.024 242.692 309.102 244.183 312.368 245.045L315.187 245.79C320.138 247.098 325.347 245.678 328.813 242.077C334.603 236.06 339.5 229.089 343.503 221.161C347.508 213.23 351.605 201.345 355.786 185.518C358.507 175.214 353.989 164.187 344.692 158.442L326.019 146.902C324.869 146.192 323.674 145.559 322.442 145.007C307.488 138.315 290.202 144.75 283.835 159.382L259.344 215.656L283.732 235.562L288.212 230.216Z" fill="#3B3B3B"/>
<path fill-rule="evenodd" clip-rule="evenodd" d="M282.349 148.82C283.292 145.489 281.835 145.13 277.976 147.743C274.609 150.024 268.104 158.959 258.462 174.547C255.272 179.705 253.665 185.685 253.839 191.747C253.933 195.018 254.228 197.589 254.723 199.459C255.641 202.93 257.808 206.097 261.223 208.959L283.723 188.459L291.898 183.558C286.434 192.353 283.975 197.138 284.523 197.914C285.932 199.909 289.458 201.623 295.102 203.055C299.389 191.165 302.911 183.613 305.668 180.397C308.425 177.182 303.559 168.293 291.07 153.73L282.349 148.82Z" fill="white"/>
<path d="M282.339 145.591C281.324 145.341 279.859 145.962 277.752 147.389C274.257 149.756 267.732 158.719 258.021 174.419C254.753 179.702 253.107 185.826 253.286 192.035C253.382 195.359 253.682 197.983 254.194 199.918C255.155 203.548 257.41 206.844 260.937 209.801C261.225 210.042 261.647 210.033 261.924 209.78L284.369 189.331L289.844 186.048C285.127 193.784 283.336 197.521 284.107 198.614C285.648 200.797 289.309 202.576 295.114 204.049C295.488 204.144 295.874 203.939 296.004 203.576C300.261 191.772 303.756 184.275 306.434 181.152C309.586 177.476 304.639 168.438 291.836 153.508C291.779 153.442 291.711 153.386 291.635 153.343L283.413 148.715C283.794 147.007 283.526 145.883 282.339 145.591ZM305.295 180.176C302.51 183.424 299.039 190.819 294.826 202.424C289.762 201.078 286.598 199.503 285.357 197.783L285.363 197.792C285.393 197.835 285.395 197.832 285.4 197.787C285.419 197.627 285.479 197.391 285.582 197.091C285.807 196.436 286.22 195.52 286.82 194.353C288.038 191.981 290.009 188.602 292.732 184.22C293.147 183.552 292.384 182.777 291.709 183.181L283.533 188.083L283.414 188.171L261.404 208.225C258.389 205.572 256.476 202.677 255.644 199.534C255.166 197.728 254.878 195.211 254.785 191.992C254.615 186.077 256.184 180.241 259.297 175.208C268.87 159.732 275.354 150.825 278.593 148.631C280.345 147.444 281.538 146.938 281.98 147.047C282.024 147.058 282.035 147.073 282.06 147.249C282.107 147.587 282.033 148.14 281.823 148.882C281.729 149.215 281.875 149.57 282.177 149.74L290.784 154.585C302.894 168.723 307.651 177.429 305.295 180.176Z" fill="#3B3B3B"/>
<path fill-rule="evenodd" clip-rule="evenodd" d="M329.299 231.641L335.308 234.928L331.619 239.63C331.295 240.042 330.729 240.176 330.255 239.952C329.73 239.703 329.303 239.287 329.041 238.768L326.709 234.148C326.239 233.217 326.612 232.082 327.543 231.612C328.097 231.332 328.754 231.343 329.299 231.641ZM343.853 208.491C339.888 206.291 336.975 205.809 335.111 207.045C332.317 208.9 329.278 208.769 328.973 206.288C328.669 203.806 331.838 200.898 337.602 202.709C341.444 203.917 343.528 205.844 343.853 208.491Z" fill="white"/>
<path d="M335.9 233.809C336.306 234.032 336.416 234.566 336.13 234.93L332.441 239.633C331.902 240.321 330.958 240.544 330.167 240.17C329.491 239.85 328.941 239.314 328.604 238.646L326.271 234.026C325.615 232.726 326.137 231.139 327.437 230.483C328.212 230.092 329.13 230.107 329.891 230.523L335.9 233.809ZM329.172 231.839C328.843 231.66 328.447 231.653 328.113 231.822C327.552 232.105 327.327 232.789 327.61 233.35L329.943 237.97C330.13 238.34 330.434 238.637 330.809 238.814C330.966 238.888 331.154 238.844 331.261 238.707L334.404 234.701L329.172 231.839ZM344.829 207.939C344.904 208.548 344.257 208.984 343.721 208.686C339.976 206.608 337.326 206.17 335.758 207.21C332.468 209.393 328.845 209.043 328.461 205.919C328.012 202.262 332.509 199.79 338.059 201.534C342.155 202.821 344.463 204.956 344.829 207.939ZM337.609 202.965C332.98 201.51 329.656 203.338 329.95 205.736C330.155 207.41 332.415 207.628 334.929 205.96C336.806 204.715 339.452 204.949 342.86 206.557C342.062 205.019 340.334 203.821 337.609 202.965Z" fill="#3B3B3B"/>
<path fill-rule="evenodd" clip-rule="evenodd" d="M286.958 185.828C287.222 177.483 283.39 173.298 275.461 173.272C263.568 173.233 254.413 199.761 276.961 206.584" fill="white"/>
<path d="M279.482 182.243C279.426 182.629 279.081 182.911 278.686 182.883C274.004 182.545 271.012 184.146 269.525 187.723C269.366 188.105 268.927 188.287 268.545 188.128C268.162 187.969 267.981 187.53 268.14 187.147C269.89 182.937 273.502 181.005 278.794 181.387C278.836 181.39 278.876 181.396 278.916 181.406C276.704 178.565 273.112 178.565 266.07 182.447C265.832 182.579 265.553 182.567 265.333 182.44C264.638 183.941 264.118 185.584 263.827 187.306C262.425 195.586 266.527 202.875 276.21 206.238C276.602 206.374 276.809 206.802 276.673 207.193C276.537 207.584 276.109 207.791 275.718 207.655C265.329 204.047 260.826 196.044 262.348 187.056C263.7 179.068 269.624 172.58 275.844 172.852C284.197 173.217 288.17 177.925 287.54 186.666C287.529 186.822 287.47 186.964 287.379 187.078C287.433 187.298 287.388 187.54 287.234 187.73C285.714 189.61 283.839 189.581 282.075 187.712C281.797 187.417 281.562 187.033 281.327 186.527C281.107 186.051 280.357 184.06 280.193 183.672C279.973 183.152 279.738 182.675 279.482 182.243ZM266.3 180.622C274.992 176.082 279.22 177.519 281.575 183.088C281.759 183.524 282.496 185.482 282.688 185.896C282.861 186.269 283.018 186.526 283.166 186.682C284.329 187.915 285.141 187.929 286.064 186.792C286.045 186.717 286.038 186.639 286.044 186.558C286.615 178.643 283.268 174.678 275.779 174.35C272.218 174.195 268.652 176.743 266.3 180.622Z" fill="#3B3B3B"/>
<path fill-rule="evenodd" clip-rule="evenodd" d="M274.366 152.12C287.714 166.185 300.627 176.798 313.103 183.959C325.578 191.12 339.711 193.349 355.5 190.647C376.596 168.577 389.273 156.539 393.529 154.531C399.914 151.518 409.372 154.865 411.202 162.772C412.422 168.043 405.719 185.572 391.093 215.361C416.573 199.366 430.15 189.575 431.822 185.989C434.331 180.61 466.072 151.581 422.283 120.079C393.091 99.0769 366.269 104.539 341.82 136.464C344.463 107.133 337.561 87.625 321.113 77.94C296.441 63.4126 277.838 71.363 264.331 100.33C255.326 119.641 250.225 131.368 249.028 135.512C269.501 116.847 281.853 108.5 286.082 110.473C290.311 112.445 286.406 126.327 274.366 152.12Z" fill="white"/>
<path d="M397.633 210.475C418.476 197.173 429.769 188.836 431.195 185.778C431.441 185.25 431.883 184.588 432.708 183.468C432.62 183.587 434.56 180.983 435.199 180.098C440.036 173.396 443.087 167.343 444.19 160.471C446.35 147.012 439.895 133.74 421.898 120.793C393.129 100.096 366.826 105.38 342.668 136.766C342.666 136.798 342.662 136.83 342.656 136.862L340.156 150.362C340.081 150.77 339.69 151.039 339.282 150.963C338.875 150.888 338.606 150.496 338.681 150.089L341.148 136.772C341.126 136.689 341.117 136.599 341.126 136.502C343.746 107.432 336.944 88.2065 320.786 78.6921C296.755 64.5424 278.528 71.8782 265.064 100.752C258.598 114.618 254.145 124.575 251.717 130.592C252.104 130.784 252.476 130.996 252.832 131.227C271.103 114.953 282.1 107.869 286.452 109.899C291.328 112.172 287.489 125.936 275.315 152.079C288.491 165.911 301.231 176.355 313.529 183.414C325.785 190.449 339.659 192.664 355.182 190.055C376.281 167.99 388.89 156.021 393.262 153.958C400.45 150.567 410.133 154.703 411.986 162.708C413.149 167.734 407.727 182.653 395.67 207.857C395.74 207.926 395.808 207.994 395.876 208.064C396.572 208.781 397.162 209.591 397.633 210.475ZM394.484 206.857C406.208 182.301 411.572 167.569 410.525 163.047C408.896 156.008 400.255 152.318 393.902 155.315C389.774 157.263 377.087 169.311 356.095 191.271C355.984 191.387 355.838 191.465 355.679 191.492C339.723 194.223 325.414 191.965 312.782 184.715C300.238 177.515 287.271 166.856 273.875 152.742C273.663 152.518 273.609 152.188 273.739 151.908C285.475 126.767 289.372 112.915 285.818 111.258C282.328 109.631 271.536 116.619 254.058 132.146C255.548 133.432 256.657 135.075 257.279 136.866C258.186 139.475 258.058 142.395 256.799 145.096C255.552 147.769 253.674 149.156 251.127 150.148C248.427 151.199 245.014 151.737 242.181 150.416C240.192 149.489 237.87 147.491 236.783 145.762C234.859 142.705 235.22 139.316 236.86 135.798C237.981 133.395 239.866 131.191 242.085 130.13C244.602 128.926 247.553 128.989 250.337 130.004C252.79 123.928 257.242 113.976 263.704 100.119C277.521 70.4889 296.701 62.7696 321.547 77.3996C337.808 86.9746 344.88 105.927 342.824 134.133C367.101 103.66 393.853 98.7688 422.774 119.576C441.207 132.836 447.927 146.653 445.671 160.709C444.523 167.858 441.377 174.101 436.416 180.975C435.769 181.872 433.822 184.484 433.916 184.357C433.153 185.394 432.744 186.007 432.555 186.412C430.947 189.861 419.619 198.238 398.249 211.862C398.686 213.064 398.919 214.366 398.919 215.726C398.919 218.675 397.803 220.726 395.914 222.702C393.911 224.795 391.045 226.726 387.919 226.726C385.725 226.726 382.776 225.896 381.06 224.789C378.024 222.831 376.919 219.607 376.919 215.726C376.919 213.074 377.696 210.28 379.259 208.38C381.276 205.928 384.496 204.726 387.919 204.726C390.354 204.726 392.644 205.518 394.484 206.857Z" fill="#3B3B3B"/>
<path d="M668.315 265.863L629.085 274.485C615.6 277.449 607.071 290.783 610.034 304.269C610.134 304.72 610.245 305.169 610.37 305.614C615.313 323.352 619.107 336.291 621.752 344.431C627.383 361.762 645.998 371.246 663.329 365.615C663.668 365.505 664.005 365.389 664.34 365.268L676.919 360.726L675.419 368.226L717.919 348.726L716.771 331.127C716.538 327.541 715.85 323.999 714.724 320.585L703.246 285.771C698.429 271.16 683.341 262.561 668.315 265.863Z" fill="white"/>
<path fill-rule="evenodd" clip-rule="evenodd" d="M623.419 315.726L618.328 349.949L639.828 362.51L651.328 339.708L623.419 315.726ZM665.919 301.226L660.328 333.598L684.269 353.01L693.328 319.363L665.919 301.226Z" fill="#56FFB2"/>
<path d="M674.132 367.602C674.009 368.203 674.621 368.689 675.179 368.434L717.694 348.983C717.977 348.854 718.15 348.564 718.131 348.254L717.039 330.906C716.807 327.222 716.105 323.584 714.95 320.078L703.697 285.953C698.755 270.968 683.273 262.155 667.865 265.556L628.641 274.214C614.754 277.279 605.981 291.022 609.047 304.909C609.147 305.364 609.26 305.815 609.384 306.264C614.249 323.739 617.987 336.497 620.601 344.54C626.308 362.107 645.176 371.721 662.743 366.013C663.083 365.903 663.421 365.787 663.758 365.665L675.384 361.471L674.132 367.602ZM677.121 360.462C677.238 359.888 676.682 359.408 676.132 359.606L663.249 364.254C662.927 364.37 662.604 364.481 662.279 364.586C645.5 370.038 627.479 360.856 622.027 344.077C619.422 336.058 615.689 323.318 610.829 305.862C610.712 305.439 610.606 305.014 610.511 304.586C607.624 291.508 615.886 278.566 628.964 275.679L668.189 267.021C682.845 263.785 697.572 272.169 702.272 286.423L713.525 320.548C714.64 323.932 715.318 327.444 715.542 331L716.601 347.833L675.897 366.456L677.121 360.462Z" fill="#3B3B3B"/>
<path fill-rule="evenodd" clip-rule="evenodd" d="M675.193 335.183C675.482 335.523 675.394 335.878 674.929 336.247C674.496 336.59 673.763 336.663 673.656 336.692C672.635 336.965 671.582 336.375 671.283 335.361H671.283C670.689 333.342 670.348 332.171 670.261 331.846C670.184 331.559 669.898 330.412 669.402 328.405C669.193 327.559 669.7 326.701 670.542 326.476C671.748 326.153 672.992 326.852 673.342 328.051C673.686 329.229 673.866 329.846 673.881 329.901C673.904 329.988 674.341 331.749 675.193 335.183ZM639.595 346.117C639.884 346.457 639.796 346.812 639.331 347.181C638.898 347.524 638.165 347.597 638.058 347.626C637.037 347.899 635.984 347.309 635.686 346.295C635.091 344.276 634.75 343.105 634.663 342.78C634.586 342.493 634.3 341.346 633.804 339.339C633.595 338.493 634.102 337.635 634.944 337.41C636.151 337.087 637.395 337.786 637.745 338.985C638.089 340.163 638.268 340.78 638.283 340.835C638.306 340.922 638.744 342.683 639.595 346.117ZM648.83 317.516C648.617 316.877 648.926 316.181 649.543 315.91C650.203 315.621 650.972 315.921 651.261 316.58L660.344 337.291C660.391 337.4 660.435 337.509 660.475 337.62C661.511 340.468 660.042 343.616 657.194 344.651L655.693 345.197C655.385 345.309 655.07 345.399 654.749 345.468C650.917 346.286 647.146 343.842 646.328 340.01C645.868 337.858 648.535 335.858 654.328 334.01L648.83 317.516Z" fill="#3B3B3B"/>
<path fill-rule="evenodd" clip-rule="evenodd" d="M332.291 221.403C334.472 218.618 335.59 217.189 335.644 217.117C335.679 217.071 336.055 216.55 336.771 215.554L336.771 215.554C337.5 214.54 337.286 213.129 336.288 212.377C335.592 211.853 334.604 211.982 334.066 212.667C332.789 214.293 332.062 215.225 331.883 215.462C331.681 215.731 330.968 216.72 329.743 218.432L329.743 218.432C329.128 219.291 329.311 220.485 330.155 221.121C330.244 221.188 330.752 221.72 331.29 221.85C331.866 221.989 332.2 221.84 332.291 221.403Z" fill="#3B3B3B"/>
<path fill-rule="evenodd" clip-rule="evenodd" d="M633.534 298.248C629.596 298.985 625.875 299.644 622.372 300.226C615.266 301.404 612.075 301.761 612.797 301.295L610.372 303.726C609.768 311.207 609.768 317.874 610.372 323.726C610.975 329.577 614.475 335.744 620.872 342.226C617.366 328.591 616.866 319.091 619.372 313.726C621.172 309.872 626.322 305.691 634.822 301.183C634.838 301.197 634.855 301.211 634.872 301.226L644.265 296.641C644.954 296.337 645.656 296.032 646.372 295.726C646.24 295.753 646.108 295.78 645.976 295.807L699.419 269.726C705.419 272.726 709.642 278.31 712.087 286.478C714.533 294.646 714.794 298.895 712.872 299.226C698.666 296.259 688.682 294.592 682.919 294.226C665.997 293.15 654.093 295.559 646.372 295.726C638.743 295.89 634.463 296.73 633.534 298.248Z" fill="white"/>
<path d="M617.07 336.694C612.931 327.982 612.784 318.863 616.633 309.389C616.789 309.005 617.226 308.821 617.61 308.977C617.994 309.132 618.178 309.57 618.022 309.954C614.058 319.712 614.507 329.007 619.372 337.903C616.93 326.73 616.824 318.729 619.101 313.854C620.988 309.814 626.246 305.545 634.879 300.966C634.978 300.913 635.086 300.885 635.193 300.879L642.98 297.08C638.023 297.402 635.171 298.124 634.582 299.086C634.471 299.266 634.289 299.392 634.08 299.431C630.137 300.169 626.412 300.829 622.903 301.411C619.636 301.953 617.192 302.322 615.567 302.519C614.739 302.618 614.119 302.674 613.696 302.686C613.555 302.69 613.433 302.69 613.325 302.683L611.506 304.506C610.928 311.833 610.935 318.363 611.526 324.094C611.941 328.113 613.785 332.315 617.07 336.694ZM711.537 286.363C711.522 286.357 711.507 286.35 711.492 286.342C708.209 284.701 704.594 283.386 700.646 282.399C696.708 281.415 692.269 280.921 687.328 280.921C686.913 280.921 686.578 280.586 686.578 280.171C686.578 279.757 686.913 279.421 687.328 279.421C692.386 279.421 696.947 279.928 701.01 280.944C704.539 281.826 707.816 282.966 710.839 284.364C708.429 278.028 704.756 273.588 699.82 271.01L650.167 295.241C650.657 295.204 651.179 295.161 651.738 295.112C652.947 295.005 657.626 294.554 657.756 294.541C667.405 293.635 674.648 293.368 683.375 293.923C689.16 294.291 699.114 295.95 713.261 298.901C713.904 298.631 714.022 296.952 713.471 293.908C713.357 293.93 713.235 293.926 713.116 293.891C707.486 292.235 701.187 290.909 694.222 289.914C687.269 288.921 680.818 288.59 674.869 288.92C674.456 288.943 674.102 288.627 674.079 288.213C674.056 287.799 674.372 287.446 674.786 287.423C680.838 287.086 687.387 287.422 694.434 288.429C701.31 289.411 707.55 290.714 713.154 292.339C712.825 290.853 712.37 289.118 711.778 287.139C711.699 286.877 711.619 286.619 711.537 286.363ZM699.499 269.497C699.709 269.395 699.954 269.396 700.163 269.501C706.362 272.6 710.713 278.354 713.215 286.709C715.83 295.443 716.107 299.947 713.407 300.411C713.314 300.427 713.219 300.425 713.127 300.406C698.955 297.446 688.998 295.783 683.28 295.42C674.645 294.871 667.474 295.135 657.897 296.035C657.772 296.046 653.086 296.499 651.869 296.606C649.856 296.783 648.311 296.884 646.943 296.918C646.275 297.204 645.622 297.489 645.003 297.761L635.609 302.345C635.524 302.387 635.433 302.411 635.342 302.419C627.118 306.808 622.156 310.858 620.46 314.489C618.049 319.651 618.541 329.006 622.007 342.485C622.198 343.226 621.285 343.743 620.747 343.198C614.241 336.606 610.658 330.293 610.034 324.248C609.426 318.348 609.426 311.636 610.033 304.111C610.047 303.934 610.124 303.767 610.25 303.642L612.486 301.401C612.562 301.282 612.668 301.195 612.799 301.111C613.135 300.894 613.483 300.974 613.71 301.185C614.079 301.171 614.641 301.119 615.387 301.029C616.986 300.836 619.411 300.47 622.658 299.931C626.07 299.365 629.689 298.725 633.515 298.011C634.895 296.392 639.098 295.612 646.358 295.431L699.499 269.497ZM645.794 295.779C645.484 296.152 645.643 296.744 646.064 296.939C646.227 296.935 646.391 296.931 646.557 296.927C645.878 296.943 645.583 296.17 645.942 295.715C645.893 295.737 645.843 295.758 645.794 295.779Z" fill="#3B3B3B"/>
<path d="M722.621 566.289C694.092 574.468 662.097 578.625 626.637 578.757L636.075 455.454C636.107 455.041 635.798 454.681 635.385 454.649C634.972 454.617 634.611 454.926 634.58 455.339L625.08 579.453C625.046 579.889 625.392 580.26 625.829 580.26C661.746 580.188 694.148 576.012 723.034 567.731C751.899 559.456 793.432 542.442 847.649 516.687C848.072 516.487 848.21 515.953 847.937 515.573L790.787 435.76H800.828C801.242 435.76 801.578 435.424 801.578 435.01C801.578 434.596 801.242 434.26 800.828 434.26H789.328C788.717 434.26 788.362 434.95 788.718 435.446L846.196 515.717C792.443 541.224 751.246 558.082 722.621 566.289Z" fill="#3B3B3B"/>
<path fill-rule="evenodd" clip-rule="evenodd" d="M702.919 309.177C703.483 300.847 707.711 297.061 715.603 297.821C727.441 298.96 733.924 326.264 710.811 330.821" fill="white"/>
<path d="M715.066 303.97C718.914 307.073 720.197 310.762 718.815 314.908C718.684 315.301 718.259 315.514 717.866 315.383C717.473 315.252 717.261 314.827 717.392 314.434C718.617 310.759 717.408 307.588 713.653 304.771C713.488 304.648 713.389 304.469 713.361 304.28C712.036 304.787 710.966 305.902 709.997 307.519C709.781 307.88 708.761 309.747 708.477 310.188C708.174 310.657 707.888 311.004 707.572 311.257C705.564 312.863 703.704 312.63 702.46 310.557C702.362 310.394 702.333 310.208 702.366 310.034C702.232 309.888 702.156 309.69 702.171 309.477C702.763 300.734 707.353 296.624 715.675 297.425C721.872 298.021 726.837 305.27 727.064 313.369C727.319 322.482 721.746 329.78 710.956 331.907C710.55 331.987 710.155 331.723 710.075 331.316C709.995 330.91 710.26 330.516 710.666 330.435C720.723 328.453 725.799 321.805 725.564 313.411C725.515 311.673 725.232 309.982 724.757 308.405C724.553 308.448 724.333 308.406 724.153 308.271C720.174 305.287 717.295 303.957 715.066 303.97ZM703.656 309.665C703.69 309.701 703.72 309.741 703.746 309.785C704.503 311.046 705.309 311.146 706.635 310.086C706.803 309.951 706.994 309.719 707.217 309.373C707.465 308.99 708.467 307.154 708.71 306.748C711.79 301.606 716.129 300.741 723.975 306.286C722.173 302.201 719.033 299.255 715.531 298.918C708.069 298.2 704.203 301.661 703.667 309.578C703.665 309.607 703.662 309.636 703.656 309.665Z" fill="#3B3B3B"/>
<path fill-rule="evenodd" clip-rule="evenodd" d="M146.379 446.338L206.3 478.569C207.908 479.433 209.331 480.604 210.489 482.015C214.136 486.457 215.217 490.633 213.734 494.544C211.317 500.918 204.19 504.125 197.817 501.707C197.696 501.662 197.576 501.614 197.456 501.564C141.834 478.444 106.199 457.683 90.5505 439.28C85.5815 433.436 81.3395 428.389 77.8244 424.138L77.8244 424.138C69.906 414.561 71.2502 400.379 80.8267 392.46C83.5831 390.181 86.843 388.592 90.3363 387.824C102.449 385.163 114.232 388.06 125.684 396.517L157.184 414.758L173.919 421.726L197.419 407.726C200.972 405.998 203.638 405.164 205.419 405.226C207.199 405.287 209.366 406.287 211.919 408.226C213.417 410.42 214.25 412.087 214.419 413.226C214.805 415.834 213.521 418.81 213.419 419.726C213.25 421.241 212.25 421.908 210.419 421.726C212.724 422.121 214.39 422.621 215.419 423.226C216.447 423.831 217.614 424.998 218.919 426.726L218.919 438.726L180.419 467.226" fill="white"/>
<path d="M182.223 465.053L146.353 445.759C145.988 445.563 145.533 445.699 145.337 446.064C145.141 446.429 145.278 446.884 145.642 447.08L205.564 479.31C207.085 480.129 208.432 481.237 209.528 482.572C213.018 486.823 214.029 490.727 212.651 494.359C210.381 500.345 203.688 503.358 197.702 501.087C197.588 501.044 197.475 500.999 197.363 500.953C141.844 477.875 106.29 457.161 90.7407 438.875C85.7737 433.034 81.5338 427.989 78.0212 423.741C70.3667 414.483 71.6661 400.774 80.9234 393.119C83.5879 390.916 86.7392 389.38 90.116 388.638C102.009 386.025 113.573 388.869 124.927 397.247L155.89 415.178C155.957 415.39 156.118 415.57 156.343 415.654L174.013 422.242C174.232 422.324 174.476 422.299 174.674 422.175L197.288 407.997C198.416 407.289 199.658 406.784 200.959 406.504C205.792 405.462 209.282 406.258 211.541 408.842C214.702 412.459 214.694 417.772 211.74 421.365C209.719 421.078 207.429 421.211 204.879 421.76C203.207 422.119 201.61 422.767 200.16 423.674L174.575 439.674L154.687 432.281C154.298 432.137 153.867 432.334 153.722 432.723C153.578 433.111 153.776 433.543 154.164 433.687L174.398 441.209C174.616 441.29 174.86 441.265 175.057 441.142L200.955 424.946C202.258 424.131 203.693 423.549 205.195 423.226C210.765 422.028 214.803 422.946 217.418 425.929C221.478 430.563 221.014 437.611 216.38 441.671C216.041 441.969 215.684 442.245 215.311 442.499L182.23 465.048C182.228 465.05 182.225 465.051 182.223 465.053ZM183.712 465.853L216.156 443.739C216.579 443.45 216.984 443.137 217.369 442.799C222.625 438.193 223.152 430.197 218.546 424.941C217.153 423.352 215.424 422.274 213.37 421.703C216.304 417.579 216.145 411.831 212.67 407.855C210.011 404.813 205.966 403.891 200.643 405.038C199.172 405.355 197.767 405.926 196.491 406.726L174.191 420.708L157.453 414.467C157.39 414.356 157.297 414.259 157.178 414.19L125.748 395.994C114.128 387.414 102.127 384.463 89.7941 387.173C86.1844 387.966 82.8158 389.608 79.9676 391.963C70.0718 400.146 68.6828 414.801 76.8652 424.697C80.3826 428.951 84.6268 434.001 89.5979 439.847C105.345 458.366 141.062 479.175 196.787 502.338C196.914 502.39 197.041 502.441 197.17 502.49C203.93 505.054 211.49 501.652 214.054 494.891C215.643 490.701 214.491 486.254 210.687 481.62C209.467 480.134 207.968 478.9 206.274 477.989L183.712 465.853Z" fill="#3B3B3B"/>
<path d="M366.341 428.243C370.677 415.379 371.919 406.962 371.669 388.236C371.664 387.822 371.995 387.481 372.409 387.476C372.823 387.47 373.163 387.802 373.169 388.216C373.421 407.107 372.154 415.693 367.763 428.722C359.779 452.413 355.111 465.027 353.548 467.042C353.426 467.2 353.245 467.302 353.047 467.327C341.392 468.759 331.191 464.865 322.511 455.683C313.837 446.507 310.185 434.7 311.555 420.321L310.964 384.009C310.958 383.595 311.288 383.253 311.702 383.247C312.116 383.24 312.457 383.57 312.464 383.985L313.051 420.38C311.718 434.427 315.236 445.804 323.601 454.653C331.878 463.408 341.5 467.137 352.532 465.877C354.115 463.359 358.782 450.673 366.341 428.243Z" fill="#3B3B3B"/>
<path d="M296.956 342.282C295.432 341.506 294.054 340.47 292.884 339.222C288.647 334.699 287.176 330.226 288.572 325.869C290.706 319.213 297.831 315.547 304.487 317.68C304.974 317.836 305.451 318.022 305.916 318.236L322.919 326.225C328.478 329.778 329.524 330.756 326.058 329.16C321.443 327.036 314.52 323.848 305.289 319.599C304.879 319.41 304.458 319.246 304.029 319.109C298.162 317.228 291.881 320.46 290.001 326.327C288.79 330.105 290.083 334.039 293.979 338.196C295.03 339.318 296.267 340.248 297.637 340.945L324.858 354.802C325.065 354.908 325.212 355.104 325.255 355.333L329.229 376.551C329.305 376.958 329.037 377.35 328.63 377.426C328.222 377.502 327.831 377.234 327.754 376.827L323.849 355.971L296.956 342.282Z" fill="#3B3B3B"/>
<path d="M318.466 323.745C317.118 322.692 315.963 321.413 315.053 319.965C311.756 314.716 311.166 310.044 313.368 306.034C316.732 299.908 324.426 297.668 330.552 301.032C331.001 301.279 331.434 301.552 331.85 301.851L356.646 319.323C363.799 324.364 368.371 332.299 369.144 341.016L373.217 386.984C373.254 387.397 372.949 387.761 372.537 387.798C372.124 387.834 371.76 387.529 371.723 387.117L367.649 341.148C366.916 332.871 362.575 325.336 355.782 320.549L330.98 303.073C330.608 302.805 330.226 302.564 329.83 302.347C324.43 299.382 317.648 301.356 314.683 306.756C312.773 310.234 313.292 314.342 316.323 319.167C317.14 320.468 318.178 321.617 319.389 322.563L343.466 341.359C343.637 341.492 343.741 341.693 343.753 341.908L345.958 381.142C345.981 381.555 345.665 381.909 345.251 381.933C344.838 381.956 344.483 381.639 344.46 381.226L342.275 342.332L318.466 323.745Z" fill="#3B3B3B"/>
<path fill-rule="evenodd" clip-rule="evenodd" d="M662.85 320.084C662.071 317.534 663.19 314.926 666.21 312.26C670.738 308.261 674.816 309.629 675.547 312.02C676.278 314.41 673.555 315.766 670.248 315.208C668.043 314.837 665.577 316.462 662.85 320.084ZM639.037 331.709C634.834 330.008 631.883 329.885 630.185 331.339C627.637 333.521 624.605 333.761 624 331.336C623.395 328.91 626.186 325.637 632.128 326.733C636.089 327.463 638.392 329.121 639.037 331.709Z" fill="white"/>
<path d="M663.224 320.622C662.855 321.112 662.087 320.977 661.908 320.391C661.029 317.516 662.269 314.627 665.488 311.785C669.848 307.935 674.962 308.365 676.039 311.888C676.959 314.897 673.792 316.691 669.898 316.035C668.043 315.723 665.8 317.201 663.224 320.622ZM670.147 314.556C673.122 315.057 675.098 313.939 674.605 312.326C673.898 310.016 670.118 309.698 666.481 312.91C664.339 314.8 663.248 316.597 663.145 318.327C665.604 315.472 667.926 314.182 670.147 314.556ZM639.539 331.615C639.687 332.209 639.098 332.721 638.53 332.491C634.56 330.885 631.876 330.773 630.447 331.996C627.447 334.564 623.808 334.658 623.047 331.604C622.155 328.03 626.318 325.028 632.038 326.082C636.26 326.86 638.812 328.698 639.539 331.615ZM631.766 327.557C626.995 326.678 623.918 328.897 624.502 331.241C624.91 332.877 627.179 332.819 629.471 330.857C631.182 329.392 633.837 329.302 637.416 330.483C636.436 329.053 634.576 328.075 631.766 327.557Z" fill="#3B3B3B"/>
<path d="M608.957 308.61C612.687 311.2 624.007 309.239 642.919 302.726C661.831 296.213 680.958 284.442 699.976 269.534L555.976 79.5962L608.957 308.61Z" fill="white"/>
<path d="M609.973 308.356C613.999 311.152 625.415 309.174 644.606 302.565C663.601 296.023 682.638 285.272 701.719 270.316C702.041 270.063 702.102 269.6 701.856 269.274L558.018 78.2746C557.531 77.6275 556.506 78.1056 556.689 78.8948L609.67 307.909C609.712 308.09 609.82 308.25 609.973 308.356ZM611.062 307.272L558.947 82.0008L700.214 269.588C681.454 284.21 662.755 294.728 644.118 301.146C625.89 307.424 614.751 309.421 611.062 307.272Z" fill="#3B3B3B"/>
<path d="M718.828 639.726C718.828 639.726 672.246 677.226 672.246 696.226C672.246 715.226 716.746 792.726 716.746 807.226C716.746 821.726 695.246 867.726 625.746 867.726C583.569 867.726 521.552 867.678 439.695 867.584C431.963 867.575 425.702 861.3 425.711 853.568C425.714 850.897 426.481 848.283 427.921 846.034C433.289 837.653 439.23 828.883 445.746 819.726C464.246 793.726 479.246 767.726 495.246 756.226C511.246 744.726 528.828 750.339 516.328 726.339C507.994 710.339 494.691 694.577 476.419 679.055" fill="white"/>
<path d="M718.828 639.726C718.828 639.726 672.246 677.226 672.246 696.226C672.246 715.226 716.746 792.726 716.746 807.226C716.746 821.726 695.246 867.726 625.746 867.726C583.569 867.726 521.552 867.678 439.695 867.584C431.963 867.575 425.702 861.3 425.711 853.568C425.714 850.897 426.481 848.283 427.921 846.034C433.289 837.653 439.23 828.883 445.746 819.726C464.246 793.726 479.246 767.726 495.246 756.226C511.246 744.726 528.828 750.339 516.328 726.339C507.994 710.339 494.691 694.577 476.419 679.055" fill="white"/>
<path fill-rule="evenodd" clip-rule="evenodd" d="M516.919 726.726C538.586 743.392 551.586 755.226 555.919 762.226C560.252 769.226 540.252 767.226 495.919 756.226L516.919 726.726ZM674.328 689.896C673.462 695.867 673.462 700.701 674.328 704.396C675.194 708.092 677.194 712.926 680.328 718.896L637.328 708.896L674.328 689.896Z" fill="#3B3B3B"/>
<path d="M718.857 639.312C718.765 639.387 718.587 639.531 718.329 639.742C717.901 640.093 717.405 640.503 716.846 640.969C715.249 642.301 713.471 643.816 711.556 645.488C706.085 650.264 700.613 655.339 695.504 660.494C691.203 664.834 687.35 669.042 684.059 673.052C676.307 682.498 671.996 690.411 671.996 696.397C671.996 704.348 678.324 719.957 693.082 751.284C693.474 752.115 693.881 752.978 694.318 753.904C705.684 777.978 706.28 779.252 709.605 786.906C714.169 797.411 716.496 804.188 716.496 807.397C716.496 816.485 709.345 831.131 697.293 842.539C680.932 858.028 657.248 867.147 626.246 867.147C584.069 867.147 522.053 867.099 440.196 867.005C432.878 866.996 426.953 861.057 426.961 853.74C426.964 851.212 427.69 848.738 429.053 846.609C434.414 838.239 440.348 829.479 446.857 820.331C451.67 813.568 467.215 790.709 467.123 790.842C474.703 779.879 480.281 772.511 485.732 766.559C489.353 762.605 492.802 759.436 496.184 757.006C496.949 756.456 497.735 755.933 498.545 755.434C500.796 754.047 503.156 752.879 505.945 751.711C507.448 751.082 512.184 749.252 512.689 749.047C523.047 744.849 524.7 740.001 517.493 726.163C509.111 710.07 495.746 694.236 477.405 678.654C477.089 678.386 476.616 678.424 476.347 678.74C476.079 679.056 476.118 679.529 476.433 679.797C494.637 695.261 507.878 710.949 516.163 726.856C519.886 734.006 520.983 738.609 519.947 741.649C519.091 744.157 516.916 745.716 512.125 747.657C511.639 747.854 506.892 749.688 505.365 750.328C502.51 751.523 500.083 752.725 497.758 754.157C496.918 754.675 496.103 755.217 495.309 755.788C491.835 758.284 488.311 761.521 484.625 765.546C479.117 771.56 473.505 778.974 465.889 789.989C465.973 789.868 450.437 812.714 445.635 819.462C439.112 828.629 433.164 837.408 427.79 845.8C426.272 848.17 425.464 850.924 425.461 853.738C425.452 861.884 432.048 868.495 440.194 868.505C522.051 868.599 584.069 868.647 626.246 868.647C657.626 868.647 681.68 859.385 698.324 843.629C710.659 831.952 717.996 816.926 717.996 807.397C717.996 803.893 715.641 797.034 710.981 786.309C707.646 778.633 707.052 777.36 695.675 753.264C695.238 752.338 694.831 751.475 694.439 750.645C679.844 719.662 673.496 704.006 673.496 696.397C673.496 690.866 677.674 683.196 685.218 674.004C688.477 670.033 692.299 665.859 696.57 661.549C701.651 656.423 707.097 651.372 712.543 646.618C714.449 644.954 716.219 643.446 717.807 642.121C718.362 641.658 718.855 641.25 719.28 640.903C719.534 640.694 719.709 640.553 719.798 640.481C720.121 640.221 720.172 639.749 719.912 639.426C719.652 639.104 719.18 639.053 718.857 639.312Z" fill="#3B3B3B"/>
<path fill-rule="evenodd" clip-rule="evenodd" d="M637.328 565.165C617.828 565.165 608.328 571.01 574.828 586.01C541.328 601.009 579.471 623.399 522.828 631.34C466.184 639.281 450.684 652.516 468.184 674.575C485.684 696.633 509.414 706.521 560.184 703.692C610.954 700.862 583.328 656.51 619.828 656.51C656.328 656.51 716.184 669.281 722.184 639.281C728.184 609.281 656.828 565.165 637.328 565.165Z" fill="#3B3B3B"/>
<path fill-rule="evenodd" clip-rule="evenodd" d="M695.692 208.22L671.005 144.818C670.342 143.117 669.354 141.562 668.094 140.24C664.13 136.08 660.117 134.497 656.054 135.493C649.434 137.115 645.382 143.798 647.004 150.418C647.035 150.544 647.068 150.669 647.103 150.793C663.272 208.819 679.536 246.719 695.894 264.493C712.681 282.733 737.735 288.733 771.054 282.493L769.554 220.993L749.773 221.105L724.919 189.725L723.419 184.225L741.919 160.726C743.919 154.059 743.086 149.225 739.419 146.225C735.752 143.225 731.919 143.225 727.919 146.225L680.419 170.225" fill="white"/>
<path d="M770.063 282.276C737.292 288.28 712.708 282.304 696.22 264.389C679.965 246.727 663.738 208.914 647.599 150.996C647.566 150.879 647.536 150.762 647.507 150.644C645.983 144.425 649.788 138.149 656.006 136.625C659.779 135.7 663.531 137.18 667.325 141.162C668.517 142.412 669.453 143.884 670.079 145.494L694.767 208.896C694.917 209.282 695.352 209.474 695.738 209.323C696.124 209.173 696.315 208.738 696.165 208.352L671.477 144.95C670.779 143.158 669.738 141.519 668.411 140.127C664.276 135.787 660.002 134.102 655.649 135.168C648.626 136.889 644.329 143.978 646.05 151.001C646.082 151.134 646.117 151.267 646.154 151.399C662.353 209.532 678.654 247.518 695.116 265.405C712.097 283.855 737.412 289.918 770.966 283.634C771.328 283.566 771.587 283.246 771.578 282.878L770.078 221.378C770.068 220.97 769.732 220.644 769.324 220.647L749.543 220.759C749.128 220.761 748.795 221.099 748.797 221.513C748.799 221.927 749.137 222.261 749.551 222.259L768.596 222.151L770.063 282.276Z" fill="#3B3B3B"/>
<path d="M741.017 163.345C741.966 162.176 742.704 160.851 743.198 159.43C744.986 154.287 744.563 150.159 741.868 147.149C737.755 142.557 730.692 142.156 726.092 146.254C725.755 146.554 725.436 146.875 725.138 147.213L702.025 173.478C701.751 173.789 701.782 174.263 702.093 174.536C702.404 174.81 702.878 174.78 703.151 174.469L726.264 148.204C726.522 147.911 726.798 147.634 727.089 147.374C731.072 143.826 737.189 144.173 740.75 148.15C743.04 150.706 743.404 154.268 741.782 158.937C741.345 160.194 740.692 161.366 739.852 162.399L723.024 183.117C722.877 183.298 722.822 183.537 722.876 183.764L727.263 202.106C727.359 202.509 727.764 202.757 728.167 202.661C728.569 202.565 728.818 202.16 728.722 201.757L724.421 183.775L741.017 163.345Z" fill="#3B3B3B"/>
<path fill-rule="evenodd" clip-rule="evenodd" d="M709.24 222.264L725.013 212.28C725.066 206.555 725.036 202.712 724.922 200.751C724.462 192.828 724.924 189.11 729.356 186.993C742.422 180.751 744.685 196.712 747.922 207.251C751.158 217.79 751.065 225.198 743.303 232.412" fill="white"/>
<path fill-rule="evenodd" clip-rule="evenodd" d="M709.517 202.059L704.517 181.059L723.748 157.328C724.77 156.067 725.565 154.637 726.098 153.103C728.048 147.484 727.6 143.082 724.755 139.896C720.375 134.992 712.849 134.568 707.945 138.948C707.586 139.269 707.246 139.611 706.929 139.973L681.919 168.726" fill="white"/>
<path d="M708.745 221.276C708.395 221.497 708.291 221.96 708.513 222.31C708.734 222.66 709.197 222.765 709.547 222.543L725.32 212.56C725.536 212.423 725.667 212.187 725.669 211.933C725.722 206.191 725.692 202.336 725.577 200.353C725.083 191.85 725.854 189.097 729.585 187.315C736.705 183.914 740.655 186.943 743.779 195.842C744.332 197.418 744.833 199.072 745.502 201.463C745.627 201.911 746.163 203.842 746.304 204.347C746.613 205.448 746.864 206.311 747.111 207.117C750.603 218.489 749.655 225.043 742.699 231.508C742.395 231.79 742.378 232.265 742.66 232.568C742.942 232.872 743.416 232.889 743.72 232.607C751.156 225.696 752.19 218.548 748.545 206.676C748.302 205.885 748.054 205.032 747.749 203.942C747.608 203.44 747.073 201.509 746.947 201.059C746.269 198.639 745.761 196.959 745.194 195.345C741.815 185.719 737.068 182.078 728.938 185.962C724.475 188.094 723.554 191.383 724.079 200.44C724.189 202.332 724.22 206.027 724.173 211.511L708.745 221.276Z" fill="#3B3B3B"/>
<path d="M724.643 157.638C725.719 156.309 726.557 154.803 727.118 153.187C729.15 147.332 728.673 142.647 725.626 139.235C720.97 134.022 712.97 133.571 707.757 138.226C707.375 138.567 707.014 138.931 706.677 139.316L680.265 169.402C679.991 169.714 680.022 170.187 680.333 170.461C680.645 170.734 681.119 170.703 681.392 170.392L707.804 140.306C708.102 139.966 708.42 139.646 708.756 139.345C713.351 135.241 720.403 135.639 724.507 140.234C727.15 143.193 727.569 147.312 725.701 152.695C725.197 154.147 724.445 155.5 723.477 156.694L704.245 180.425C704.099 180.606 704.045 180.844 704.099 181.071L709.099 202.071C709.195 202.474 709.599 202.723 710.002 202.627C710.405 202.531 710.654 202.126 710.558 201.723L705.643 181.083L724.643 157.638Z" fill="#3B3B3B"/>
<path fill-rule="evenodd" clip-rule="evenodd" d="M769.305 212.879L757.419 223.226L769.427 238.097L759.419 251.226L769.543 263.815C762.95 270.995 759.576 274.632 759.419 274.726C759.263 274.82 763.006 278.6 770.65 286.066L769.305 212.879Z" fill="#3B3B3B"/>
<path d="M688.287 463.652C686.009 463.126 683.194 461.582 681.671 460.014C679.109 457.378 678.485 453.879 679.482 449.56C680.145 446.687 681.67 444.054 683.688 442.503C686.307 440.489 689.897 439.906 693.574 440.755C696.722 441.481 699.424 443.453 701.049 446.14C702.601 448.707 703.084 451.796 702.38 454.847C701.714 457.731 700.208 459.69 697.563 461.426C694.548 463.404 691.244 464.335 688.287 463.652ZM688.625 462.191C691.121 462.767 694.036 461.946 696.74 460.172C699.08 458.636 700.345 456.99 700.918 454.509C701.535 451.837 701.115 449.147 699.766 446.917C698.35 444.575 695.988 442.851 693.236 442.216C689.972 441.462 686.841 441.971 684.602 443.693C682.882 445.015 681.533 447.343 680.943 449.898C680.051 453.762 680.583 456.743 682.746 458.969C684.065 460.325 686.621 461.728 688.625 462.191ZM692.647 510.732C690.368 510.206 687.554 508.662 686.03 507.094C683.469 504.458 682.844 500.959 683.841 496.64C684.505 493.767 686.03 491.134 688.047 489.583C690.667 487.569 694.256 486.985 697.933 487.834C701.082 488.561 703.784 490.533 705.409 493.22C706.961 495.786 707.443 498.875 706.739 501.926C706.073 504.81 704.567 506.77 701.922 508.506C698.908 510.484 695.604 511.415 692.647 510.732ZM692.984 509.27C695.481 509.847 698.396 509.026 701.1 507.252C703.44 505.716 704.705 504.07 705.277 501.589C705.894 498.916 705.474 496.227 704.125 493.996C702.709 491.654 700.347 489.931 697.596 489.296C694.331 488.542 691.2 489.051 688.961 490.772C687.241 492.095 685.893 494.423 685.303 496.977C684.411 500.841 684.943 503.823 687.106 506.049C688.424 507.405 690.981 508.808 692.984 509.27Z" fill="#3B3B3B"/>
<path fill-rule="evenodd" clip-rule="evenodd" d="M515.419 55.7255C514.883 52.5083 515.005 48.5208 517.919 44.2255C518.392 43.5287 519.558 42.5287 521.419 41.2255L525.419 38.2255L554.419 34.7255C556.825 33.5823 558.491 32.5823 559.419 31.7255C565.607 26.0108 570.098 19.8442 573.919 16.7255C577.205 14.044 580.101 14.0285 581.919 13.7255C586.326 12.991 590.16 17.8243 593.419 28.2255L595.919 42.7255L554.419 65.2255C547.473 70.395 542.807 73.395 540.419 74.2255C537.236 75.3329 534.831 74.4805 533.419 73.2255C530.419 70.5588 531.086 66.7255 535.419 61.7255C529.61 63.2878 525.61 63.7878 523.419 63.2255C519.549 62.2322 515.78 57.8887 515.419 55.7255Z" fill="white"/>
<path fill-rule="evenodd" clip-rule="evenodd" d="M615.194 537.252L640.666 559.253C650.153 567.448 654.988 579.794 653.59 592.252L651.461 611.21C650.36 617.827 647.223 621.867 642.051 623.332C636.878 624.797 633.738 625.345 632.629 624.976C629.174 630.076 626.221 633.198 623.77 634.341C621.319 635.484 617.506 635.518 612.332 634.442C608.162 640.15 604.772 643.601 602.162 644.795C601.162 645.253 599.911 645.546 598.407 645.677C593.354 646.114 588.392 644.128 585.035 640.326L577.162 631.41C569.557 622.796 566.263 611.202 568.203 599.877L568.234 599.698L564.95 583.536L553.694 569.752C558.069 560.387 567.375 551.706 581.612 543.709C595.849 535.712 607.043 533.56 615.194 537.252Z" fill="white"/>
<path d="M563.977 584.34L552.838 570.7C552.656 570.477 552.618 570.169 552.739 569.908C557.19 560.381 566.608 551.596 580.97 543.529C595.394 535.427 606.814 533.231 615.228 537.043L615.409 537.158L640.881 559.159C650.555 567.515 655.486 580.105 654.06 592.809L651.925 611.806C650.779 618.692 647.453 622.977 641.98 624.527C637.29 625.855 634.262 626.447 632.696 626.279C629.289 631.242 626.349 634.311 623.811 635.494C621.261 636.684 617.458 636.752 612.378 635.746C608.266 641.321 604.897 644.716 602.199 645.951C601.114 646.447 599.78 646.76 598.196 646.897C592.906 647.355 587.712 645.277 584.197 641.296L576.324 632.379C568.569 623.596 565.21 611.772 567.188 600.223L567.195 600.183L563.977 584.34ZM614.512 538.365C606.631 534.853 595.696 536.977 581.704 544.837C567.809 552.642 558.681 561.077 554.3 570.119L565.256 583.535C565.333 583.629 565.386 583.741 565.41 583.86L568.693 600.022C568.712 600.113 568.713 600.206 568.697 600.298L568.667 600.477C566.765 611.578 569.994 622.944 577.449 631.386L585.322 640.303C588.522 643.927 593.25 645.819 598.067 645.403C599.491 645.28 600.66 645.005 601.575 644.587C604.034 643.461 607.352 640.084 611.451 634.473C611.625 634.235 611.922 634.121 612.21 634.181C617.24 635.227 620.905 635.195 623.178 634.135C625.473 633.064 628.348 630.025 631.732 625.029C631.921 624.75 632.271 624.632 632.59 624.738C633.489 625.036 636.582 624.497 641.571 623.084C646.442 621.704 649.389 617.908 650.44 611.6L652.569 592.641C653.94 580.429 649.2 568.327 639.901 560.294L614.512 538.365Z" fill="#3B3B3B"/>
<path d="M632.44 598.25C632.459 597.837 632.81 597.517 633.224 597.536C633.638 597.555 633.958 597.906 633.938 598.32L632.668 625.76C632.649 626.174 632.298 626.494 631.884 626.475C631.471 626.456 631.151 626.105 631.17 625.691L632.44 598.25ZM611.052 607.293C611.052 606.879 611.388 606.543 611.802 606.543C612.217 606.543 612.552 606.879 612.552 607.293L612.552 635.726C612.552 636.14 612.217 636.476 611.802 636.476C611.388 636.476 611.052 636.14 611.052 635.726L611.052 607.293ZM585.945 629.668C586.113 630.046 585.943 630.49 585.564 630.658C585.186 630.826 584.743 630.656 584.574 630.277L564.234 584.53C564.066 584.152 564.236 583.709 564.614 583.54C564.993 583.372 565.436 583.543 565.604 583.921L585.945 629.668ZM553.419 570.226C559.752 558.226 568.086 549.892 578.419 545.226C582.833 543.232 589.31 539.19 594.419 537.726C597.613 536.81 602.51 535.861 607.919 536.226C609.47 536.33 611.804 536.83 614.919 537.726L607.919 546.726L591.919 540.726C588.419 550.392 586.752 555.226 586.919 555.226C587.086 555.226 580.919 554.726 568.419 553.726L568.419 569.226L553.419 570.226Z" fill="#3B3B3B"/>
<path fill-rule="evenodd" clip-rule="evenodd" d="M554.419 65.7256C558.275 60.8296 560.775 56.9963 561.919 54.2256C563.063 51.4549 563.73 47.6216 563.919 42.7256C568.697 44.7256 573.697 45.7256 578.919 45.7256C584.141 45.7256 589.808 44.7256 595.919 42.7256C593.223 46.8062 590.89 49.9729 588.919 52.2256C584.176 57.6464 577.294 62.0188 568.419 64.2256C565.604 64.9256 560.937 65.4256 554.419 65.7256ZM520.419 39.2256C519.259 34.0084 518.426 29.3418 517.919 25.2256C517.412 21.1094 516.912 14.9427 516.419 6.72559C525.345 15.8055 532.345 22.4722 537.419 26.7256C542.493 30.979 546.993 33.6456 550.919 34.7256C552.119 34.6988 552.786 34.6988 552.919 34.7256C554.282 35.0002 550.817 36.0726 545.919 36.7256C540.303 37.4743 531.803 38.3077 520.419 39.2256Z" fill="#FFF000"/>
<path d="M251.833 390.085C265.041 406.395 288.969 408.91 305.279 395.703C321.589 382.495 324.104 358.567 310.896 342.257C297.689 325.947 273.76 323.432 257.451 336.64C241.141 349.847 238.626 373.776 251.833 390.085Z" fill="white"/>
<path d="M260.867 399.18C257.403 396.983 254.231 394.194 251.507 390.83C238.039 374.198 240.603 349.798 257.235 336.33C273.867 322.861 298.267 325.426 311.736 342.058C325.204 358.689 322.639 383.09 306.007 396.558C296.865 403.962 285.375 406.52 274.644 404.561C269.725 403.985 265.103 402.299 260.867 399.18ZM249.076 384.578C248.233 383.069 247.505 381.519 246.891 379.939C247.169 380.603 247.462 381.266 247.77 381.926C248.197 382.842 248.632 383.725 249.076 384.578ZM251.605 344.369C252.368 348.328 250.73 368.328 270.122 382.537C285.766 394 301.365 392.563 316.919 378.226C316.903 378.319 316.886 378.413 316.869 378.506C320.867 366.787 318.937 353.335 310.57 343.002C297.623 327.014 274.167 324.548 258.179 337.495C255.646 339.547 253.452 341.862 251.605 344.369Z" fill="#3B3B3B"/>
<path d="M80.9189 282.726C101.906 282.726 118.919 265.712 118.919 244.726C118.919 223.739 101.906 206.726 80.9189 206.726C59.9321 206.726 42.9189 223.739 42.9189 244.726C42.9189 265.712 59.9321 282.726 80.9189 282.726Z" fill="white"/>
<path d="M53.172 217.676C60.21 210.458 70.041 205.976 80.9189 205.976C102.32 205.976 119.669 223.325 119.669 244.726C119.669 266.127 102.32 283.476 80.9189 283.476C77.5992 283.476 74.377 283.058 71.3019 282.273C66.3877 281.227 61.8091 279.086 57.9189 276.726C51.3194 272.721 46.5006 266.593 44.2815 257.378C42.9125 253.413 42.1689 249.156 42.1689 244.726C42.1689 237.664 44.0581 231.043 47.3586 225.341C48.8609 222.57 50.7808 219.997 53.172 217.676H53.172ZM62.2136 212.506C60.9737 216.776 51.5336 233.988 62.9189 254.726C72.0795 271.411 86.8594 276.857 107.259 271.065C114 264.324 118.169 255.012 118.169 244.726C118.169 224.153 101.492 207.476 80.9189 207.476C74.1009 207.476 67.7107 209.307 62.2136 212.506Z" fill="#3B3B3B"/>
<path d="M132.159 82.6316C147.755 96.6745 171.782 95.4153 185.825 79.819C199.868 64.2228 198.609 40.1955 183.012 26.1525C167.416 12.1096 143.389 13.3688 129.346 28.9651C115.303 44.5613 116.562 68.5886 132.159 82.6316Z" fill="white"/>
<path d="M155.398 16.0577C165.459 15.4028 175.764 18.6501 183.848 25.9288C199.752 40.2489 201.036 64.7504 186.716 80.6545C172.396 96.5585 147.894 97.8426 131.99 83.5225C128.539 80.4154 125.777 76.829 123.713 72.9551C121.812 69.7641 120.4 66.3919 119.414 63.1163C117.19 55.7242 117.709 47.9462 122.226 39.6129C123.862 35.7502 126.157 32.0893 129.122 28.7969C133.847 23.5487 139.681 19.8926 145.949 17.8638C148.92 16.8095 152.068 16.1827 155.398 16.0577L155.398 16.0577ZM165.578 18.2652C161.799 20.6087 143.266 27.0835 137.851 50.1128C133.529 68.4941 140.546 82.4441 158.904 91.9627C168.756 91.7006 178.486 87.553 185.601 79.6508C199.367 64.3624 198.132 40.8093 182.844 27.0435C177.777 22.4814 171.803 19.5668 165.578 18.2652Z" fill="#3B3B3B"/>
<path d="M467.79 290.661C488.154 295.738 508.777 283.346 513.855 262.983C518.932 242.619 506.54 221.996 486.176 216.919C465.813 211.841 445.189 224.233 440.112 244.597C435.035 264.96 447.427 285.584 467.79 290.661Z" fill="white"/>
<path d="M456.54 220.767C465.115 215.466 475.739 213.495 486.294 216.127C507.059 221.304 519.695 242.335 514.518 263.1C509.341 283.866 488.31 296.502 467.545 291.325C462.896 290.166 458.656 288.213 454.931 285.646C451.894 283.773 449.181 281.551 446.861 279.211C441.426 273.729 438.233 266.617 438.309 257.139C437.94 252.96 438.248 248.65 439.32 244.351C441.029 237.499 444.463 231.532 449.045 226.798C451.173 224.472 453.658 222.441 456.54 220.767ZM466.564 217.938C464.328 221.781 451.004 236.198 457.035 259.074C461.968 277.79 475.22 286.509 496.789 285.234C504.627 280.292 510.644 272.437 513.063 262.737C518.04 242.776 505.892 222.559 485.931 217.582C479.315 215.933 472.672 216.164 466.564 217.938Z" fill="#3B3B3B"/>
<path d="M557.044 66.23C556.281 66.1351 555.515 66.0129 554.745 65.8637C554.684 65.8519 554.626 65.833 554.572 65.8081C554.145 66.2238 553.706 66.634 553.255 67.0388C551.266 68.8246 549.158 70.4071 546.907 71.8771C546.079 72.418 545.278 72.9139 544.393 73.4417C544.1 73.6162 542.91 74.3159 542.678 74.4569C538.792 76.8183 532.589 74.6766 531.479 71.1416C530.898 69.2922 531.784 66.726 534.063 63.3599C524.498 65.2516 518.321 63.8342 515.673 58.9529C513.516 54.9781 513.669 49.4413 516.192 45.0038C517.243 43.1532 518.642 41.57 520.357 40.3033C517.659 33.7765 515.992 21.9447 515.326 4.7549C515.298 4.03624 516.2 3.69424 516.656 4.25059C535.46 27.2057 548.584 36.6683 555.704 32.8897C559.144 31.0638 561.834 28.6444 565.651 24.3557C565.984 23.9815 567.757 21.9677 568.261 21.4049C573.812 15.2051 577.68 12.6647 583.522 12.7089C587.794 12.7412 591.057 17.352 593.487 26.3436H605.918C606.49 26.3436 606.852 26.9579 606.574 27.4578C591.28 54.9874 575.797 67.7286 558.544 66.382V79.2259C558.544 79.6401 558.208 79.9759 557.794 79.9759C557.38 79.9759 557.044 79.6401 557.044 79.2259V66.23ZM595.375 42.4013C592.278 40.0433 590.499 37.2424 590.04 33.9986C589.612 30.983 590.324 28.733 592.176 27.2485C589.888 18.5115 586.937 14.2347 583.51 14.2088C578.214 14.1688 574.667 16.498 569.378 22.4055C568.88 22.9625 567.109 24.974 566.772 25.353C565.212 27.1049 563.83 28.5586 562.503 29.7954C562.487 29.9687 562.411 30.1371 562.275 30.267C558.414 33.9724 553.897 36.1733 548.438 37.292C544.301 38.1396 540.674 38.327 533.19 38.3261L532.767 38.326C532.481 38.3259 532.481 38.3259 532.194 38.3259C528.058 38.3259 524.611 39.2925 521.939 41.0308C521.863 41.1475 521.753 41.2445 521.617 41.3056C521.565 41.3286 521.513 41.3453 521.46 41.3561C519.813 42.526 518.484 44.0059 517.496 45.745C515.225 49.7405 515.086 54.7273 516.991 58.2375C519.401 62.6788 525.558 63.8249 535.63 61.4886C536.311 61.3306 536.819 62.1085 536.4 62.6684C533.561 66.4632 532.435 69.18 532.91 70.692C533.722 73.278 538.828 75.0411 541.899 73.1751C542.142 73.0272 543.341 72.3229 543.625 72.1533C544.494 71.6353 545.278 71.1498 546.087 70.6212C548.278 69.1906 550.325 67.6531 552.253 65.9226C559.119 59.7573 563.169 52.3432 563.169 43.3743C563.169 42.9601 563.505 42.6243 563.919 42.6243C564.333 42.6243 564.669 42.9601 564.669 43.3743C564.669 51.6258 561.421 58.6155 555.827 64.5356C569.847 66.9006 582.723 59.7302 595.375 42.4013ZM550.961 35.1147C542.99 34.1362 531.693 24.7006 516.918 6.92573C517.622 22.5137 519.201 33.3718 521.632 39.4556C524.47 37.7604 528.025 36.8259 532.194 36.8259C532.481 36.8259 532.481 36.8259 532.768 36.826L533.191 36.8261C540.574 36.827 544.131 36.6432 548.136 35.8225C549.11 35.623 550.051 35.3879 550.961 35.1147ZM580.919 31.7259C579.815 31.7259 576.919 30.9321 576.919 28.2259C576.919 25.5197 579.815 24.7259 580.919 24.7259C582.024 24.7259 584.919 25.5197 584.919 28.2259C584.919 30.9321 582.024 31.7259 580.919 31.7259Z" fill="#3B3B3B"/>
<path d="M650.487 354.215C650.27 357.963 656.855 359.175 661.889 355.975C664.305 354.44 665.685 354.056 668.062 353.901C668.624 353.865 668.81 353.851 669.094 353.819C669.995 353.721 670.733 353.525 671.514 353.137C675.551 351.13 674.153 346.297 668.39 345.563C664.61 345.082 660.436 346.105 655.874 348.606C655.519 348.8 655.163 348.992 654.807 349.182C652.077 350.635 650.598 352.299 650.487 354.215ZM656.595 349.921C660.899 347.562 664.766 346.614 668.201 347.051C672.601 347.611 673.438 350.505 670.847 351.794C670.237 352.097 669.667 352.248 668.931 352.328C668.676 352.356 668.502 352.369 667.965 352.404C665.354 352.575 663.735 353.024 661.084 354.709C656.902 357.368 651.861 356.44 651.985 354.302C652.059 353.018 653.196 351.739 655.511 350.506C655.874 350.313 656.235 350.118 656.595 349.921Z" fill="#3B3B3B"/>
<path fill-rule="evenodd" clip-rule="evenodd" d="M98.2408 736.437C80.0758 737.345 68.2679 735.425 62.8172 730.676C54.6411 723.554 57.4115 705.245 70.5848 702.445C79.367 700.578 88.5857 711.909 98.2408 736.437ZM98.25 736.48C105.807 719.871 112.983 710.21 119.776 707.498C129.966 703.431 145.193 714.188 141.643 727.202C139.276 735.879 124.812 738.971 98.25 736.48Z" fill="white"/>
<path d="M62.5425 731.209C53.3358 723.189 57.5773 704.456 70.6468 701.678C79.7573 699.742 88.9628 710.772 98.5225 734.536C105.886 718.738 112.914 709.484 119.716 706.769C131.18 702.193 146.107 714.451 142.585 727.367C140.076 736.564 125.318 739.719 98.3979 737.194C98.3467 737.19 98.2975 737.18 98.2506 737.166C80.0422 738.053 68.16 736.103 62.5425 731.209ZM70.9587 703.145C59.1264 705.66 55.2336 722.853 63.5278 730.078C68.6837 734.57 79.9857 736.479 97.3748 735.705C87.9937 712.188 79.0997 701.415 70.9587 703.145ZM141.137 726.972C144.325 715.286 130.619 704.032 120.272 708.162C113.843 710.729 106.911 719.942 99.591 735.797C125.122 738.076 138.943 735.018 141.137 726.972Z" fill="#3B3B3B"/>
<path fill-rule="evenodd" clip-rule="evenodd" d="M331.699 736.27C314.913 735.135 304.168 732.04 299.463 726.984C292.076 719.046 296.745 701.126 310.139 699.719C318.638 698.825 326.28 709.864 333.066 732.833C331.968 716.08 333.622 705.006 338.028 699.611C344.968 691.113 363.501 693.139 366.706 706.243C368.819 714.885 357.928 724.488 334.032 735.051L354.124 757.245L348.933 761.157L333.651 743.098L323.556 760.65L316.435 758.52L331.699 736.27Z" fill="white"/>
<path d="M299.175 727.638C290.857 718.7 297.033 700.513 310.322 699.116C318.589 698.247 325.846 707.658 332.299 727.171C331.913 713.479 333.694 704.194 337.708 699.28C345.516 689.719 364.515 693.204 367.695 706.208C369.907 715.251 359.109 724.916 335.544 735.459L354.941 756.885C355.237 757.212 355.188 757.722 354.836 757.987L349.645 761.899C349.327 762.138 348.878 762.088 348.621 761.785L334.03 744.542L324.467 761.168C324.294 761.47 323.936 761.612 323.602 761.513L316.481 759.382C315.994 759.237 315.79 758.659 316.078 758.24L330.601 737.068C314.384 735.851 303.922 732.74 299.175 727.638ZM353.278 757.283L333.737 735.698C333.394 735.319 333.523 734.716 333.99 734.509C357.559 724.09 368.225 714.686 366.238 706.565C363.361 694.799 345.917 691.6 338.87 700.229C334.619 705.433 332.989 716.351 334.075 732.928C334.134 733.821 332.861 734.048 332.607 733.189C325.92 710.553 318.454 699.77 310.478 700.608C298.448 701.872 292.779 718.564 300.273 726.616C304.809 731.491 315.402 734.542 332.011 735.665C332.59 735.704 332.907 736.359 332.578 736.838L317.896 758.24L323.463 759.905L333.262 742.868C333.521 742.417 334.149 742.36 334.485 742.757L349.308 760.275L353.278 757.283Z" fill="#3B3B3B"/>
<path d="M673.232 362.408L685.232 356.908C685.608 356.735 685.774 356.29 685.601 355.913C685.428 355.537 684.983 355.371 684.607 355.544L672.607 361.044C672.23 361.217 672.065 361.662 672.237 362.038C672.41 362.415 672.855 362.58 673.232 362.408Z" fill="#3B3B3B"/>
</svg>
