<svg width="934" height="852" viewBox="0 0 934 852" fill="none" xmlns="http://www.w3.org/2000/svg">
<mask id="mask0_2_977" style="mask-type:alpha" maskUnits="userSpaceOnUse" x="243" y="246" width="506" height="606">
<path d="M442.728 246.502L436.049 259.28C432.865 265.372 430.873 272.016 430.18 278.855L427.228 308.002L260.124 473.402C242.834 490.515 238.311 516.715 248.862 538.635L366.728 783.502C338.079 792.028 318.913 801.195 309.228 811.002C299.544 820.809 296.711 833.922 300.728 850.34L419.228 850.502L431.228 813.002L435.299 792.841C435.955 789.593 439.12 787.492 442.368 788.147C444.337 788.545 445.976 789.901 446.735 791.76L470.728 850.502H493.728L474.728 762.502C468.805 747.391 463.805 735.891 459.728 728.002C455.651 720.112 449.995 710.991 442.76 700.638L345.228 513.502L485.228 334.002L614.728 793.502C587.175 798.405 569.675 805.072 562.228 813.502C554.782 821.932 553.282 834.599 557.728 851.502H698.728L695.647 793.564C695.559 791.909 696.829 790.497 698.483 790.409C699.749 790.341 700.92 791.076 701.41 792.245L726.228 851.502H748.228C735.325 806.136 726.992 777.136 723.228 764.502C717.303 744.609 694.728 714.502 698.728 728.002C698.728 728.002 682.314 666.648 652.228 587.002C642.492 561.226 625.602 530.831 614.867 503.52C596.174 455.965 573.501 398.288 546.849 330.487C542.047 318.271 543.976 295.992 535.228 273.738C532.736 267.398 525.736 258.653 514.228 247.502L442.728 246.502Z" fill="white"/>
</mask>
<g mask="url(#mask0_2_977)">
<path d="M442.728 246.502L436.049 259.28C432.865 265.372 430.873 272.016 430.18 278.855L427.228 308.002L260.124 473.402C242.834 490.515 238.311 516.715 248.862 538.635L366.728 783.502C338.079 792.028 318.913 801.195 309.228 811.002C299.544 820.809 296.711 833.922 300.728 850.34L419.228 850.502L431.228 813.002L435.299 792.841C435.955 789.593 439.12 787.492 442.368 788.147C444.337 788.545 445.976 789.901 446.735 791.76L470.728 850.502H493.728L474.728 762.502C468.805 747.391 463.805 735.891 459.728 728.002C455.651 720.112 449.995 710.991 442.76 700.638L345.228 513.502L485.228 334.002L614.728 793.502C587.175 798.405 569.675 805.072 562.228 813.502C554.782 821.932 553.282 834.599 557.728 851.502H698.728L695.647 793.564C695.559 791.909 696.829 790.497 698.483 790.409C699.749 790.341 700.92 791.076 701.41 792.245L726.228 851.502H748.228C735.325 806.136 726.992 777.136 723.228 764.502C717.303 744.609 694.728 714.502 698.728 728.002C698.728 728.002 682.314 666.648 652.228 587.002C642.492 561.226 625.602 530.831 614.867 503.52C596.174 455.965 573.501 398.288 546.849 330.487C542.047 318.271 543.976 295.992 535.228 273.738C532.736 267.398 525.736 258.653 514.228 247.502L442.728 246.502Z" fill="#FF567B"/>
<path fill-rule="evenodd" clip-rule="evenodd" d="M334.729 727.502L464.229 695.002L523.229 858.502H288.229L334.729 727.502Z" fill="#002D6F"/>
<path fill-rule="evenodd" clip-rule="evenodd" d="M580.729 714.502L708.729 726.502L777.229 886.502H542.229L580.729 714.502Z" fill="#002D6F"/>
</g>
<mask id="mask1_2_977" style="mask-type:alpha" maskUnits="userSpaceOnUse" x="138" y="69" width="624" height="374">
<path d="M416.228 119.502L207.228 69.002L138.228 276.002L231.228 282.002L265.728 161.502L427.228 184.002L438.228 246.559H514.228L522.228 168.502L676.228 420.502L748.228 442.502L761.228 420.502L705.228 260.002L548.728 113.502C518.712 121.221 497.045 124.74 483.728 124.059C450.395 122.354 427.895 120.835 416.228 119.502Z" fill="white"/>
</mask>
<g mask="url(#mask1_2_977)">
<path d="M416.228 119.502L207.228 69.002L138.228 276.002L231.228 282.002L265.728 161.502L427.228 184.002L438.228 246.559H514.228L522.228 168.502L676.228 420.502L748.228 442.502L761.228 420.502L705.228 260.002L548.728 113.502C518.712 121.221 497.045 124.74 483.728 124.059C450.395 122.354 427.895 120.835 416.228 119.502Z" fill="#FFE694"/>
<path d="M527.554 191.754C527.002 191.83 526.504 191.452 526.44 190.909C526.377 190.367 526.772 189.866 527.324 189.79L533.891 188.887C534.442 188.812 534.941 189.19 535.005 189.732C535.068 190.275 534.673 190.776 534.121 190.852L527.554 191.754ZM527.805 181.4C527.254 181.475 526.755 181.097 526.691 180.555C526.628 180.012 527.023 179.511 527.575 179.435L534.142 178.533C534.694 178.457 535.192 178.835 535.256 179.378C535.319 179.92 534.924 180.421 534.372 180.497L527.805 181.4ZM554.793 187.86C554.241 187.935 553.742 187.557 553.679 187.015C553.615 186.472 554.011 185.971 554.562 185.895L561.129 184.993C561.681 184.917 562.18 185.295 562.243 185.838C562.307 186.38 561.911 186.882 561.36 186.957L554.793 187.86ZM555.044 177.505C554.492 177.581 553.994 177.202 553.93 176.66C553.866 176.117 554.262 175.616 554.813 175.54L561.381 174.638C561.932 174.562 562.431 174.941 562.494 175.483C562.558 176.026 562.163 176.527 561.611 176.603L555.044 177.505ZM540.897 190.411C540.352 190.528 539.824 190.189 539.719 189.654C539.614 189.118 539.97 188.59 540.516 188.473L546.95 187.096C547.495 186.979 548.022 187.318 548.128 187.854C548.233 188.389 547.876 188.917 547.331 189.034L540.897 190.411ZM541.148 180.057C540.603 180.173 540.076 179.834 539.97 179.299C539.865 178.764 540.222 178.235 540.767 178.118L547.201 176.741C547.746 176.624 548.274 176.964 548.379 177.499C548.484 178.034 548.128 178.562 547.582 178.679L541.148 180.057ZM568.135 186.517C567.59 186.633 567.063 186.294 566.958 185.759C566.853 185.224 567.209 184.695 567.754 184.579L574.189 183.201C574.734 183.085 575.261 183.424 575.366 183.959C575.471 184.494 575.115 185.023 574.57 185.139L568.135 186.517ZM568.387 176.162C567.841 176.279 567.314 175.939 567.209 175.404C567.104 174.869 567.46 174.341 568.005 174.224L574.44 172.847C574.985 172.73 575.512 173.069 575.617 173.604C575.723 174.139 575.366 174.668 574.821 174.785L568.387 176.162ZM582.031 183.965C581.48 184.041 580.981 183.663 580.917 183.12C580.854 182.578 581.249 182.076 581.801 182.001L588.368 181.098C588.92 181.022 589.418 181.401 589.482 181.943C589.546 182.486 589.15 182.987 588.599 183.063L582.031 183.965ZM582.282 173.61C581.731 173.686 581.232 173.308 581.169 172.765C581.105 172.223 581.501 171.722 582.052 171.646L588.619 170.744C589.171 170.668 589.669 171.046 589.733 171.589C589.797 172.131 589.401 172.632 588.85 172.708L582.282 173.61ZM595.374 182.622C594.829 182.739 594.302 182.4 594.196 181.864C594.091 181.329 594.448 180.801 594.993 180.684L601.427 179.307C601.972 179.19 602.5 179.529 602.605 180.064C602.71 180.6 602.354 181.128 601.808 181.245L595.374 182.622ZM595.625 172.267C595.08 172.384 594.553 172.045 594.448 171.51C594.342 170.974 594.699 170.446 595.244 170.329L601.678 168.952C602.224 168.835 602.751 169.175 602.856 169.71C602.961 170.245 602.605 170.773 602.06 170.89L595.625 172.267ZM528.056 171.045C527.505 171.121 527.006 170.742 526.943 170.2C526.879 169.657 527.274 169.156 527.826 169.08L534.393 168.178C534.945 168.102 535.443 168.48 535.507 169.023C535.571 169.565 535.175 170.067 534.624 170.142L528.056 171.045ZM555.295 167.15C554.743 167.226 554.245 166.848 554.181 166.305C554.118 165.763 554.513 165.262 555.065 165.186L561.632 164.283C562.183 164.208 562.682 164.586 562.746 165.128C562.809 165.671 562.414 166.172 561.862 166.248L555.295 167.15ZM541.399 169.702C540.854 169.818 540.327 169.479 540.222 168.944C540.116 168.409 540.473 167.88 541.018 167.764L547.452 166.386C547.998 166.27 548.525 166.609 548.63 167.144C548.735 167.679 548.379 168.208 547.834 168.324L541.399 169.702ZM568.638 165.807C568.093 165.924 567.566 165.585 567.46 165.049C567.355 164.514 567.712 163.986 568.257 163.869L574.691 162.492C575.236 162.375 575.763 162.714 575.869 163.25C575.974 163.785 575.617 164.313 575.072 164.43L568.638 165.807ZM582.534 163.256C581.982 163.332 581.483 162.953 581.42 162.411C581.356 161.868 581.752 161.367 582.303 161.291L588.871 160.389C589.422 160.313 589.921 160.691 589.984 161.234C590.048 161.776 589.652 162.278 589.101 162.353L582.534 163.256ZM595.876 161.913C595.331 162.029 594.804 161.69 594.699 161.155C594.594 160.62 594.95 160.091 595.495 159.975L601.93 158.597C602.475 158.481 603.002 158.82 603.107 159.355C603.213 159.89 602.856 160.419 602.311 160.535L595.876 161.913ZM528.308 160.69C527.756 160.766 527.257 160.388 527.194 159.845C527.13 159.303 527.526 158.801 528.077 158.726L534.644 157.823C535.196 157.747 535.695 158.126 535.758 158.668C535.822 159.211 535.426 159.712 534.875 159.788L528.308 160.69ZM555.546 156.796C554.995 156.871 554.496 156.493 554.432 155.951C554.369 155.408 554.764 154.907 555.316 154.831L561.883 153.929C562.435 153.853 562.933 154.231 562.997 154.774C563.061 155.316 562.665 155.817 562.113 155.893L555.546 156.796ZM541.65 159.347C541.105 159.464 540.578 159.125 540.473 158.589C540.368 158.054 540.724 157.526 541.269 157.409L547.704 156.032C548.249 155.915 548.776 156.254 548.881 156.789C548.986 157.325 548.63 157.853 548.085 157.97L541.65 159.347ZM568.889 155.453C568.344 155.569 567.817 155.23 567.711 154.695C567.606 154.16 567.963 153.631 568.508 153.514L574.942 152.137C575.487 152.02 576.015 152.36 576.12 152.895C576.225 153.43 575.869 153.958 575.323 154.075L568.889 155.453ZM582.785 152.901C582.233 152.977 581.735 152.598 581.671 152.056C581.607 151.513 582.003 151.012 582.554 150.936L589.122 150.034C589.673 149.958 590.172 150.337 590.236 150.879C590.299 151.422 589.904 151.923 589.352 151.999L582.785 152.901ZM596.128 151.558C595.583 151.675 595.055 151.335 594.95 150.8C594.845 150.265 595.201 149.737 595.746 149.62L602.181 148.243C602.726 148.126 603.253 148.465 603.358 149C603.464 149.535 603.107 150.064 602.562 150.181L596.128 151.558ZM528.559 150.335C528.007 150.411 527.509 150.033 527.445 149.49C527.381 148.948 527.777 148.447 528.328 148.371L534.896 147.468C535.447 147.393 535.946 147.771 536.009 148.314C536.073 148.856 535.678 149.357 535.126 149.433L528.559 150.335ZM555.797 146.441C555.246 146.517 554.747 146.138 554.684 145.596C554.62 145.053 555.015 144.552 555.567 144.476L562.134 143.574C562.686 143.498 563.184 143.876 563.248 144.419C563.312 144.961 562.916 145.463 562.365 145.538L555.797 146.441ZM541.902 148.992C541.356 149.109 540.829 148.77 540.724 148.235C540.619 147.699 540.975 147.171 541.52 147.054L547.955 145.677C548.5 145.56 549.027 145.899 549.132 146.435C549.238 146.97 548.881 147.498 548.336 147.615L541.902 148.992ZM569.14 145.098C568.595 145.215 568.068 144.875 567.963 144.34C567.857 143.805 568.214 143.276 568.759 143.16L575.193 141.782C575.739 141.666 576.266 142.005 576.371 142.54C576.476 143.075 576.12 143.604 575.575 143.72L569.14 145.098ZM583.036 142.546C582.485 142.622 581.986 142.244 581.922 141.701C581.859 141.159 582.254 140.658 582.806 140.582L589.373 139.679C589.924 139.604 590.423 139.982 590.487 140.524C590.55 141.067 590.155 141.568 589.603 141.644L583.036 142.546ZM596.379 141.203C595.834 141.32 595.307 140.981 595.201 140.445C595.096 139.91 595.453 139.382 595.998 139.265L602.432 137.888C602.977 137.771 603.504 138.11 603.61 138.646C603.715 139.181 603.358 139.709 602.813 139.826L596.379 141.203ZM528.81 139.981C528.258 140.056 527.76 139.678 527.696 139.136C527.633 138.593 528.028 138.092 528.58 138.016L535.147 137.114C535.698 137.038 536.197 137.416 536.261 137.959C536.324 138.501 535.929 139.002 535.377 139.078L528.81 139.981ZM556.049 136.086C555.497 136.162 554.998 135.784 554.935 135.241C554.871 134.699 555.267 134.197 555.818 134.122L562.385 133.219C562.937 133.143 563.436 133.522 563.499 134.064C563.563 134.607 563.167 135.108 562.616 135.184L556.049 136.086ZM542.153 138.638C541.608 138.754 541.08 138.415 540.975 137.88C540.87 137.345 541.226 136.816 541.772 136.7L548.206 135.322C548.751 135.205 549.278 135.545 549.384 136.08C549.489 136.615 549.132 137.144 548.587 137.26L542.153 138.638ZM569.391 134.743C568.846 134.86 568.319 134.521 568.214 133.985C568.109 133.45 568.465 132.922 569.01 132.805L575.445 131.428C575.99 131.311 576.517 131.65 576.622 132.185C576.727 132.721 576.371 133.249 575.826 133.366L569.391 134.743ZM583.287 132.192C582.736 132.267 582.237 131.889 582.173 131.347C582.11 130.804 582.505 130.303 583.057 130.227L589.624 129.325C590.176 129.249 590.674 129.627 590.738 130.17C590.802 130.712 590.406 131.213 589.855 131.289L583.287 132.192ZM596.63 130.849C596.085 130.965 595.558 130.626 595.452 130.091C595.347 129.556 595.704 129.027 596.249 128.91L602.683 127.533C603.228 127.416 603.756 127.756 603.861 128.291C603.966 128.826 603.61 129.354 603.064 129.471L596.63 130.849ZM556.3 125.731C555.748 125.807 555.25 125.429 555.186 124.886C555.122 124.344 555.518 123.843 556.069 123.767L562.637 122.864C563.188 122.789 563.687 123.167 563.75 123.71C563.814 124.252 563.419 124.753 562.867 124.829L556.3 125.731ZM542.404 128.283C541.859 128.4 541.332 128.06 541.226 127.525C541.121 126.99 541.478 126.462 542.023 126.345L548.457 124.968C549.002 124.851 549.53 125.19 549.635 125.725C549.74 126.26 549.383 126.789 548.838 126.906L542.404 128.283ZM569.643 124.388C569.097 124.505 568.57 124.166 568.465 123.631C568.36 123.095 568.716 122.567 569.261 122.45L575.696 121.073C576.241 120.956 576.768 121.295 576.873 121.831C576.979 122.366 576.622 122.894 576.077 123.011L569.643 124.388ZM532.345 129.175L532.114 127.21L532.345 129.175ZM532.345 129.175L529.061 129.626C527.73 129.809 527.499 127.844 528.831 127.661L532.114 127.21L535.398 126.759C536.729 126.576 536.96 128.541 535.628 128.724L532.345 129.175ZM586.822 121.386L586.592 119.421L586.822 121.386ZM586.592 119.421C587.923 119.238 588.154 121.203 586.822 121.386L583.538 121.837C582.207 122.02 581.977 120.055 583.308 119.872L586.592 119.421L589.875 118.97C591.207 118.787 591.437 120.752 590.106 120.934L586.822 121.386C585.491 121.569 585.26 119.604 586.592 119.421ZM596.881 120.494C596.336 120.61 595.809 120.271 595.704 119.736C595.598 119.201 595.955 118.672 596.5 118.556L602.934 117.178C603.48 117.062 604.007 117.401 604.112 117.936C604.217 118.471 603.861 119 603.316 119.116L596.881 120.494ZM441.916 136.98C441.9 136.433 442.338 135.967 442.893 135.939C443.448 135.91 443.91 136.331 443.925 136.878L444.108 143.392C444.123 143.939 443.686 144.405 443.131 144.434C442.576 144.462 442.114 144.041 442.098 143.494L441.916 136.98ZM452.346 137.883C452.33 137.336 452.768 136.869 453.323 136.841C453.878 136.813 454.34 137.234 454.356 137.781L454.538 144.295C454.553 144.842 454.116 145.308 453.561 145.336C453.006 145.364 452.544 144.944 452.528 144.397L452.346 137.883ZM442.826 164.007C442.81 163.46 443.248 162.994 443.803 162.965C444.358 162.937 444.82 163.358 444.835 163.905L445.018 170.419C445.033 170.966 444.596 171.432 444.041 171.46C443.486 171.489 443.024 171.068 443.008 170.521L442.826 164.007ZM453.256 164.91C453.241 164.363 453.678 163.896 454.233 163.868C454.788 163.84 455.25 164.26 455.266 164.807L455.448 171.321C455.463 171.868 455.026 172.335 454.471 172.363C453.916 172.391 453.454 171.971 453.438 171.424L453.256 164.91ZM441.791 150.184C441.734 149.64 442.135 149.143 442.687 149.074C443.239 149.004 443.734 149.388 443.791 149.931L444.468 156.345C444.525 156.888 444.124 157.385 443.572 157.455C443.02 157.524 442.525 157.14 442.468 156.597L441.791 150.184ZM452.221 151.086C452.164 150.543 452.565 150.046 453.117 149.976C453.669 149.907 454.164 150.291 454.221 150.834L454.898 157.247C454.955 157.791 454.554 158.288 454.002 158.357C453.45 158.427 452.956 158.043 452.898 157.499L452.221 151.086ZM442.701 177.21C442.644 176.667 443.045 176.17 443.597 176.101C444.149 176.031 444.644 176.415 444.701 176.958L445.378 183.372C445.435 183.915 445.034 184.412 444.482 184.481C443.93 184.551 443.436 184.167 443.378 183.624L442.701 177.21ZM453.131 178.113C453.074 177.57 453.475 177.073 454.027 177.003C454.58 176.934 455.074 177.318 455.131 177.861L455.808 184.274C455.865 184.818 455.464 185.314 454.912 185.384C454.36 185.454 453.866 185.07 453.808 184.526L453.131 178.113ZM443.736 191.034C443.721 190.487 444.158 190.02 444.713 189.992C445.268 189.964 445.73 190.385 445.746 190.932L445.928 197.446C445.943 197.993 445.506 198.459 444.951 198.487C444.396 198.515 443.934 198.095 443.918 197.548L443.736 191.034ZM454.166 191.936C454.151 191.389 454.588 190.923 455.143 190.895C455.698 190.867 456.16 191.287 456.176 191.834L456.358 198.348C456.373 198.895 455.936 199.362 455.381 199.39C454.826 199.418 454.364 198.997 454.348 198.45L454.166 191.936ZM443.611 204.237C443.554 203.694 443.955 203.197 444.507 203.127C445.06 203.058 445.554 203.442 445.611 203.985L446.288 210.398C446.345 210.942 445.944 211.439 445.392 211.508C444.84 211.578 444.346 211.194 444.288 210.651L443.611 204.237ZM454.041 205.14C453.984 204.596 454.385 204.1 454.937 204.03C455.49 203.96 455.984 204.344 456.041 204.888L456.718 211.301C456.775 211.844 456.374 212.341 455.822 212.411C455.27 212.48 454.776 212.096 454.718 211.553L454.041 205.14ZM462.776 138.785C462.761 138.238 463.198 137.772 463.753 137.744C464.308 137.716 464.77 138.136 464.786 138.683L464.968 145.197C464.983 145.744 464.546 146.21 463.991 146.239C463.436 146.267 462.974 145.846 462.958 145.299L462.776 138.785ZM463.686 165.812C463.671 165.265 464.108 164.799 464.663 164.771C465.218 164.742 465.68 165.163 465.696 165.71L465.878 172.224C465.893 172.771 465.456 173.237 464.901 173.266C464.346 173.294 463.884 172.873 463.868 172.326L463.686 165.812ZM462.651 151.989C462.594 151.445 462.995 150.949 463.547 150.879C464.1 150.809 464.594 151.193 464.651 151.737L465.328 158.15C465.385 158.693 464.984 159.19 464.432 159.26C463.88 159.329 463.386 158.945 463.328 158.402L462.651 151.989ZM463.561 179.016C463.504 178.472 463.905 177.975 464.457 177.906C465.01 177.836 465.504 178.22 465.561 178.763L466.238 185.177C466.295 185.72 465.894 186.217 465.342 186.287C464.79 186.356 464.296 185.972 464.238 185.429L463.561 179.016ZM464.596 192.839C464.581 192.292 465.018 191.826 465.573 191.797C466.128 191.769 466.59 192.19 466.606 192.737L466.788 199.251C466.803 199.798 466.366 200.264 465.811 200.292C465.256 200.321 464.794 199.9 464.778 199.353L464.596 192.839ZM464.471 206.042C464.414 205.499 464.815 205.002 465.367 204.933C465.92 204.863 466.414 205.247 466.471 205.79L467.148 212.204C467.205 212.747 466.804 213.244 466.252 213.313C465.7 213.383 465.206 212.999 465.148 212.456L464.471 206.042ZM473.206 139.688C473.191 139.141 473.628 138.675 474.183 138.646C474.738 138.618 475.2 139.039 475.216 139.586L475.398 146.1C475.413 146.647 474.976 147.113 474.421 147.141C473.866 147.17 473.404 146.749 473.388 146.202L473.206 139.688ZM474.116 166.715C474.101 166.168 474.538 165.701 475.093 165.673C475.648 165.645 476.11 166.066 476.126 166.613L476.308 173.127C476.323 173.674 475.886 174.14 475.331 174.168C474.776 174.196 474.314 173.776 474.298 173.229L474.116 166.715ZM473.081 152.891C473.024 152.348 473.425 151.851 473.977 151.782C474.53 151.712 475.024 152.096 475.081 152.639L475.758 159.053C475.815 159.596 475.414 160.093 474.862 160.162C474.31 160.232 473.816 159.848 473.758 159.305L473.081 152.891ZM473.991 179.918C473.934 179.375 474.335 178.878 474.887 178.808C475.44 178.739 475.934 179.123 475.991 179.666L476.668 186.079C476.725 186.623 476.324 187.12 475.772 187.189C475.22 187.259 474.726 186.875 474.668 186.331L473.991 179.918ZM475.026 193.742C475.011 193.195 475.448 192.728 476.003 192.7C476.558 192.672 477.02 193.092 477.036 193.639L477.218 200.153C477.234 200.7 476.796 201.167 476.241 201.195C475.686 201.223 475.224 200.803 475.209 200.256L475.026 193.742ZM474.902 206.945C474.844 206.402 475.245 205.905 475.798 205.835C476.35 205.766 476.844 206.15 476.901 206.693L477.578 213.106C477.635 213.65 477.234 214.146 476.682 214.216C476.13 214.286 475.636 213.902 475.578 213.358L474.902 206.945ZM483.636 140.591C483.621 140.044 484.058 139.577 484.613 139.549C485.168 139.521 485.63 139.941 485.646 140.488L485.828 147.002C485.844 147.549 485.406 148.016 484.851 148.044C484.296 148.072 483.834 147.652 483.818 147.105L483.636 140.591ZM484.546 167.617C484.531 167.07 484.968 166.604 485.523 166.576C486.078 166.548 486.54 166.968 486.556 167.515L486.738 174.029C486.754 174.576 486.316 175.043 485.761 175.071C485.206 175.099 484.744 174.678 484.729 174.131L484.546 167.617ZM483.511 153.794C483.454 153.251 483.855 152.754 484.407 152.684C484.96 152.615 485.454 152.999 485.511 153.542L486.188 159.955C486.245 160.499 485.844 160.995 485.292 161.065C484.74 161.135 484.246 160.751 484.188 160.207L483.511 153.794ZM484.422 180.821C484.364 180.277 484.765 179.781 485.318 179.711C485.87 179.641 486.364 180.025 486.421 180.569L487.098 186.982C487.155 187.525 486.754 188.022 486.202 188.092C485.65 188.161 485.156 187.777 485.098 187.234L484.422 180.821ZM485.456 194.644C485.441 194.097 485.878 193.631 486.433 193.603C486.988 193.574 487.451 193.995 487.466 194.542L487.648 201.056C487.664 201.603 487.226 202.069 486.671 202.098C486.116 202.126 485.654 201.705 485.639 201.158L485.456 194.644ZM485.332 207.848C485.274 207.304 485.675 206.807 486.228 206.738C486.78 206.668 487.274 207.052 487.331 207.596L488.008 214.009C488.066 214.552 487.664 215.049 487.112 215.119C486.56 215.188 486.066 214.804 486.008 214.261L485.332 207.848ZM494.066 141.493C494.051 140.946 494.488 140.48 495.043 140.452C495.598 140.423 496.06 140.844 496.076 141.391L496.258 147.905C496.274 148.452 495.836 148.918 495.281 148.947C494.726 148.975 494.264 148.554 494.249 148.007L494.066 141.493ZM494.976 168.52C494.961 167.973 495.398 167.507 495.953 167.478C496.508 167.45 496.971 167.871 496.986 168.418L497.168 174.932C497.184 175.479 496.746 175.945 496.191 175.973C495.636 176.002 495.174 175.581 495.159 175.034L494.976 168.52ZM493.942 154.697C493.884 154.153 494.285 153.656 494.838 153.587C495.39 153.517 495.884 153.901 495.941 154.444L496.618 160.858C496.675 161.401 496.274 161.898 495.722 161.968C495.17 162.037 494.676 161.653 494.618 161.11L493.942 154.697ZM494.852 181.723C494.794 181.18 495.195 180.683 495.748 180.614C496.3 180.544 496.794 180.928 496.851 181.471L497.528 187.885C497.586 188.428 497.184 188.925 496.632 188.994C496.08 189.064 495.586 188.68 495.529 188.137L494.852 181.723ZM495.886 195.547C495.871 195 496.308 194.534 496.863 194.505C497.418 194.477 497.881 194.898 497.896 195.445L498.078 201.959C498.094 202.506 497.656 202.972 497.101 203C496.546 203.028 496.084 202.608 496.069 202.061L495.886 195.547ZM495.762 208.75C495.704 208.207 496.105 207.71 496.658 207.64C497.21 207.571 497.704 207.955 497.761 208.498L498.438 214.911C498.496 215.455 498.094 215.952 497.542 216.021C496.99 216.091 496.496 215.707 496.439 215.164L495.762 208.75ZM505.406 169.423C505.391 168.876 505.828 168.409 506.383 168.381C506.938 168.353 507.401 168.773 507.416 169.32L507.598 175.834C507.614 176.381 507.176 176.848 506.621 176.876C506.066 176.904 505.604 176.484 505.589 175.937L505.406 169.423ZM504.372 155.599C504.314 155.056 504.715 154.559 505.268 154.489C505.82 154.42 506.314 154.804 506.371 155.347L507.048 161.76C507.106 162.304 506.704 162.801 506.152 162.87C505.6 162.94 505.106 162.556 505.049 162.012L504.372 155.599ZM505.282 182.626C505.224 182.083 505.625 181.586 506.178 181.516C506.73 181.447 507.224 181.831 507.281 182.374L507.958 188.787C508.016 189.331 507.614 189.827 507.062 189.897C506.51 189.967 506.016 189.583 505.959 189.039L505.282 182.626ZM504.587 145.653L506.597 145.551L504.587 145.653ZM504.587 145.653L504.496 142.396C504.459 141.075 506.469 140.973 506.506 142.294L506.597 145.551L506.688 148.808C506.725 150.128 504.716 150.23 504.679 148.91L504.587 145.653ZM506.407 199.706L508.417 199.604L506.407 199.706ZM508.417 199.604C508.454 200.925 506.444 201.027 506.407 199.706L506.316 196.449C506.279 195.129 508.289 195.027 508.326 196.347L508.417 199.604L508.508 202.861C508.545 204.182 506.536 204.284 506.499 202.963L506.407 199.706C506.37 198.386 508.38 198.284 508.417 199.604ZM506.192 209.653C506.134 209.109 506.536 208.613 507.088 208.543C507.64 208.473 508.134 208.857 508.191 209.401L508.868 215.814C508.926 216.357 508.525 216.854 507.972 216.924C507.42 216.993 506.926 216.609 506.869 216.066L506.192 209.653ZM580.763 232.504C580.456 232.055 580.582 231.437 581.045 231.123C581.507 230.809 582.131 230.919 582.438 231.368L586.095 236.714C586.402 237.163 586.276 237.781 585.814 238.095C585.351 238.409 584.727 238.299 584.42 237.85L580.763 232.504ZM590.226 227.803C589.919 227.354 590.045 226.736 590.507 226.422C590.97 226.108 591.594 226.218 591.901 226.667L595.557 232.013C595.864 232.462 595.738 233.08 595.276 233.394C594.813 233.708 594.19 233.598 593.882 233.149L590.226 227.803ZM596.067 254.606C595.76 254.157 595.886 253.538 596.348 253.224C596.811 252.911 597.435 253.02 597.742 253.469L601.398 258.815C601.705 259.264 601.579 259.883 601.117 260.196C600.654 260.51 600.031 260.401 599.723 259.952L596.067 254.606ZM605.529 249.905C605.222 249.456 605.348 248.837 605.811 248.524C606.273 248.21 606.897 248.319 607.204 248.768L610.861 254.114C611.168 254.563 611.042 255.182 610.579 255.496C610.117 255.809 609.493 255.7 609.186 255.251L605.529 249.905ZM587.75 243.599C587.408 243.175 587.487 242.55 587.925 242.203C588.363 241.856 588.994 241.919 589.335 242.343L593.364 247.346C593.705 247.77 593.627 248.395 593.189 248.742C592.751 249.089 592.119 249.026 591.778 248.602L587.75 243.599ZM597.212 238.898C596.871 238.474 596.949 237.849 597.387 237.502C597.825 237.156 598.457 237.218 598.798 237.642L602.826 242.645C603.167 243.069 603.089 243.694 602.651 244.041C602.213 244.388 601.581 244.325 601.24 243.902L597.212 238.898ZM603.053 265.7C602.712 265.276 602.79 264.652 603.228 264.305C603.666 263.958 604.298 264.02 604.639 264.444L608.667 269.447C609.008 269.871 608.93 270.496 608.492 270.843C608.054 271.19 607.422 271.128 607.081 270.704L603.053 265.7ZM612.515 261C612.174 260.576 612.252 259.951 612.69 259.604C613.128 259.257 613.76 259.319 614.101 259.743L618.129 264.747C618.471 265.17 618.392 265.795 617.954 266.142C617.517 266.489 616.885 266.427 616.544 266.003L612.515 261ZM611.37 276.707C611.063 276.258 611.189 275.64 611.652 275.326C612.114 275.012 612.738 275.122 613.045 275.571L616.702 280.917C617.009 281.366 616.883 281.984 616.42 282.298C615.958 282.612 615.334 282.502 615.027 282.053L611.37 276.707ZM620.833 272.006C620.525 271.557 620.651 270.939 621.114 270.625C621.577 270.311 622.2 270.421 622.507 270.87L626.164 276.216C626.471 276.665 626.345 277.283 625.883 277.597C625.42 277.911 624.796 277.801 624.489 277.352L620.833 272.006ZM618.356 287.802C618.015 287.378 618.093 286.753 618.531 286.406C618.969 286.059 619.601 286.121 619.942 286.545L623.97 291.549C624.312 291.973 624.233 292.598 623.795 292.945C623.358 293.291 622.726 293.229 622.385 292.805L618.356 287.802ZM627.819 283.101C627.478 282.677 627.556 282.052 627.994 281.705C628.432 281.358 629.063 281.421 629.405 281.845L633.433 286.848C633.774 287.272 633.696 287.897 633.258 288.244C632.82 288.591 632.188 288.528 631.847 288.104L627.819 283.101ZM599.688 223.103C599.381 222.654 599.507 222.035 599.97 221.721C600.432 221.408 601.056 221.517 601.363 221.966L605.02 227.312C605.327 227.761 605.201 228.38 604.738 228.693C604.276 229.007 603.652 228.898 603.345 228.449L599.688 223.103ZM614.992 245.204C614.684 244.755 614.811 244.137 615.273 243.823C615.736 243.509 616.359 243.619 616.666 244.068L620.323 249.414C620.63 249.863 620.504 250.481 620.042 250.795C619.579 251.109 618.955 250.999 618.648 250.55L614.992 245.204ZM606.674 234.197C606.333 233.773 606.412 233.149 606.849 232.802C607.287 232.455 607.919 232.517 608.26 232.941L612.288 237.944C612.63 238.368 612.551 238.993 612.113 239.34C611.675 239.687 611.044 239.625 610.703 239.201L606.674 234.197ZM621.978 256.299C621.637 255.875 621.715 255.25 622.153 254.903C622.591 254.556 623.222 254.618 623.564 255.042L627.592 260.046C627.933 260.47 627.855 261.095 627.417 261.441C626.979 261.788 626.347 261.726 626.006 261.302L621.978 256.299ZM630.295 267.305C629.988 266.856 630.114 266.238 630.576 265.924C631.039 265.61 631.663 265.72 631.97 266.169L635.626 271.515C635.934 271.964 635.808 272.582 635.345 272.896C634.883 273.21 634.259 273.1 633.952 272.651L630.295 267.305ZM637.281 278.4C636.94 277.976 637.018 277.351 637.456 277.004C637.894 276.657 638.526 276.72 638.867 277.144L642.895 282.147C643.236 282.571 643.158 283.196 642.72 283.543C642.282 283.89 641.651 283.827 641.309 283.404L637.281 278.4ZM609.151 218.402C608.844 217.953 608.97 217.334 609.432 217.021C609.895 216.707 610.518 216.816 610.825 217.265L614.482 222.611C614.789 223.06 614.663 223.679 614.201 223.993C613.738 224.306 613.114 224.197 612.807 223.748L609.151 218.402ZM624.454 240.503C624.147 240.054 624.273 239.436 624.735 239.122C625.198 238.808 625.822 238.918 626.129 239.367L629.785 244.713C630.093 245.162 629.967 245.78 629.504 246.094C629.042 246.408 628.418 246.298 628.111 245.849L624.454 240.503ZM616.137 229.496C615.796 229.073 615.874 228.448 616.312 228.101C616.75 227.754 617.381 227.816 617.723 228.24L621.751 233.244C622.092 233.667 622.014 234.292 621.576 234.639C621.138 234.986 620.506 234.924 620.165 234.5L616.137 229.496ZM631.44 251.598C631.099 251.174 631.177 250.549 631.615 250.202C632.053 249.855 632.685 249.918 633.026 250.341L637.054 255.345C637.395 255.769 637.317 256.394 636.879 256.741C636.441 257.088 635.81 257.025 635.468 256.601L631.44 251.598ZM639.757 262.604C639.45 262.156 639.576 261.537 640.039 261.223C640.501 260.91 641.125 261.019 641.432 261.468L645.089 266.814C645.396 267.263 645.27 267.881 644.807 268.195C644.345 268.509 643.721 268.4 643.414 267.951L639.757 262.604ZM646.744 273.699C646.402 273.275 646.481 272.65 646.919 272.304C647.356 271.957 647.988 272.019 648.329 272.443L652.358 277.446C652.699 277.87 652.62 278.495 652.183 278.842C651.745 279.189 651.113 279.127 650.772 278.703L646.744 273.699ZM618.613 213.701C618.306 213.252 618.432 212.634 618.894 212.32C619.357 212.006 619.981 212.116 620.288 212.564L623.945 217.911C624.252 218.36 624.126 218.978 623.663 219.292C623.201 219.605 622.577 219.496 622.27 219.047L618.613 213.701ZM633.916 235.802C633.609 235.353 633.735 234.735 634.198 234.421C634.66 234.107 635.284 234.217 635.591 234.666L639.248 240.012C639.555 240.461 639.429 241.079 638.966 241.393C638.504 241.707 637.88 241.597 637.573 241.148L633.916 235.802ZM625.599 224.796C625.258 224.372 625.336 223.747 625.774 223.4C626.212 223.053 626.844 223.115 627.185 223.539L631.213 228.543C631.554 228.967 631.476 229.591 631.038 229.938C630.6 230.285 629.969 230.223 629.627 229.799L625.599 224.796ZM640.903 246.897C640.561 246.473 640.64 245.848 641.078 245.501C641.515 245.154 642.147 245.217 642.488 245.641L646.517 250.644C646.858 251.068 646.779 251.693 646.342 252.04C645.904 252.387 645.272 252.324 644.931 251.9L640.903 246.897ZM649.22 257.904C648.913 257.455 649.039 256.836 649.501 256.523C649.964 256.209 650.588 256.318 650.895 256.767L654.551 262.113C654.858 262.562 654.732 263.181 654.27 263.494C653.807 263.808 653.183 263.699 652.876 263.25L649.22 257.904ZM656.206 268.998C655.865 268.575 655.943 267.95 656.381 267.603C656.819 267.256 657.45 267.318 657.792 267.742L661.82 272.746C662.161 273.169 662.083 273.794 661.645 274.141C661.207 274.488 660.575 274.426 660.234 274.002L656.206 268.998ZM628.075 209C627.768 208.551 627.894 207.933 628.357 207.619C628.819 207.305 629.443 207.415 629.75 207.864L633.407 213.21C633.714 213.659 633.588 214.277 633.125 214.591C632.663 214.905 632.039 214.795 631.732 214.346L628.075 209ZM643.379 231.101C643.072 230.652 643.198 230.034 643.66 229.72C644.123 229.407 644.747 229.516 645.054 229.965L648.71 235.311C649.017 235.76 648.891 236.378 648.429 236.692C647.966 237.006 647.342 236.896 647.035 236.448L643.379 231.101ZM635.062 220.095C634.72 219.671 634.799 219.046 635.237 218.699C635.674 218.352 636.306 218.415 636.647 218.838L640.676 223.842C641.017 224.266 640.938 224.891 640.501 225.238C640.063 225.585 639.431 225.522 639.09 225.098L635.062 220.095ZM650.365 242.196C650.024 241.772 650.102 241.147 650.54 240.801C650.978 240.454 651.609 240.516 651.951 240.94L655.979 245.943C656.32 246.367 656.242 246.992 655.804 247.339C655.366 247.686 654.734 247.624 654.393 247.2L650.365 242.196ZM658.682 253.203C658.375 252.754 658.501 252.136 658.964 251.822C659.426 251.508 660.05 251.617 660.357 252.066L664.014 257.413C664.321 257.861 664.195 258.48 663.732 258.794C663.27 259.107 662.646 258.998 662.339 258.549L658.682 253.203ZM665.668 264.298C665.327 263.874 665.405 263.249 665.843 262.902C666.281 262.555 666.913 262.617 667.254 263.041L671.282 268.045C671.624 268.469 671.545 269.093 671.107 269.44C670.669 269.787 670.038 269.725 669.696 269.301L665.668 264.298ZM652.841 226.401C652.534 225.952 652.66 225.333 653.123 225.02C653.585 224.706 654.209 224.815 654.516 225.264L658.173 230.61C658.48 231.059 658.354 231.678 657.891 231.991C657.429 232.305 656.805 232.196 656.498 231.747L652.841 226.401ZM644.524 215.394C644.183 214.97 644.261 214.345 644.699 213.998C645.137 213.651 645.768 213.714 646.11 214.138L650.138 219.141C650.479 219.565 650.401 220.19 649.963 220.537C649.525 220.884 648.893 220.821 648.552 220.397L644.524 215.394ZM659.827 237.495C659.486 237.071 659.564 236.447 660.002 236.1C660.44 235.753 661.072 235.815 661.413 236.239L665.441 241.242C665.783 241.666 665.704 242.291 665.266 242.638C664.828 242.985 664.197 242.923 663.856 242.499L659.827 237.495ZM639.366 206.972L641.041 205.836L639.366 206.972ZM639.366 206.972L637.538 204.299C636.796 203.215 638.471 202.079 639.213 203.163L641.041 205.836L642.869 208.509C643.611 209.593 641.936 210.729 641.194 209.645L639.366 206.972ZM669.973 251.175L671.648 250.039L669.973 251.175ZM671.648 250.039C672.389 251.123 670.714 252.259 669.973 251.175L668.144 248.502C667.403 247.418 669.078 246.282 669.819 247.366L671.648 250.039L673.476 252.712C674.217 253.796 672.542 254.932 671.801 253.848L669.973 251.175C669.231 250.091 670.906 248.955 671.648 250.039ZM675.131 259.597C674.789 259.173 674.868 258.548 675.306 258.201C675.744 257.854 676.375 257.916 676.716 258.34L680.745 263.344C681.086 263.768 681.008 264.393 680.57 264.74C680.132 265.086 679.5 265.024 679.159 264.6L675.131 259.597ZM625.807 299.662C625.516 299.202 625.664 298.588 626.137 298.29C626.61 297.992 627.229 298.123 627.52 298.583L630.982 304.056C631.273 304.516 631.125 305.13 630.652 305.428C630.179 305.726 629.56 305.595 629.269 305.135L625.807 299.662ZM635.422 295.286C635.131 294.826 635.279 294.212 635.752 293.914C636.225 293.616 636.844 293.747 637.135 294.207L640.597 299.68C640.888 300.14 640.74 300.754 640.267 301.052C639.794 301.35 639.175 301.219 638.884 300.759L635.422 295.286ZM640.306 322.295C640.016 321.836 640.163 321.222 640.636 320.924C641.109 320.626 641.728 320.757 642.019 321.216L645.481 326.69C645.772 327.149 645.624 327.763 645.151 328.061C644.678 328.359 644.059 328.228 643.769 327.769L640.306 322.295ZM649.921 317.919C649.631 317.46 649.778 316.846 650.251 316.548C650.724 316.25 651.343 316.381 651.634 316.84L655.096 322.314C655.387 322.773 655.239 323.387 654.766 323.685C654.293 323.983 653.674 323.852 653.384 323.393L649.921 317.919ZM632.391 311C632.065 310.564 632.165 309.942 632.615 309.61C633.064 309.278 633.693 309.362 634.019 309.798L637.864 314.941C638.19 315.377 638.089 315.999 637.64 316.331C637.19 316.663 636.562 316.579 636.236 316.143L632.391 311ZM642.006 306.624C641.68 306.188 641.78 305.566 642.23 305.234C642.679 304.902 643.308 304.986 643.634 305.422L647.479 310.565C647.805 311.001 647.704 311.623 647.255 311.955C646.805 312.287 646.177 312.203 645.851 311.767L642.006 306.624ZM646.89 333.633C646.564 333.197 646.664 332.575 647.114 332.243C647.564 331.911 648.192 331.995 648.518 332.431L652.363 337.575C652.689 338.01 652.589 338.633 652.139 338.965C651.689 339.296 651.061 339.212 650.735 338.777L646.89 333.633ZM656.505 329.257C656.179 328.822 656.279 328.199 656.729 327.867C657.179 327.535 657.807 327.619 658.133 328.055L661.978 333.199C662.304 333.634 662.204 334.257 661.754 334.589C661.305 334.92 660.676 334.836 660.35 334.401L656.505 329.257ZM654.806 344.929C654.515 344.469 654.663 343.855 655.135 343.557C655.608 343.259 656.228 343.39 656.518 343.85L659.98 349.323C660.271 349.783 660.124 350.397 659.651 350.695C659.178 350.993 658.559 350.862 658.268 350.402L654.806 344.929ZM664.421 340.553C664.13 340.093 664.278 339.479 664.751 339.181C665.223 338.883 665.843 339.014 666.133 339.474L669.596 344.947C669.886 345.407 669.739 346.021 669.266 346.319C668.793 346.617 668.174 346.486 667.883 346.026L664.421 340.553ZM661.389 356.267C661.063 355.831 661.164 355.209 661.613 354.877C662.063 354.545 662.691 354.629 663.017 355.065L666.862 360.208C667.188 360.644 667.088 361.266 666.638 361.598C666.189 361.93 665.56 361.846 665.234 361.41L661.389 356.267ZM671.004 351.891C670.678 351.455 670.779 350.833 671.228 350.501C671.678 350.169 672.306 350.253 672.632 350.689L676.477 355.832C676.803 356.268 676.703 356.89 676.253 357.222C675.804 357.554 675.175 357.47 674.85 357.034L671.004 351.891ZM645.037 290.91C644.746 290.45 644.894 289.836 645.367 289.538C645.84 289.24 646.459 289.371 646.75 289.831L650.212 295.304C650.503 295.764 650.355 296.378 649.882 296.676C649.409 296.974 648.79 296.843 648.499 296.383L645.037 290.91ZM659.536 313.543C659.246 313.084 659.393 312.47 659.866 312.172C660.339 311.874 660.958 312.005 661.249 312.464L664.711 317.938C665.002 318.397 664.854 319.011 664.381 319.309C663.908 319.607 663.289 319.476 662.999 319.017L659.536 313.543ZM651.621 302.248C651.295 301.812 651.395 301.19 651.845 300.858C652.294 300.526 652.923 300.61 653.249 301.046L657.094 306.189C657.42 306.625 657.319 307.247 656.87 307.579C656.42 307.911 655.792 307.827 655.466 307.391L651.621 302.248ZM666.12 324.881C665.794 324.446 665.895 323.823 666.344 323.491C666.794 323.159 667.422 323.244 667.748 323.679L671.593 328.823C671.919 329.258 671.819 329.881 671.369 330.213C670.92 330.545 670.291 330.46 669.965 330.025L666.12 324.881ZM674.036 336.177C673.745 335.717 673.893 335.103 674.366 334.805C674.839 334.507 675.458 334.638 675.748 335.098L679.211 340.571C679.501 341.031 679.354 341.645 678.881 341.943C678.408 342.241 677.789 342.11 677.498 341.65L674.036 336.177ZM680.619 347.515C680.293 347.079 680.394 346.457 680.843 346.125C681.293 345.793 681.921 345.877 682.247 346.313L686.093 351.456C686.418 351.892 686.318 352.514 685.868 352.846C685.419 353.178 684.79 353.094 684.465 352.658L680.619 347.515ZM654.652 286.534C654.361 286.074 654.509 285.46 654.982 285.162C655.455 284.864 656.074 284.995 656.365 285.455L659.827 290.928C660.118 291.388 659.97 292.002 659.497 292.3C659.024 292.598 658.405 292.467 658.114 292.007L654.652 286.534ZM669.151 309.167C668.861 308.708 669.008 308.094 669.481 307.796C669.954 307.498 670.573 307.629 670.864 308.088L674.326 313.562C674.617 314.021 674.469 314.635 673.996 314.933C673.523 315.231 672.904 315.1 672.614 314.641L669.151 309.167ZM661.236 297.872C660.91 297.436 661.01 296.814 661.46 296.482C661.909 296.15 662.538 296.234 662.864 296.67L666.709 301.813C667.035 302.249 666.934 302.871 666.485 303.203C666.035 303.535 665.407 303.451 665.081 303.015L661.236 297.872ZM675.735 320.505C675.409 320.07 675.51 319.447 675.959 319.115C676.409 318.783 677.037 318.868 677.363 319.303L681.208 324.447C681.534 324.882 681.434 325.505 680.984 325.837C680.535 326.169 679.906 326.084 679.58 325.649L675.735 320.505ZM683.651 331.801C683.36 331.341 683.508 330.727 683.981 330.429C684.454 330.131 685.073 330.262 685.363 330.722L688.826 336.195C689.116 336.655 688.969 337.269 688.496 337.567C688.023 337.865 687.404 337.734 687.113 337.274L683.651 331.801ZM690.234 343.139C689.909 342.703 690.009 342.081 690.458 341.749C690.908 341.417 691.536 341.501 691.862 341.937L695.708 347.08C696.033 347.516 695.933 348.138 695.483 348.47C695.034 348.802 694.405 348.718 694.08 348.282L690.234 343.139ZM664.267 282.158C663.976 281.698 664.124 281.084 664.597 280.786C665.07 280.488 665.689 280.619 665.98 281.079L669.442 286.552C669.733 287.012 669.585 287.626 669.112 287.924C668.639 288.222 668.02 288.091 667.729 287.631L664.267 282.158ZM678.766 304.791C678.476 304.332 678.623 303.718 679.096 303.42C679.569 303.122 680.188 303.253 680.479 303.712L683.941 309.186C684.232 309.645 684.084 310.259 683.611 310.557C683.138 310.855 682.519 310.724 682.229 310.265L678.766 304.791ZM670.851 293.496C670.525 293.06 670.625 292.438 671.075 292.106C671.524 291.774 672.153 291.858 672.479 292.294L676.324 297.437C676.65 297.873 676.549 298.495 676.1 298.827C675.65 299.159 675.022 299.075 674.696 298.639L670.851 293.496ZM685.35 316.129C685.024 315.694 685.125 315.071 685.574 314.739C686.024 314.407 686.652 314.492 686.978 314.927L690.823 320.071C691.149 320.506 691.049 321.129 690.599 321.461C690.15 321.793 689.521 321.708 689.195 321.273L685.35 316.129ZM693.266 327.425C692.975 326.965 693.123 326.351 693.596 326.053C694.069 325.755 694.688 325.886 694.978 326.346L698.441 331.819C698.731 332.279 698.584 332.893 698.111 333.191C697.638 333.489 697.019 333.358 696.728 332.898L693.266 327.425ZM699.849 338.763C699.524 338.327 699.624 337.705 700.073 337.373C700.523 337.041 701.152 337.125 701.477 337.561L705.323 342.704C705.648 343.14 705.548 343.762 705.099 344.094C704.649 344.426 704.02 344.342 703.695 343.906L699.849 338.763ZM673.882 277.782C673.591 277.322 673.739 276.708 674.212 276.41C674.685 276.112 675.304 276.243 675.595 276.703L679.057 282.176C679.348 282.636 679.2 283.25 678.727 283.548C678.254 283.846 677.635 283.715 677.344 283.255L673.882 277.782ZM688.382 300.415C688.091 299.956 688.238 299.342 688.711 299.044C689.184 298.746 689.803 298.877 690.094 299.336L693.556 304.81C693.847 305.269 693.699 305.884 693.226 306.181C692.754 306.479 692.134 306.348 691.844 305.889L688.382 300.415ZM680.466 289.12C680.14 288.684 680.24 288.062 680.69 287.73C681.139 287.398 681.768 287.482 682.094 287.918L685.939 293.061C686.265 293.497 686.165 294.119 685.715 294.451C685.265 294.783 684.637 294.699 684.311 294.263L680.466 289.12ZM694.965 311.753C694.639 311.318 694.74 310.695 695.189 310.363C695.639 310.031 696.267 310.116 696.593 310.551L700.438 315.695C700.764 316.13 700.664 316.753 700.214 317.085C699.765 317.417 699.136 317.332 698.81 316.897L694.965 311.753ZM702.881 323.049C702.59 322.589 702.738 321.975 703.211 321.677C703.684 321.379 704.303 321.51 704.593 321.97L708.056 327.443C708.346 327.903 708.199 328.517 707.726 328.815C707.253 329.113 706.634 328.982 706.343 328.522L702.881 323.049ZM709.464 334.387C709.139 333.951 709.239 333.329 709.688 332.997C710.138 332.665 710.767 332.749 711.092 333.185L714.938 338.328C715.263 338.764 715.163 339.386 714.714 339.718C714.264 340.05 713.635 339.966 713.31 339.53L709.464 334.387ZM697.997 296.039C697.706 295.58 697.854 294.966 698.326 294.668C698.799 294.37 699.418 294.501 699.709 294.961L703.171 300.434C703.462 300.893 703.314 301.508 702.842 301.805C702.369 302.103 701.75 301.972 701.459 301.513L697.997 296.039ZM690.081 284.744C689.755 284.308 689.855 283.686 690.305 283.354C690.754 283.022 691.383 283.106 691.709 283.542L695.554 288.685C695.88 289.121 695.78 289.743 695.33 290.075C694.88 290.407 694.252 290.323 693.926 289.887L690.081 284.744ZM704.58 307.377C704.254 306.942 704.355 306.319 704.804 305.987C705.254 305.655 705.882 305.74 706.208 306.175L710.053 311.319C710.379 311.754 710.279 312.377 709.829 312.709C709.38 313.041 708.751 312.956 708.425 312.521L704.58 307.377ZM685.228 276.143L686.941 275.064L685.228 276.143ZM685.228 276.143L683.497 273.406C682.795 272.296 684.508 271.217 685.21 272.327L686.941 275.064L688.672 277.8C689.374 278.91 687.661 279.989 686.959 278.879L685.228 276.143ZM714.227 321.41L715.94 320.331L714.227 321.41ZM715.94 320.331C716.642 321.44 714.929 322.519 714.227 321.41L712.496 318.673C711.794 317.563 713.507 316.484 714.209 317.594L715.94 320.331L717.671 323.067C718.373 324.177 716.66 325.256 715.958 324.146L714.227 321.41C713.525 320.3 715.238 319.221 715.94 320.331ZM719.079 330.011C718.754 329.575 718.854 328.953 719.303 328.621C719.753 328.289 720.382 328.373 720.707 328.809L724.553 333.952C724.878 334.388 724.778 335.01 724.329 335.342C723.879 335.674 723.25 335.59 722.925 335.154L719.079 330.011ZM335.846 167.772C335.311 167.639 334.997 167.1 335.145 166.569C335.292 166.038 335.846 165.715 336.381 165.848L342.754 167.431C343.289 167.564 343.603 168.102 343.456 168.634C343.308 169.165 342.754 169.488 342.219 169.355L335.846 167.772ZM340.01 158.171C339.474 158.038 339.16 157.5 339.308 156.968C339.455 156.437 340.009 156.114 340.544 156.247L346.917 157.83C347.452 157.963 347.766 158.502 347.619 159.033C347.471 159.564 346.918 159.887 346.382 159.754L340.01 158.171ZM362.336 174.196C361.801 174.063 361.487 173.525 361.635 172.994C361.782 172.462 362.336 172.139 362.871 172.272L369.244 173.855C369.779 173.988 370.093 174.527 369.946 175.058C369.798 175.59 369.245 175.913 368.709 175.78L362.336 174.196ZM366.5 164.596C365.965 164.463 365.65 163.924 365.798 163.393C365.946 162.861 366.499 162.538 367.034 162.671L373.407 164.255C373.942 164.388 374.257 164.926 374.109 165.458C373.961 165.989 373.408 166.312 372.873 166.179L366.5 164.596ZM348.608 171.448C348.063 171.355 347.708 170.843 347.815 170.303C347.921 169.763 348.449 169.4 348.994 169.492L355.425 170.582C355.97 170.674 356.326 171.187 356.219 171.727C356.112 172.266 355.584 172.629 355.039 172.537L348.608 171.448ZM352.771 161.847C352.226 161.755 351.871 161.242 351.978 160.702C352.084 160.162 352.612 159.799 353.157 159.892L359.589 160.981C360.133 161.073 360.489 161.586 360.382 162.126C360.276 162.666 359.747 163.029 359.203 162.936L352.771 161.847ZM375.098 177.872C374.553 177.78 374.198 177.267 374.305 176.727C374.411 176.187 374.939 175.825 375.484 175.917L381.916 177.006C382.46 177.099 382.816 177.611 382.709 178.151C382.602 178.691 382.074 179.054 381.529 178.962L375.098 177.872ZM379.261 168.271C378.717 168.179 378.361 167.667 378.468 167.127C378.575 166.587 379.103 166.224 379.647 166.316L386.079 167.406C386.624 167.498 386.979 168.01 386.872 168.55C386.766 169.09 386.238 169.453 385.693 169.361L379.261 168.271ZM388.827 180.621C388.291 180.488 387.977 179.949 388.125 179.418C388.272 178.887 388.826 178.564 389.361 178.697L395.734 180.28C396.269 180.413 396.583 180.951 396.436 181.483C396.288 182.014 395.735 182.337 395.2 182.204L388.827 180.621ZM392.99 171.02C392.455 170.887 392.14 170.349 392.288 169.817C392.436 169.286 392.989 168.963 393.524 169.096L399.897 170.679C400.432 170.812 400.747 171.351 400.599 171.882C400.451 172.413 399.898 172.736 399.363 172.603L392.99 171.02ZM401.588 184.297C401.043 184.204 400.688 183.692 400.795 183.152C400.901 182.612 401.43 182.249 401.974 182.341L408.406 183.431C408.951 183.523 409.306 184.036 409.199 184.575C409.093 185.115 408.564 185.478 408.02 185.386L401.588 184.297ZM405.752 174.696C405.207 174.604 404.851 174.091 404.958 173.551C405.065 173.011 405.593 172.648 406.138 172.741L412.569 173.83C413.114 173.922 413.469 174.435 413.362 174.975C413.256 175.515 412.728 175.878 412.183 175.785L405.752 174.696ZM344.173 148.571C343.638 148.438 343.323 147.899 343.471 147.368C343.619 146.836 344.172 146.513 344.707 146.646L351.08 148.229C351.615 148.362 351.93 148.901 351.782 149.432C351.634 149.964 351.081 150.287 350.546 150.154L344.173 148.571ZM370.663 154.995C370.128 154.862 369.814 154.324 369.961 153.792C370.109 153.261 370.662 152.938 371.197 153.071L377.57 154.654C378.106 154.787 378.42 155.325 378.272 155.857C378.125 156.388 377.571 156.711 377.036 156.578L370.663 154.995ZM356.934 152.246C356.39 152.154 356.034 151.641 356.141 151.101C356.248 150.562 356.776 150.199 357.321 150.291L363.752 151.38C364.297 151.473 364.652 151.985 364.545 152.525C364.439 153.065 363.911 153.428 363.366 153.336L356.934 152.246ZM383.425 158.671C382.88 158.578 382.525 158.066 382.631 157.526C382.738 156.986 383.266 156.623 383.811 156.715L390.242 157.805C390.787 157.897 391.142 158.41 391.036 158.95C390.929 159.49 390.401 159.852 389.856 159.76L383.425 158.671ZM397.153 161.42C396.618 161.287 396.304 160.748 396.451 160.217C396.599 159.685 397.152 159.362 397.688 159.495L404.061 161.078C404.596 161.211 404.91 161.75 404.762 162.281C404.615 162.813 404.061 163.136 403.526 163.003L397.153 161.42ZM409.915 165.095C409.37 165.003 409.015 164.49 409.121 163.95C409.228 163.411 409.756 163.048 410.301 163.14L416.732 164.229C417.277 164.322 417.632 164.834 417.526 165.374C417.419 165.914 416.891 166.277 416.346 166.185L409.915 165.095ZM348.336 138.97C347.801 138.837 347.487 138.298 347.634 137.767C347.782 137.236 348.335 136.913 348.871 137.046L355.243 138.629C355.779 138.762 356.093 139.3 355.945 139.832C355.798 140.363 355.244 140.686 354.709 140.553L348.336 138.97ZM374.826 145.394C374.291 145.261 373.977 144.723 374.124 144.191C374.272 143.66 374.825 143.337 375.361 143.47L381.734 145.053C382.269 145.186 382.583 145.725 382.435 146.256C382.288 146.788 381.734 147.111 381.199 146.978L374.826 145.394ZM361.098 142.646C360.553 142.553 360.198 142.041 360.304 141.501C360.411 140.961 360.939 140.598 361.484 140.69L367.915 141.78C368.46 141.872 368.815 142.385 368.709 142.924C368.602 143.464 368.074 143.827 367.529 143.735L361.098 142.646ZM387.588 149.07C387.043 148.978 386.688 148.465 386.794 147.925C386.901 147.385 387.429 147.023 387.974 147.115L394.405 148.204C394.95 148.297 395.305 148.809 395.199 149.349C395.092 149.889 394.564 150.252 394.019 150.159L387.588 149.07ZM401.316 151.819C400.781 151.686 400.467 151.147 400.615 150.616C400.762 150.085 401.316 149.762 401.851 149.895L408.224 151.478C408.759 151.611 409.073 152.149 408.926 152.681C408.778 153.212 408.224 153.535 407.689 153.402L401.316 151.819ZM414.078 155.495C413.533 155.402 413.178 154.89 413.285 154.35C413.391 153.81 413.919 153.447 414.464 153.539L420.895 154.629C421.44 154.721 421.796 155.234 421.689 155.773C421.582 156.313 421.054 156.676 420.509 156.584L414.078 155.495ZM352.499 129.369C351.964 129.236 351.65 128.698 351.797 128.166C351.945 127.635 352.499 127.312 353.034 127.445L359.407 129.028C359.942 129.161 360.256 129.7 360.109 130.231C359.961 130.762 359.407 131.085 358.872 130.952L352.499 129.369ZM378.989 135.794C378.454 135.661 378.14 135.122 378.288 134.591C378.435 134.059 378.989 133.736 379.524 133.869L385.897 135.453C386.432 135.586 386.746 136.124 386.599 136.655C386.451 137.187 385.898 137.51 385.362 137.377L378.989 135.794ZM365.261 133.045C364.716 132.953 364.361 132.44 364.467 131.9C364.574 131.36 365.102 130.997 365.647 131.09L372.078 132.179C372.623 132.271 372.978 132.784 372.872 133.324C372.765 133.864 372.237 134.227 371.692 134.134L365.261 133.045ZM391.751 139.469C391.206 139.377 390.851 138.865 390.958 138.325C391.064 137.785 391.592 137.422 392.137 137.514L398.568 138.604C399.113 138.696 399.469 139.208 399.362 139.748C399.255 140.288 398.727 140.651 398.182 140.559L391.751 139.469ZM405.48 142.218C404.944 142.085 404.63 141.547 404.778 141.015C404.925 140.484 405.479 140.161 406.014 140.294L412.387 141.877C412.922 142.01 413.236 142.549 413.089 143.08C412.941 143.611 412.388 143.934 411.852 143.801L405.48 142.218ZM418.241 145.894C417.696 145.802 417.341 145.289 417.448 144.749C417.554 144.209 418.082 143.846 418.627 143.939L425.059 145.028C425.603 145.12 425.959 145.633 425.852 146.173C425.746 146.713 425.217 147.076 424.673 146.983L418.241 145.894ZM356.663 119.768C356.127 119.636 355.813 119.097 355.961 118.566C356.108 118.034 356.662 117.711 357.197 117.844L363.57 119.427C364.105 119.56 364.419 120.099 364.272 120.63C364.124 121.162 363.571 121.485 363.035 121.352L356.663 119.768ZM383.153 126.193C382.617 126.06 382.303 125.521 382.451 124.99C382.598 124.459 383.152 124.136 383.687 124.269L390.06 125.852C390.595 125.985 390.909 126.523 390.762 127.055C390.614 127.586 390.061 127.909 389.526 127.776L383.153 126.193ZM369.424 123.444C368.879 123.352 368.524 122.839 368.631 122.299C368.737 121.76 369.265 121.397 369.81 121.489L376.242 122.578C376.786 122.671 377.142 123.183 377.035 123.723C376.928 124.263 376.4 124.626 375.856 124.534L369.424 123.444ZM395.914 129.869C395.37 129.776 395.014 129.264 395.121 128.724C395.227 128.184 395.756 127.821 396.3 127.913L402.732 129.003C403.277 129.095 403.632 129.608 403.525 130.148C403.419 130.688 402.891 131.05 402.346 130.958L395.914 129.869ZM409.643 132.617C409.108 132.485 408.793 131.946 408.941 131.415C409.089 130.883 409.642 130.56 410.177 130.693L416.55 132.276C417.085 132.409 417.4 132.948 417.252 133.479C417.104 134.011 416.551 134.334 416.016 134.201L409.643 132.617ZM422.405 136.293C421.86 136.201 421.504 135.688 421.611 135.148C421.718 134.609 422.246 134.246 422.791 134.338L429.222 135.427C429.767 135.52 430.122 136.032 430.015 136.572C429.909 137.112 429.381 137.475 428.836 137.383L422.405 136.293ZM387.316 116.592C386.781 116.459 386.467 115.921 386.614 115.389C386.762 114.858 387.315 114.535 387.85 114.668L394.223 116.251C394.759 116.384 395.073 116.923 394.925 117.454C394.778 117.985 394.224 118.308 393.689 118.176L387.316 116.592ZM373.587 113.843C373.043 113.751 372.687 113.239 372.794 112.699C372.901 112.159 373.429 111.796 373.974 111.888L380.405 112.978C380.95 113.07 381.305 113.582 381.198 114.122C381.092 114.662 380.564 115.025 380.019 114.933L373.587 113.843ZM400.078 120.268C399.533 120.176 399.177 119.663 399.284 119.123C399.391 118.583 399.919 118.22 400.464 118.313L406.895 119.402C407.44 119.494 407.795 120.007 407.688 120.547C407.582 121.087 407.054 121.45 406.509 121.357L400.078 120.268ZM364.012 110.959L364.547 109.035L364.012 110.959ZM364.012 110.959L360.826 110.168C359.534 109.847 360.068 107.923 361.36 108.244L364.547 109.035L367.733 109.827C369.025 110.148 368.491 112.072 367.199 111.751L364.012 110.959ZM416.993 123.808L417.527 121.884L416.993 123.808ZM417.527 121.884C418.819 122.205 418.285 124.129 416.993 123.808L413.806 123.017C412.514 122.696 413.048 120.772 414.341 121.093L417.527 121.884L420.713 122.676C422.006 122.997 421.471 124.921 420.179 124.6L416.993 123.808C415.7 123.487 416.235 121.563 417.527 121.884ZM426.568 126.692C426.023 126.6 425.668 126.088 425.774 125.548C425.881 125.008 426.409 124.645 426.954 124.737L433.385 125.827C433.93 125.919 434.285 126.431 434.179 126.971C434.072 127.511 433.544 127.874 432.999 127.782L426.568 126.692ZM238.602 150.276C238.062 150.162 237.729 149.635 237.857 149.099C237.986 148.563 238.528 148.222 239.069 148.336L245.499 149.698C246.039 149.812 246.372 150.339 246.243 150.875C246.115 151.41 245.572 151.752 245.032 151.637L238.602 150.276ZM242.426 140.546C241.886 140.431 241.553 139.905 241.682 139.369C241.811 138.833 242.353 138.492 242.893 138.606L249.323 139.967C249.863 140.082 250.197 140.609 250.068 141.144C249.939 141.68 249.397 142.022 248.857 141.907L242.426 140.546ZM265.325 155.779C264.785 155.665 264.452 155.138 264.581 154.602C264.71 154.066 265.252 153.725 265.792 153.839L272.222 155.2C272.762 155.315 273.096 155.842 272.967 156.377C272.838 156.913 272.296 157.255 271.756 157.14L265.325 155.779ZM269.15 146.049C268.61 145.934 268.277 145.407 268.405 144.872C268.534 144.336 269.076 143.994 269.616 144.109L276.047 145.47C276.587 145.584 276.92 146.111 276.791 146.647C276.662 147.183 276.12 147.524 275.58 147.41L269.15 146.049ZM251.497 153.507C250.948 153.433 250.575 152.934 250.662 152.391C250.75 151.848 251.265 151.468 251.814 151.541L258.285 152.407C258.833 152.481 259.207 152.98 259.119 153.523C259.032 154.066 258.516 154.447 257.968 154.373L251.497 153.507ZM255.321 143.777C254.773 143.703 254.399 143.204 254.487 142.661C254.574 142.118 255.09 141.738 255.638 141.811L262.109 142.677C262.658 142.751 263.031 143.25 262.944 143.793C262.856 144.336 262.341 144.716 261.792 144.643L255.321 143.777ZM278.22 159.01C277.672 158.936 277.298 158.437 277.386 157.894C277.473 157.351 277.989 156.971 278.537 157.044L285.008 157.91C285.557 157.984 285.93 158.483 285.842 159.026C285.755 159.569 285.24 159.949 284.691 159.876L278.22 159.01ZM282.045 149.279C281.496 149.206 281.123 148.707 281.21 148.164C281.298 147.621 281.813 147.24 282.361 147.314L288.833 148.18C289.381 148.253 289.755 148.753 289.667 149.296C289.579 149.839 289.064 150.219 288.516 150.146L282.045 149.279ZM292.049 161.282C291.509 161.167 291.175 160.64 291.304 160.105C291.433 159.569 291.975 159.227 292.515 159.342L298.946 160.703C299.486 160.817 299.819 161.344 299.69 161.88C299.561 162.416 299.019 162.757 298.479 162.643L292.049 161.282ZM295.873 151.551C295.333 151.437 295 150.91 295.129 150.374C295.258 149.839 295.8 149.497 296.34 149.612L302.77 150.973C303.31 151.087 303.644 151.614 303.515 152.15C303.386 152.686 302.844 153.027 302.304 152.913L295.873 151.551ZM304.943 164.512C304.395 164.439 304.022 163.94 304.109 163.397C304.197 162.854 304.712 162.473 305.26 162.547L311.732 163.413C312.28 163.486 312.653 163.986 312.566 164.529C312.478 165.072 311.963 165.452 311.415 165.379L304.943 164.512ZM308.768 154.782C308.22 154.709 307.846 154.209 307.934 153.667C308.021 153.124 308.537 152.743 309.085 152.817L315.556 153.683C316.104 153.756 316.478 154.256 316.39 154.799C316.303 155.341 315.788 155.722 315.239 155.649L308.768 154.782ZM246.251 130.816C245.711 130.701 245.378 130.174 245.506 129.639C245.635 129.103 246.177 128.761 246.717 128.876L253.148 130.237C253.688 130.351 254.021 130.878 253.892 131.414C253.764 131.95 253.221 132.291 252.681 132.177L246.251 130.816ZM272.974 136.318C272.434 136.204 272.101 135.677 272.23 135.141C272.359 134.606 272.901 134.264 273.441 134.379L279.871 135.74C280.411 135.854 280.745 136.381 280.616 136.917C280.487 137.453 279.945 137.794 279.405 137.68L272.974 136.318ZM259.146 134.046C258.597 133.973 258.224 133.474 258.311 132.931C258.399 132.388 258.914 132.007 259.463 132.081L265.934 132.947C266.482 133.02 266.856 133.52 266.768 134.063C266.68 134.606 266.165 134.986 265.617 134.913L259.146 134.046ZM285.869 139.549C285.321 139.476 284.947 138.976 285.035 138.433C285.122 137.891 285.638 137.51 286.186 137.584L292.657 138.45C293.206 138.523 293.579 139.023 293.491 139.566C293.404 140.108 292.889 140.489 292.34 140.416L285.869 139.549ZM299.698 141.821C299.158 141.707 298.824 141.18 298.953 140.644C299.082 140.109 299.624 139.767 300.164 139.881L306.595 141.243C307.135 141.357 307.468 141.884 307.339 142.42C307.21 142.955 306.668 143.297 306.128 143.183L299.698 141.821ZM312.592 145.052C312.044 144.979 311.671 144.479 311.758 143.936C311.846 143.393 312.361 143.013 312.909 143.086L319.381 143.953C319.929 144.026 320.302 144.526 320.215 145.068C320.127 145.611 319.612 145.992 319.064 145.918L312.592 145.052ZM250.075 121.085C249.535 120.971 249.202 120.444 249.331 119.908C249.46 119.373 250.002 119.031 250.542 119.145L256.972 120.507C257.512 120.621 257.846 121.148 257.717 121.684C257.588 122.22 257.046 122.561 256.506 122.447L250.075 121.085ZM276.799 126.588C276.259 126.474 275.926 125.947 276.054 125.411C276.183 124.876 276.725 124.534 277.265 124.648L283.696 126.01C284.236 126.124 284.569 126.651 284.44 127.187C284.311 127.722 283.769 128.064 283.229 127.95L276.799 126.588ZM262.97 124.316C262.422 124.243 262.048 123.743 262.136 123.2C262.223 122.658 262.739 122.277 263.287 122.351L269.758 123.217C270.307 123.29 270.68 123.79 270.593 124.333C270.505 124.875 269.99 125.256 269.441 125.183L262.97 124.316ZM289.693 129.819C289.145 129.746 288.772 129.246 288.859 128.703C288.947 128.16 289.462 127.78 290.01 127.853L296.482 128.72C297.03 128.793 297.403 129.293 297.316 129.835C297.228 130.378 296.713 130.759 296.165 130.685L289.693 129.819ZM303.522 132.091C302.982 131.977 302.649 131.45 302.778 130.914C302.907 130.378 303.449 130.037 303.989 130.151L310.419 131.513C310.959 131.627 311.293 132.154 311.164 132.689C311.035 133.225 310.493 133.567 309.953 133.452L303.522 132.091ZM316.417 135.322C315.869 135.248 315.495 134.749 315.583 134.206C315.67 133.663 316.186 133.283 316.734 133.356L323.205 134.222C323.753 134.296 324.127 134.795 324.039 135.338C323.952 135.881 323.436 136.262 322.888 136.188L316.417 135.322ZM253.9 111.355C253.36 111.241 253.027 110.714 253.155 110.178C253.284 109.643 253.826 109.301 254.366 109.415L260.797 110.777C261.337 110.891 261.67 111.418 261.541 111.954C261.413 112.489 260.87 112.831 260.33 112.717L253.9 111.355ZM280.623 116.858C280.083 116.744 279.75 116.217 279.879 115.681C280.008 115.145 280.55 114.804 281.09 114.918L287.52 116.28C288.06 116.394 288.394 116.921 288.265 117.456C288.136 117.992 287.594 118.334 287.054 118.219L280.623 116.858ZM266.795 114.586C266.246 114.513 265.873 114.013 265.96 113.47C266.048 112.927 266.563 112.547 267.111 112.62L273.583 113.487C274.131 113.56 274.505 114.06 274.417 114.602C274.329 115.145 273.814 115.526 273.266 115.452L266.795 114.586ZM293.518 120.089C292.97 120.015 292.596 119.516 292.684 118.973C292.771 118.43 293.287 118.05 293.835 118.123L300.306 118.989C300.855 119.063 301.228 119.562 301.14 120.105C301.053 120.648 300.538 121.029 299.989 120.955L293.518 120.089ZM307.347 122.361C306.807 122.246 306.473 121.72 306.602 121.184C306.731 120.648 307.273 120.307 307.813 120.421L314.244 121.782C314.784 121.897 315.117 122.424 314.988 122.959C314.859 123.495 314.317 123.837 313.777 123.722L307.347 122.361ZM320.241 125.592C319.693 125.518 319.32 125.019 319.407 124.476C319.495 123.933 320.01 123.553 320.558 123.626L327.03 124.492C327.578 124.566 327.951 125.065 327.864 125.608C327.776 126.151 327.261 126.531 326.713 126.458L320.241 125.592ZM257.724 101.625C257.184 101.511 256.851 100.984 256.98 100.448C257.109 99.9123 257.651 99.5707 258.191 99.6851L264.621 101.047C265.161 101.161 265.495 101.688 265.366 102.223C265.237 102.759 264.695 103.101 264.155 102.986L257.724 101.625ZM284.448 107.128C283.908 107.013 283.574 106.487 283.703 105.951C283.832 105.415 284.374 105.074 284.914 105.188L291.345 106.549C291.885 106.664 292.218 107.191 292.089 107.726C291.96 108.262 291.418 108.604 290.878 108.489L284.448 107.128ZM270.619 104.856C270.071 104.782 269.697 104.283 269.785 103.74C269.872 103.197 270.388 102.817 270.936 102.89L277.407 103.756C277.956 103.83 278.329 104.329 278.241 104.872C278.154 105.415 277.639 105.796 277.09 105.722L270.619 104.856ZM297.342 110.359C296.794 110.285 296.421 109.786 296.508 109.243C296.596 108.7 297.111 108.32 297.659 108.393L304.131 109.259C304.679 109.333 305.052 109.832 304.965 110.375C304.877 110.918 304.362 111.298 303.814 111.225L297.342 110.359ZM311.171 112.631C310.631 112.516 310.298 111.989 310.427 111.454C310.556 110.918 311.098 110.576 311.638 110.691L318.068 112.052C318.608 112.166 318.942 112.693 318.813 113.229C318.684 113.765 318.142 114.106 317.602 113.992L311.171 112.631ZM324.066 115.861C323.518 115.788 323.144 115.288 323.232 114.746C323.319 114.203 323.835 113.822 324.383 113.896L330.854 114.762C331.402 114.835 331.776 115.335 331.688 115.878C331.601 116.421 331.085 116.801 330.537 116.728L324.066 115.861ZM288.272 97.3976C287.732 97.2832 287.399 96.7563 287.528 96.2206C287.657 95.6849 288.199 95.3433 288.739 95.4576L295.169 96.8191C295.709 96.9334 296.043 97.4604 295.914 97.9961C295.785 98.5318 295.243 98.8733 294.703 98.759L288.272 97.3976ZM274.444 95.1256C273.895 95.0522 273.522 94.5527 273.609 94.0098C273.697 93.467 274.212 93.0865 274.76 93.1598L281.232 94.0262C281.78 94.0996 282.154 94.5991 282.066 95.1419C281.978 95.6848 281.463 96.0653 280.915 95.9919L274.444 95.1256ZM301.167 100.628C300.619 100.555 300.245 100.055 300.333 99.5126C300.42 98.9698 300.936 98.5893 301.484 98.6627L307.955 99.529C308.503 99.6024 308.877 100.102 308.789 100.645C308.702 101.188 308.187 101.568 307.638 101.495L301.167 100.628ZM264.764 92.5755L265.231 90.6355L264.764 92.5755ZM264.764 92.5755L261.549 91.8948C260.245 91.6188 260.712 89.6788 262.015 89.9549L265.231 90.6355L268.446 91.3163C269.75 91.5923 269.283 93.5322 267.979 93.2562L264.764 92.5755ZM318.211 103.581L318.678 101.641L318.211 103.581ZM318.678 101.641C319.981 101.917 319.515 103.857 318.211 103.581L314.996 102.9C313.692 102.624 314.159 100.684 315.462 100.96L318.678 101.641L321.893 102.322C323.196 102.598 322.73 104.538 321.426 104.262L318.211 103.581C316.907 103.305 317.374 101.365 318.678 101.641ZM327.89 106.131C327.342 106.058 326.969 105.558 327.056 105.015C327.144 104.473 327.659 104.092 328.207 104.165L334.679 105.032C335.227 105.105 335.6 105.605 335.513 106.148C335.425 106.69 334.91 107.071 334.362 106.998L327.89 106.131ZM156.47 137.312C155.928 137.207 155.585 136.686 155.705 136.149C155.824 135.611 156.36 135.26 156.902 135.365L163.359 136.615C163.901 136.72 164.244 137.241 164.124 137.779C164.005 138.316 163.468 138.667 162.926 138.562L156.47 137.312ZM160.123 127.522C159.581 127.417 159.238 126.896 159.358 126.358C159.477 125.821 160.014 125.47 160.556 125.575L167.012 126.825C167.554 126.93 167.897 127.451 167.777 127.988C167.658 128.526 167.122 128.877 166.58 128.772L160.123 127.522ZM183.298 142.352C182.756 142.247 182.413 141.726 182.532 141.188C182.652 140.651 183.188 140.3 183.73 140.405L190.186 141.655C190.729 141.76 191.071 142.28 190.952 142.818C190.833 143.356 190.296 143.706 189.754 143.601L183.298 142.352ZM186.951 132.561C186.409 132.456 186.066 131.935 186.186 131.398C186.305 130.86 186.841 130.509 187.384 130.614L193.84 131.864C194.382 131.969 194.725 132.49 194.605 133.028C194.486 133.565 193.95 133.916 193.407 133.811L186.951 132.561ZM169.425 140.319C168.876 140.255 168.493 139.762 168.571 139.218C168.649 138.674 169.158 138.285 169.708 138.349L176.196 139.103C176.746 139.167 177.128 139.66 177.05 140.204C176.972 140.748 176.463 141.137 175.914 141.073L169.425 140.319ZM173.079 130.529C172.529 130.465 172.147 129.972 172.224 129.428C172.302 128.884 172.811 128.495 173.361 128.559L179.849 129.313C180.399 129.377 180.781 129.87 180.703 130.414C180.625 130.958 180.117 131.347 179.567 131.283L173.079 130.529ZM196.253 145.358C195.703 145.295 195.321 144.802 195.399 144.258C195.477 143.714 195.986 143.324 196.535 143.388L203.024 144.143C203.573 144.207 203.956 144.7 203.878 145.244C203.8 145.788 203.291 146.177 202.742 146.113L196.253 145.358ZM199.907 135.568C199.357 135.504 198.974 135.011 199.052 134.467C199.13 133.923 199.639 133.534 200.189 133.598L206.677 134.352C207.227 134.416 207.609 134.909 207.531 135.453C207.453 135.997 206.945 136.386 206.395 136.322L199.907 135.568ZM210.126 147.391C209.584 147.286 209.241 146.765 209.36 146.227C209.48 145.69 210.016 145.339 210.558 145.444L217.014 146.694C217.557 146.799 217.899 147.32 217.78 147.857C217.661 148.395 217.124 148.746 216.582 148.641L210.126 147.391ZM213.779 137.6C213.237 137.495 212.894 136.975 213.014 136.437C213.133 135.899 213.669 135.549 214.212 135.654L220.668 136.903C221.21 137.008 221.553 137.529 221.433 138.067C221.314 138.605 220.778 138.955 220.235 138.85L213.779 137.6ZM223.081 150.398C222.531 150.334 222.149 149.841 222.227 149.297C222.305 148.753 222.814 148.364 223.363 148.428L229.852 149.182C230.401 149.246 230.784 149.739 230.706 150.283C230.628 150.827 230.119 151.216 229.569 151.152L223.081 150.398ZM226.734 140.607C226.185 140.543 225.802 140.051 225.88 139.507C225.958 138.963 226.467 138.573 227.017 138.637L233.505 139.392C234.055 139.456 234.437 139.948 234.359 140.492C234.281 141.036 233.772 141.426 233.223 141.362L226.734 140.607ZM163.777 117.731C163.235 117.626 162.892 117.105 163.011 116.568C163.131 116.03 163.667 115.679 164.209 115.784L170.665 117.034C171.207 117.139 171.55 117.66 171.431 118.198C171.311 118.735 170.775 119.086 170.233 118.981L163.777 117.731ZM190.605 122.771C190.062 122.666 189.72 122.145 189.839 121.607C189.958 121.069 190.495 120.719 191.037 120.824L197.493 122.074C198.035 122.179 198.378 122.699 198.259 123.237C198.139 123.775 197.603 124.125 197.061 124.02L190.605 122.771ZM176.732 120.738C176.182 120.674 175.8 120.181 175.878 119.637C175.956 119.093 176.465 118.704 177.014 118.768L183.503 119.522C184.052 119.586 184.435 120.079 184.357 120.623C184.279 121.167 183.77 121.556 183.22 121.492L176.732 120.738ZM203.56 125.777C203.01 125.713 202.628 125.221 202.706 124.677C202.784 124.133 203.292 123.743 203.842 123.807L210.33 124.562C210.88 124.626 211.263 125.118 211.185 125.662C211.107 126.206 210.598 126.596 210.048 126.532L203.56 125.777ZM217.433 127.81C216.89 127.705 216.548 127.184 216.667 126.646C216.786 126.109 217.323 125.758 217.865 125.863L224.321 127.113C224.863 127.218 225.206 127.739 225.087 128.276C224.967 128.814 224.431 129.165 223.889 129.06L217.433 127.81ZM230.388 130.817C229.838 130.753 229.456 130.26 229.534 129.716C229.612 129.172 230.12 128.783 230.67 128.847L237.158 129.601C237.708 129.665 238.09 130.158 238.013 130.702C237.935 131.246 237.426 131.635 236.876 131.571L230.388 130.817ZM167.43 107.941C166.888 107.836 166.545 107.315 166.665 106.777C166.784 106.24 167.32 105.889 167.862 105.994L174.319 107.244C174.861 107.349 175.204 107.87 175.084 108.407C174.965 108.945 174.428 109.295 173.886 109.19L167.43 107.941ZM194.258 112.98C193.716 112.875 193.373 112.354 193.492 111.817C193.612 111.279 194.148 110.928 194.69 111.033L201.146 112.283C201.689 112.388 202.031 112.909 201.912 113.446C201.793 113.984 201.256 114.335 200.714 114.23L194.258 112.98ZM180.385 110.947C179.836 110.884 179.453 110.391 179.531 109.847C179.609 109.303 180.118 108.914 180.668 108.977L187.156 109.732C187.706 109.796 188.088 110.289 188.01 110.833C187.932 111.377 187.423 111.766 186.874 111.702L180.385 110.947ZM207.213 115.987C206.664 115.923 206.281 115.43 206.359 114.886C206.437 114.342 206.946 113.953 207.495 114.017L213.984 114.771C214.534 114.835 214.916 115.328 214.838 115.872C214.76 116.416 214.251 116.805 213.702 116.741L207.213 115.987ZM221.086 118.019C220.544 117.914 220.201 117.393 220.32 116.856C220.44 116.318 220.976 115.968 221.518 116.073L227.974 117.322C228.517 117.427 228.859 117.948 228.74 118.486C228.621 119.024 228.084 119.374 227.542 119.269L221.086 118.019ZM234.041 121.026C233.491 120.962 233.109 120.47 233.187 119.926C233.265 119.381 233.774 118.992 234.323 119.056L240.812 119.811C241.361 119.874 241.744 120.367 241.666 120.911C241.588 121.455 241.079 121.845 240.529 121.781L234.041 121.026ZM171.083 98.1501C170.541 98.0451 170.198 97.5242 170.318 96.9866C170.437 96.449 170.974 96.0982 171.516 96.2032L177.972 97.4531C178.514 97.5581 178.857 98.079 178.737 98.6166C178.618 99.1542 178.082 99.5049 177.54 99.4L171.083 98.1501ZM197.911 103.189C197.369 103.084 197.026 102.564 197.146 102.026C197.265 101.488 197.801 101.138 198.344 101.243L204.8 102.492C205.342 102.597 205.685 103.118 205.565 103.656C205.446 104.194 204.91 104.544 204.367 104.439L197.911 103.189ZM184.039 101.157C183.489 101.093 183.107 100.6 183.184 100.056C183.262 99.5122 183.771 99.123 184.321 99.1869L190.809 99.9413C191.359 100.005 191.741 100.498 191.663 101.042C191.585 101.586 191.077 101.975 190.527 101.911L184.039 101.157ZM210.867 106.196C210.317 106.132 209.934 105.64 210.012 105.096C210.09 104.552 210.599 104.162 211.149 104.226L217.637 104.981C218.187 105.045 218.569 105.537 218.491 106.081C218.413 106.625 217.905 107.015 217.355 106.951L210.867 106.196ZM224.739 108.229C224.197 108.124 223.854 107.603 223.974 107.065C224.093 106.528 224.629 106.177 225.172 106.282L231.628 107.532C232.17 107.637 232.513 108.158 232.393 108.695C232.274 109.233 231.738 109.584 231.195 109.479L224.739 108.229ZM237.694 111.236C237.145 111.172 236.762 110.679 236.84 110.135C236.918 109.591 237.427 109.202 237.977 109.266L244.465 110.02C245.015 110.084 245.397 110.577 245.319 111.121C245.241 111.665 244.732 112.054 244.183 111.99L237.694 111.236ZM174.737 88.3595C174.195 88.2545 173.852 87.7336 173.971 87.196C174.091 86.6584 174.627 86.3077 175.169 86.4127L181.625 87.6626C182.167 87.7676 182.51 88.2884 182.391 88.826C182.271 89.3636 181.735 89.7144 181.193 89.6094L174.737 88.3595ZM201.565 93.3989C201.022 93.2939 200.68 92.773 200.799 92.2354C200.918 91.6978 201.455 91.3471 201.997 91.4521L208.453 92.7019C208.995 92.8069 209.338 93.3278 209.219 93.8654C209.099 94.403 208.563 94.7538 208.021 94.6488L201.565 93.3989ZM187.692 91.3664C187.142 91.3025 186.76 90.8097 186.838 90.2656C186.916 89.7216 187.425 89.3324 187.974 89.3963L194.463 90.1507C195.012 90.2146 195.395 90.7075 195.317 91.2515C195.239 91.7955 194.73 92.1847 194.18 92.1208L187.692 91.3664ZM214.52 96.4058C213.97 96.3419 213.588 95.849 213.666 95.305C213.744 94.761 214.252 94.3718 214.802 94.4357L221.291 95.1901C221.84 95.254 222.223 95.7468 222.145 96.2909C222.067 96.8349 221.558 97.2241 221.008 97.1602L214.52 96.4058ZM228.393 98.4383C227.85 98.3333 227.508 97.8124 227.627 97.2748C227.746 96.7372 228.283 96.3864 228.825 96.4914L235.281 97.7413C235.823 97.8463 236.166 98.3672 236.047 98.9048C235.927 99.4424 235.391 99.7931 234.849 99.6882L228.393 98.4383ZM241.348 101.445C240.798 101.381 240.416 100.888 240.494 100.344C240.572 99.8004 241.08 99.4112 241.63 99.4751L248.118 100.23C248.668 100.293 249.05 100.786 248.973 101.33C248.895 101.874 248.386 102.263 247.836 102.2L241.348 101.445ZM205.218 83.6083C204.676 83.5034 204.333 82.9825 204.452 82.4449C204.572 81.9073 205.108 81.5565 205.65 81.6615L212.107 82.9114C212.649 83.0164 212.991 83.5373 212.872 84.0749C212.753 84.6125 212.216 84.9632 211.674 84.8582L205.218 83.6083ZM191.345 81.5759C190.796 81.512 190.413 81.0191 190.491 80.4751C190.569 79.9311 191.078 79.5419 191.628 79.6058L198.116 80.3602C198.666 80.4241 199.048 80.9169 198.97 81.4609C198.892 82.005 198.383 82.3942 197.834 82.3303L191.345 81.5759ZM218.173 86.6152C217.624 86.5513 217.241 86.0585 217.319 85.5145C217.397 84.9705 217.906 84.5813 218.455 84.6452L224.944 85.3996C225.494 85.4635 225.876 85.9563 225.798 86.5003C225.72 87.0443 225.211 87.4335 224.662 87.3696L218.173 86.6152ZM181.618 79.1939L182.051 77.2471L181.618 79.1939ZM181.618 79.1939L178.39 78.569C177.081 78.3156 177.513 76.3688 178.822 76.6221L182.051 77.2471L185.279 77.872C186.588 78.1254 186.155 80.0723 184.846 79.8189L181.618 79.1939ZM235.274 89.2727L235.706 87.3258L235.274 89.2727ZM235.706 87.3258C237.015 87.5792 236.583 89.5261 235.274 89.2727L232.046 88.6477C230.737 88.3943 231.169 86.4475 232.478 86.7009L235.706 87.3258L238.934 87.9508C240.243 88.2042 239.811 90.151 238.502 89.8976L235.274 89.2727C233.965 89.0193 234.397 87.0724 235.706 87.3258ZM245.001 91.6546C244.451 91.5907 244.069 91.0979 244.147 90.5539C244.225 90.0098 244.734 89.6206 245.283 89.6846L251.772 90.4389C252.321 90.5029 252.704 90.9957 252.626 91.5397C252.548 92.0837 252.039 92.4729 251.489 92.409L245.001 91.6546ZM226.719 249.328C226.58 249.862 226.033 250.194 225.495 250.07C224.957 249.947 224.633 249.414 224.772 248.88L226.418 242.526C226.556 241.992 227.104 241.66 227.642 241.784C228.179 241.907 228.503 242.44 228.365 242.974L226.719 249.328ZM217.014 245.617C216.875 246.151 216.328 246.483 215.79 246.359C215.252 246.236 214.928 245.703 215.067 245.169L216.713 238.815C216.851 238.281 217.399 237.949 217.937 238.073C218.474 238.196 218.798 238.729 218.66 239.263L217.014 245.617ZM233.403 222.922C233.264 223.456 232.716 223.788 232.179 223.665C231.641 223.541 231.317 223.008 231.455 222.475L233.102 216.12C233.24 215.587 233.788 215.254 234.325 215.378C234.863 215.502 235.187 216.035 235.049 216.568L233.403 222.922ZM223.698 219.211C223.559 219.745 223.011 220.077 222.474 219.954C221.936 219.83 221.612 219.297 221.75 218.764L223.397 212.409C223.535 211.876 224.083 211.543 224.62 211.667C225.158 211.791 225.482 212.324 225.344 212.857L223.698 219.211ZM230.527 236.583C230.43 237.124 229.908 237.496 229.362 237.413C228.815 237.331 228.451 236.824 228.548 236.283L229.694 229.892C229.791 229.35 230.313 228.978 230.859 229.061C231.406 229.144 231.77 229.65 231.673 230.192L230.527 236.583ZM220.822 232.872C220.725 233.414 220.203 233.785 219.657 233.702C219.11 233.62 218.746 233.113 218.843 232.572L219.989 226.181C220.086 225.639 220.608 225.267 221.154 225.35C221.701 225.433 222.065 225.939 221.968 226.481L220.822 232.872ZM237.211 210.177C237.114 210.719 236.592 211.091 236.046 211.008C235.499 210.925 235.135 210.419 235.232 209.877L236.378 203.486C236.475 202.944 236.996 202.573 237.543 202.656C238.09 202.738 238.454 203.245 238.357 203.786L237.211 210.177ZM227.506 206.466C227.409 207.008 226.887 207.38 226.341 207.297C225.794 207.214 225.43 206.708 225.527 206.166L226.673 199.775C226.77 199.234 227.291 198.862 227.838 198.945C228.385 199.027 228.749 199.534 228.652 200.075L227.506 206.466ZM240.086 196.517C239.948 197.05 239.4 197.383 238.862 197.259C238.325 197.135 238.001 196.602 238.139 196.069L239.785 189.715C239.924 189.181 240.472 188.849 241.009 188.972C241.547 189.096 241.871 189.629 241.732 190.162L240.086 196.517ZM230.381 192.806C230.243 193.339 229.695 193.672 229.157 193.548C228.62 193.424 228.296 192.892 228.434 192.358L230.08 186.004C230.219 185.47 230.767 185.138 231.304 185.261C231.842 185.385 232.166 185.918 232.027 186.452L230.381 192.806ZM243.895 183.772C243.798 184.313 243.276 184.685 242.729 184.602C242.183 184.519 241.818 184.013 241.915 183.472L243.061 177.08C243.158 176.539 243.68 176.167 244.227 176.25C244.774 176.333 245.138 176.839 245.041 177.38L243.895 183.772ZM234.19 180.061C234.093 180.602 233.571 180.974 233.024 180.891C232.478 180.808 232.113 180.302 232.21 179.761L233.356 173.369C233.453 172.828 233.975 172.456 234.522 172.539C235.069 172.622 235.433 173.128 235.336 173.669L234.19 180.061ZM207.309 241.906C207.17 242.44 206.623 242.772 206.085 242.648C205.547 242.525 205.223 241.992 205.362 241.458L207.008 235.104C207.146 234.571 207.694 234.238 208.232 234.362C208.769 234.486 209.093 235.018 208.955 235.552L207.309 241.906ZM213.993 215.5C213.854 216.034 213.306 216.366 212.769 216.243C212.231 216.119 211.907 215.586 212.045 215.053L213.692 208.699C213.83 208.165 214.378 207.833 214.915 207.956C215.453 208.08 215.777 208.613 215.639 209.146L213.993 215.5ZM211.117 229.161C211.02 229.703 210.498 230.074 209.952 229.992C209.405 229.909 209.041 229.403 209.138 228.861L210.284 222.47C210.381 221.928 210.903 221.557 211.449 221.639C211.996 221.722 212.36 222.228 212.263 222.77L211.117 229.161ZM217.801 202.755C217.704 203.297 217.182 203.669 216.636 203.586C216.089 203.503 215.725 202.997 215.822 202.455L216.968 196.064C217.065 195.523 217.586 195.151 218.133 195.234C218.68 195.317 219.044 195.823 218.947 196.364L217.801 202.755ZM220.676 189.095C220.538 189.628 219.99 189.961 219.452 189.837C218.915 189.713 218.591 189.181 218.729 188.647L220.375 182.293C220.514 181.759 221.062 181.427 221.599 181.551C222.137 181.674 222.461 182.207 222.322 182.741L220.676 189.095ZM224.485 176.35C224.388 176.891 223.866 177.263 223.319 177.18C222.773 177.097 222.408 176.591 222.505 176.05L223.651 169.658C223.748 169.117 224.27 168.745 224.817 168.828C225.364 168.911 225.728 169.417 225.631 169.958L224.485 176.35ZM197.604 238.195C197.465 238.729 196.918 239.061 196.38 238.938C195.842 238.814 195.518 238.281 195.657 237.747L197.303 231.393C197.441 230.86 197.989 230.527 198.527 230.651C199.064 230.775 199.388 231.307 199.25 231.841L197.604 238.195ZM204.288 211.79C204.149 212.323 203.601 212.656 203.064 212.532C202.526 212.408 202.202 211.875 202.34 211.342L203.987 204.988C204.125 204.454 204.673 204.122 205.21 204.245C205.748 204.369 206.072 204.902 205.934 205.435L204.288 211.79ZM201.412 225.45C201.315 225.992 200.793 226.363 200.247 226.281C199.7 226.198 199.336 225.692 199.433 225.15L200.579 218.759C200.676 218.217 201.198 217.846 201.744 217.928C202.291 218.011 202.655 218.517 202.558 219.059L201.412 225.45ZM208.096 199.045C207.999 199.586 207.477 199.958 206.931 199.875C206.384 199.792 206.02 199.286 206.117 198.745L207.263 192.353C207.36 191.812 207.881 191.44 208.428 191.523C208.975 191.606 209.339 192.112 209.242 192.653L208.096 199.045ZM210.971 185.384C210.833 185.918 210.285 186.25 209.747 186.126C209.21 186.003 208.886 185.47 209.024 184.936L210.67 178.582C210.809 178.048 211.357 177.716 211.894 177.84C212.432 177.963 212.756 178.496 212.617 179.03L210.971 185.384ZM214.78 172.639C214.683 173.18 214.161 173.552 213.614 173.469C213.068 173.386 212.703 172.88 212.8 172.339L213.946 165.947C214.043 165.406 214.565 165.034 215.112 165.117C215.659 165.2 216.023 165.706 215.926 166.248L214.78 172.639ZM187.899 234.484C187.76 235.018 187.213 235.35 186.675 235.227C186.137 235.103 185.813 234.57 185.952 234.037L187.598 227.682C187.736 227.149 188.284 226.816 188.822 226.94C189.359 227.064 189.683 227.597 189.545 228.13L187.899 234.484ZM194.583 208.079C194.444 208.612 193.896 208.945 193.359 208.821C192.821 208.697 192.497 208.164 192.635 207.631L194.282 201.277C194.42 200.743 194.968 200.411 195.505 200.534C196.043 200.658 196.367 201.191 196.229 201.724L194.583 208.079ZM191.707 221.739C191.61 222.281 191.088 222.653 190.542 222.57C189.995 222.487 189.631 221.981 189.728 221.439L190.874 215.048C190.971 214.506 191.493 214.135 192.039 214.218C192.586 214.3 192.95 214.807 192.853 215.348L191.707 221.739ZM198.391 195.334C198.294 195.875 197.772 196.247 197.226 196.164C196.679 196.081 196.315 195.575 196.412 195.034L197.558 188.642C197.655 188.101 198.176 187.729 198.723 187.812C199.27 187.895 199.634 188.401 199.537 188.942L198.391 195.334ZM201.266 181.673C201.128 182.207 200.58 182.539 200.042 182.415C199.505 182.292 199.181 181.759 199.319 181.225L200.965 174.871C201.104 174.337 201.652 174.005 202.189 174.129C202.727 174.252 203.051 174.785 202.912 175.319L201.266 181.673ZM205.075 168.928C204.978 169.469 204.456 169.841 203.909 169.758C203.363 169.675 202.998 169.169 203.095 168.628L204.241 162.237C204.338 161.695 204.86 161.323 205.407 161.406C205.954 161.489 206.318 161.995 206.221 162.537L205.075 168.928ZM178.194 230.773C178.055 231.307 177.508 231.639 176.97 231.516C176.432 231.392 176.108 230.859 176.247 230.326L177.893 223.971C178.031 223.438 178.579 223.105 179.117 223.229C179.654 223.353 179.978 223.886 179.84 224.419L178.194 230.773ZM184.878 204.368C184.739 204.901 184.191 205.234 183.654 205.11C183.116 204.986 182.792 204.454 182.93 203.92L184.577 197.566C184.715 197.032 185.263 196.7 185.8 196.823C186.338 196.947 186.662 197.48 186.524 198.014L184.878 204.368ZM182.002 218.028C181.905 218.57 181.383 218.942 180.837 218.859C180.29 218.776 179.926 218.27 180.023 217.728L181.169 211.337C181.266 210.796 181.788 210.424 182.334 210.507C182.881 210.589 183.245 211.096 183.148 211.637L182.002 218.028ZM188.686 191.623C188.589 192.164 188.067 192.536 187.521 192.453C186.974 192.37 186.61 191.864 186.707 191.323L187.853 184.931C187.95 184.39 188.471 184.018 189.018 184.101C189.565 184.184 189.929 184.69 189.832 185.231L188.686 191.623ZM191.561 177.962C191.423 178.496 190.875 178.828 190.337 178.704C189.8 178.581 189.476 178.048 189.614 177.514L191.26 171.16C191.399 170.626 191.947 170.294 192.484 170.418C193.022 170.541 193.346 171.074 193.207 171.608L191.561 177.962ZM195.37 165.217C195.273 165.758 194.751 166.13 194.204 166.047C193.658 165.965 193.293 165.458 193.39 164.917L194.536 158.526C194.633 157.984 195.155 157.612 195.702 157.695C196.249 157.778 196.613 158.284 196.516 158.826L195.37 165.217ZM175.173 200.657C175.034 201.19 174.486 201.523 173.949 201.399C173.411 201.275 173.087 200.743 173.225 200.209L174.872 193.855C175.01 193.321 175.558 192.989 176.095 193.113C176.633 193.236 176.957 193.769 176.819 194.303L175.173 200.657ZM172.297 214.317C172.2 214.859 171.678 215.231 171.132 215.148C170.585 215.065 170.221 214.559 170.318 214.017L171.464 207.626C171.561 207.085 172.083 206.713 172.629 206.796C173.176 206.879 173.54 207.385 173.443 207.926L172.297 214.317ZM178.981 187.912C178.884 188.453 178.362 188.825 177.816 188.742C177.269 188.659 176.905 188.153 177.002 187.612L178.148 181.22C178.245 180.679 178.766 180.307 179.313 180.39C179.86 180.473 180.224 180.979 180.127 181.52L178.981 187.912ZM169.312 223.885L167.365 223.438L169.312 223.885ZM169.312 223.885L168.489 227.062C168.155 228.351 166.208 227.903 166.542 226.615L167.365 223.438L168.188 220.261C168.521 218.972 170.469 219.42 170.135 220.708L169.312 223.885ZM182.679 171.074L180.732 170.626L182.679 171.074ZM180.732 170.626C181.066 169.338 183.013 169.786 182.679 171.074L181.856 174.251C181.523 175.539 179.575 175.092 179.909 173.803L180.732 170.626L181.555 167.449C181.889 166.161 183.836 166.609 183.502 167.897L182.679 171.074C182.346 172.362 180.399 171.915 180.732 170.626ZM185.665 161.506C185.568 162.048 185.046 162.419 184.499 162.336C183.953 162.254 183.588 161.748 183.685 161.206L184.831 154.815C184.928 154.273 185.45 153.901 185.997 153.984C186.544 154.067 186.908 154.573 186.811 155.115L185.665 161.506Z" fill="#002D6F"/>
</g>
<path d="M455.61 256.846C380.843 243.612 351.42 202.726 362.483 139.741C373.499 77.025 415.03 48.9775 489.797 62.2117C564.296 75.3984 593.988 116.331 583.019 178.777C572.003 241.492 530.108 270.033 455.61 256.846ZM462.739 216.259C505.664 223.857 528.991 205.876 535.236 170.318C541.435 135.031 525.593 110.397 482.668 102.799C439.744 95.2011 416.512 112.639 410.266 148.197C403.973 184.027 419.814 208.661 462.739 216.259Z" fill="#56AAFF"/>
<path d="M455.61 256.846C380.843 243.612 351.42 202.726 362.483 139.741C373.499 77.025 415.03 48.9775 489.797 62.2117C564.296 75.3984 593.988 116.331 583.019 178.777C572.003 241.492 530.108 270.033 455.61 256.846ZM462.739 216.259C505.664 223.857 528.991 205.876 535.236 170.318C541.435 135.031 525.593 110.397 482.668 102.799C439.744 95.2011 416.512 112.639 410.266 148.197C403.973 184.027 419.814 208.661 462.739 216.259Z" fill="#56AAFF"/>
<path d="M384.568 88.2874C397.795 94.4133 417.85 102.887 433.827 109.102C421.345 116.863 413.687 130.273 410.489 148.41C404.185 184.161 420.107 208.752 463.222 216.354C506.338 223.956 529.758 206.024 536.014 170.544C540.921 142.714 532.003 121.519 506.76 110.103L542.247 79.8467C578.555 100.123 591.952 133.96 584.009 179.008C572.975 241.586 530.911 270.047 456.081 256.853C380.982 243.611 351.411 202.797 362.493 139.948C366.254 118.621 373.576 101.314 384.568 88.2874Z" fill="#56AAFF"/>
<path fill-rule="evenodd" clip-rule="evenodd" d="M485.159 24.6675C482.637 22.5248 480.861 19.4849 480.364 15.9502C479.288 8.29343 484.623 1.21407 492.28 0.13799C499.936 -0.938094 507.016 4.39658 508.092 12.0533C509.168 19.7101 503.833 26.7894 496.176 27.8655C495.346 27.9822 494.523 28.0235 493.713 27.9946C509.508 35.1865 515.68 45.0222 512.228 57.5017C507.895 73.1684 507.895 85.0017 512.228 93.0017L429.228 77.0017C434.081 70.4525 437.081 65.4525 438.228 62.0017C443.903 44.9229 443.961 33.5017 444.728 33.5017C445.728 33.5017 457.395 30.0017 479.728 23.0017C481.619 23.535 483.429 24.0902 485.159 24.6675Z" fill="#002D6F"/>
<path d="M507.916 57.493C507.828 41.5604 496.451 27.1099 479.999 23.5025L475.052 22.4181C456.204 18.2854 437.83 29.9484 434.014 48.468L431.911 58.6737C429.257 71.5569 437.734 84.3314 450.846 87.2063L463.313 89.9398L456.526 122.992C460.316 127.147 466.087 129.927 473.838 131.332C481.588 132.737 488.106 131.981 493.391 129.063L505.186 70.998C506.064 68.9519 506.75 66.7864 507.217 64.5182C507.698 62.1856 507.925 59.8556 507.916 57.5561L507.929 57.4913L507.916 57.493Z" fill="#FF9C99"/>
<mask id="mask2_2_977" style="mask-type:alpha" maskUnits="userSpaceOnUse" x="431" y="21" width="77" height="112">
<path d="M507.833 57.2879C507.809 41.3268 496.533 26.8983 480.157 23.3539L475.234 22.2884C456.473 18.2279 438.121 29.9896 434.245 48.559L432.109 58.792C429.412 71.7098 437.806 84.4716 450.857 87.2963L463.267 89.982L456.372 123.122C460.132 127.269 465.869 130.03 473.585 131.405C481.301 132.78 487.797 131.994 493.074 129.049L505.058 70.829C505.941 68.7754 506.633 66.6032 507.108 64.3288C507.596 61.99 507.832 59.6548 507.833 57.3512L507.846 57.2862L507.833 57.2879Z" fill="#FF9C99"/>
</mask>
<g mask="url(#mask2_2_977)">
<path fill-rule="evenodd" clip-rule="evenodd" d="M462.379 89.807L481.452 89.4193L460.406 95.7743L462.379 89.807ZM435.646 42.3832C439.564 32.7792 444.086 26.1113 449.212 22.3796C454.338 18.6478 463.91 15.0557 477.927 11.6034L519.444 39.7091L504.986 79.0929L501.54 91.0304L497.231 71.4236L476.897 51.3139L462.194 48.1307L463.381 42.4402L453.617 46.2738L435.646 42.3832Z" fill="#002D6F"/>
</g>
<path d="M332.144 362.313L315.924 418.879L263.68 403.898L251.515 446.323L184.345 427.062L196.51 384.638L12.1651 331.778L28.3852 275.211L259.043 166.56L326.213 185.821L279.9 347.332L332.144 362.313ZM101.447 296.141L212.953 328.115L240.241 232.95L101.447 296.141Z" fill="#56AAFF"/>
<mask id="mask3_2_977" style="mask-type:alpha" maskUnits="userSpaceOnUse" x="12" y="166" width="321" height="281">
<path d="M332.144 362.313L315.924 418.879L263.68 403.898L251.515 446.323L184.345 427.062L196.51 384.638L12.1651 331.778L28.3852 275.211L259.043 166.56L326.213 185.821L279.9 347.332L332.144 362.313ZM101.447 296.141L212.953 328.115L240.241 232.95L101.447 296.141Z" fill="#56AAFF"/>
</mask>
<g mask="url(#mask3_2_977)">
<path fill-rule="evenodd" clip-rule="evenodd" d="M153.228 317.502L161.228 397.002L142.728 444.502L175.228 463.002L228.228 509.002L239.728 499.502C247.957 490.79 252.624 483.623 253.728 478.002C254.832 472.381 272.666 472.381 307.228 478.002L239.728 293.502L153.228 317.502Z" fill="#002D6F"/>
</g>
<path d="M878.453 326.353L909.636 376.257L863.546 405.057L886.933 442.485L827.674 479.515L804.287 442.087L641.653 543.711L610.47 493.807L684.066 249.694L743.325 212.664L832.362 355.153L878.453 326.353ZM674.911 453.517L773.284 392.046L720.822 308.089L674.911 453.517Z" fill="#56AAFF"/>
<mask id="mask4_2_977" style="mask-type:alpha" maskUnits="userSpaceOnUse" x="610" y="212" width="300" height="332">
<path d="M878.453 326.352L909.636 376.256L863.546 405.056L886.933 442.484L827.674 479.514L804.287 442.086L641.653 543.71L610.47 493.806L684.066 249.693L743.325 212.663L832.362 355.152L878.453 326.352ZM674.911 453.516L773.284 392.045L720.822 308.088L674.911 453.516Z" fill="#56AAFF"/>
</mask>
<g mask="url(#mask4_2_977)">
<path fill-rule="evenodd" clip-rule="evenodd" d="M640.229 427.501C638.895 427.501 630.729 456.001 615.729 513.001L642.229 553.001L733.729 513.501L719.229 420.501C667.895 425.168 641.562 427.501 640.229 427.501Z" fill="#002D6F"/>
</g>
<path fill-rule="evenodd" clip-rule="evenodd" d="M453.728 46.5017L430.228 41.5017C441.895 22.835 457.728 16.5017 477.728 22.5017C494.631 27.5724 481.323 27.074 458.228 35.0017C455.407 35.9702 453.907 39.8036 453.728 46.5017Z" fill="#002D6F"/>
<path d="M438.584 54.3703C438.68 54.8575 438.728 55.4125 438.728 56.0013C438.728 57.933 438.205 59.5013 437.228 59.5013C436.251 59.5013 435.728 57.933 435.728 56.0013C435.728 55.068 435.85 54.2195 436.087 53.5918C433.688 53.0307 431.621 53.0737 429.76 53.7073C429.237 53.8853 428.669 53.6057 428.491 53.0829C428.313 52.5601 428.593 51.992 429.115 51.814C431.938 50.8531 435.076 51.0248 438.75 52.2858C440.519 52.893 442.56 54.4137 444.924 56.8426C445.31 57.2384 445.301 57.8715 444.905 58.2567C444.51 58.642 443.877 58.6335 443.491 58.2377C441.566 56.2599 439.918 54.972 438.584 54.3703ZM466.494 60.9781C466.649 61.5495 466.728 62.2477 466.728 63.0013C466.728 64.933 466.205 66.5013 465.228 66.5013C464.251 66.5013 463.728 64.933 463.728 63.0013C463.728 61.9708 463.877 61.0437 464.164 60.403C462.152 60.052 460.378 60.1564 458.76 60.7073C458.237 60.8853 457.669 60.6057 457.491 60.0829C457.313 59.5601 457.593 58.992 458.115 58.814C460.938 57.8531 464.076 58.0248 467.75 59.2858C469.519 59.893 471.56 61.4137 473.924 63.8426C474.31 64.2384 474.301 64.8715 473.905 65.2567C473.51 65.642 472.877 65.6335 472.491 65.2377C470.326 63.0135 468.512 61.6619 467.101 61.1775C466.896 61.1072 466.694 61.0408 466.494 60.9781ZM453.578 58.0276L447.836 67.3031L451.424 68.0207C451.966 68.129 452.317 68.6558 452.209 69.1974C452.1 69.7389 451.574 70.0902 451.032 69.9818L446.032 68.9818C445.348 68.8451 445.011 68.0679 445.378 67.4749L451.878 56.9749C452.169 56.5053 452.785 56.3603 453.255 56.651C453.724 56.9417 453.869 57.558 453.578 58.0276ZM444.824 75.4966C444.275 75.5498 443.786 75.1473 443.733 74.5976C443.68 74.0479 444.082 73.5591 444.632 73.5059L460.132 72.0059C460.682 71.9527 461.17 72.3552 461.224 72.9049C461.277 73.4547 460.874 73.9434 460.324 73.9966L444.824 75.4966Z" fill="#002D6F"/>
<path fill-rule="evenodd" clip-rule="evenodd" d="M487.44 64.2591C492.574 59.1251 497.51 58.7302 502.249 63.0744C509.358 69.5906 501.311 81.7724 492.831 81.5911C487.178 81.4702 485.381 75.6929 487.44 64.2591Z" fill="#FF9C99"/>
<path fill-rule="evenodd" clip-rule="evenodd" d="M174.173 317.053L165.868 337.222C164.274 341.095 160.695 343.79 156.532 344.252C155.985 344.313 155.431 344.279 154.896 344.151C152.33 343.538 150.747 340.962 151.36 338.396L165.782 278.002L168.017 277.036C179.142 272.225 191.527 271.153 203.313 273.982C227.722 279.84 241.545 286.68 244.782 294.502C248.571 303.659 256.099 326.424 267.365 362.797C268.397 366.131 266.532 369.671 263.198 370.703C263.143 370.72 263.088 370.737 263.032 370.752C259.495 371.743 255.788 369.866 254.492 366.429L237.544 321.498C236.294 318.185 232.598 316.509 229.282 317.752C225.885 319.026 224.022 322.682 224.988 326.179L235.472 364.137C236.666 368.46 234.129 372.932 229.807 374.126C229.633 374.174 229.458 374.216 229.282 374.252C224.502 375.236 219.78 372.339 218.492 367.632L208.097 329.637C207.159 326.207 203.619 324.188 200.189 325.126C200.052 325.164 199.916 325.206 199.782 325.252C196.073 326.536 193.909 330.389 194.741 334.224L203.184 373.136C203.826 376.094 201.948 379.013 198.99 379.655C198.429 379.776 197.853 379.809 197.282 379.752C192.782 379.302 189.046 376.079 187.941 371.693L174.173 317.053ZM687.943 405.745C696.369 403.886 705.175 406.165 711.64 411.879L723.095 422.002L712.095 448.502L688.064 508.877C686.477 512.865 682.036 514.901 677.978 513.502C677.889 513.471 677.8 513.439 677.712 513.405C673.913 511.929 672.029 507.653 673.504 503.853L688.686 464.76C688.773 464.538 688.842 464.309 688.895 464.077C689.491 461.456 687.849 458.848 685.228 458.252C685.203 458.247 685.179 458.241 685.154 458.236C682.148 457.596 679.193 459.513 678.553 462.519L669.895 503.174C669.872 503.281 669.847 503.387 669.82 503.493C668.762 507.594 664.579 510.061 660.478 509.002C656.111 507.875 653.356 503.566 654.167 499.129L661.68 458.009C662.195 455.191 660.439 452.456 657.662 451.752C657.43 451.693 657.194 451.654 656.955 451.635C654.585 451.441 652.507 453.205 652.313 455.575L648.987 496.229C648.98 496.308 648.973 496.386 648.964 496.464C648.426 501.442 643.955 505.04 638.978 504.502C633.831 503.946 630.085 499.359 630.568 494.205C633.898 458.65 637.407 436.416 641.095 427.502C644.563 419.122 660.179 411.87 687.943 405.745Z" fill="#FF9C99"/>
<path fill-rule="evenodd" clip-rule="evenodd" d="M442.728 700.502L334.728 771.502L256.728 553.002L442.728 700.502ZM716.228 747.002L556.228 737.502L525.228 474.002L611.228 494.002L716.228 747.002Z" fill="#FF567B"/>
<path d="M501.808 261.893C501.592 261.384 501.829 260.797 502.337 260.582C502.846 260.366 503.433 260.603 503.649 261.111C512.562 282.111 524.577 292.502 539.728 292.502C540.28 292.502 540.728 292.95 540.728 293.502C540.728 294.054 540.28 294.502 539.728 294.502C523.656 294.502 511.004 283.56 501.808 261.893ZM485.659 332.6C486.157 332.838 486.369 333.434 486.131 333.933C485.893 334.431 485.296 334.642 484.797 334.405L462.797 323.905C462.299 323.667 462.088 323.07 462.326 322.571C462.564 322.073 463.16 321.862 463.659 322.1L485.659 332.6ZM423.243 167.176C423.147 166.632 423.511 166.113 424.054 166.017C424.598 165.921 425.117 166.284 425.213 166.828L428.213 183.828C428.309 184.372 427.946 184.891 427.402 184.987C426.858 185.083 426.339 184.72 426.243 184.176L423.243 167.176Z" fill="#002D6F"/>
<path d="M218.728 346.002C224.527 346.002 229.228 341.301 229.228 335.502C229.228 329.703 224.527 325.002 218.728 325.002C212.929 325.002 208.228 329.703 208.228 335.502C208.228 341.301 212.929 346.002 218.728 346.002Z" fill="#FFE694"/>
<path fill-rule="evenodd" clip-rule="evenodd" d="M102.615 505.675L115.895 513.413L127.228 505.002L124.561 518.46L133.228 522.161L125.895 527.208L128.895 539.993L117.561 532.591L109.228 541.002L107.561 529.226C100.672 526.086 97.228 524.516 97.228 524.516C97.228 524.516 100.672 522.497 107.561 518.46L102.615 505.675ZM750.479 555.991L770.304 548.073L770.789 528.477L783.238 542.903L794.699 536.582L793.952 548.924L810.51 556.573L792.718 562.647L794.798 578.96L780.485 570.715C771.157 575.57 766.494 577.997 766.494 577.997C766.494 577.997 767.229 572.501 768.701 561.509L750.479 555.991ZM425.308 515.002L445.228 526.502L462.228 514.002L458.228 534.002L471.228 539.502L460.228 547.002L464.728 566.002L447.728 555.002L435.228 567.502L432.728 550.002C422.395 545.335 417.228 543.002 417.228 543.002C417.228 543.002 422.395 540.002 432.728 534.002L425.308 515.002ZM346.764 271.694L360.413 279.647L372.061 271.002L369.321 284.834L378.228 288.637L370.691 293.824L373.774 306.965L362.126 299.357L353.561 308.002L351.848 295.899C344.768 292.672 341.228 291.058 341.228 291.058C341.228 291.058 344.768 288.983 351.848 284.834L346.764 271.694Z" fill="#56AAFF"/>
</svg>
